<svg width="61" height="139" viewBox="0 0 61 139" fill="none" xmlns="http://www.w3.org/2000/svg">
<path d="M60.4134 0.39999H65.4135V-4.60001H60.4134V0.39999ZM60.4134 139V144H65.4135V139H60.4134ZM28.3374 139H23.3374V144H28.3374V139ZM28.3374 26.14H33.3374V21.14H28.3374V26.14ZM0.617445 26.14H-4.38255V31.14H0.617445V26.14ZM0.617445 0.39999V-4.60001H-4.38255V0.39999H0.617445ZM55.4134 0.39999V139H65.4135V0.39999H55.4134ZM60.4134 134H28.3374V144H60.4134V134ZM33.3374 139V26.14H23.3374V139H33.3374ZM28.3374 21.14H0.617445V31.14H28.3374V21.14ZM5.61745 26.14V0.39999H-4.38255V26.14H5.61745ZM0.617445 5.39999H60.4134V-4.60001H0.617445V5.39999Z" fill="#D5E093"/>
</svg>
