<svg width="112" height="141" viewBox="0 0 112 141" fill="none" xmlns="http://www.w3.org/2000/svg">
<path d="M111.381 114.864H116.381V109.864H111.381V114.864ZM111.381 141V146H116.381V141H111.381ZM6.63947 141H1.63947V146H6.63947V141ZM6.63947 120.21L3.20635 116.575L1.63947 118.055V120.21H6.63947ZM60.0995 69.72L63.5326 73.3551L63.5412 73.3469L63.5498 73.3387L60.0995 69.72ZM71.5835 55.86L76.0246 58.1571L76.0403 58.1267L76.0556 58.0961L71.5835 55.86ZM68.8115 31.506L65.6378 35.3696L65.7125 35.431L65.7895 35.4894L68.8115 31.506ZM35.9435 30.516L38.031 35.0594L38.0811 35.0363L38.1308 35.0122L35.9435 30.516ZM23.6675 40.812L20.9601 45.0156L24.9664 47.5959L27.7361 43.7182L23.6675 40.812ZM0.303469 25.764L-3.84629 22.9748L-6.69063 27.2066L-2.40392 29.9676L0.303469 25.764ZM22.6775 6.95399L24.8125 11.4752L24.838 11.4632L24.8634 11.4508L22.6775 6.95399ZM82.2755 5.17199L80.2302 9.73454L80.2772 9.75563L80.3247 9.77575L82.2755 5.17199ZM100.293 19.428L96.1605 22.242L96.195 22.2927L96.2308 22.3425L100.293 19.428ZM102.075 62.196L106.583 64.3596L102.075 62.196ZM83.6615 84.768L80.2613 81.1021L80.2451 81.1172L80.229 81.1323L83.6615 84.768ZM51.7835 114.864L48.351 111.228L39.204 119.864H51.7835V114.864ZM106.381 114.864V141H116.381V114.864H106.381ZM111.381 136H6.63947V146H111.381V136ZM11.6395 141V120.21H1.63947V141H11.6395ZM10.0726 123.845L63.5326 73.3551L56.6664 66.0849L3.20635 116.575L10.0726 123.845ZM63.5498 73.3387C69.3546 67.8039 73.6608 62.7271 76.0246 58.1571L67.1424 53.5629C65.5462 56.6489 62.1963 60.8121 56.6491 66.1013L63.5498 73.3387ZM76.0556 58.0961C78.3283 53.5506 79.5535 48.8954 79.5535 44.178H69.5535C69.5535 47.1166 68.7986 50.2494 67.1113 53.6239L76.0556 58.0961ZM79.5535 44.178C79.5535 37.3431 77.1102 31.5256 71.8334 27.5225L65.7895 35.4894C68.1687 37.2944 69.5535 39.9249 69.5535 44.178H79.5535ZM71.9852 27.6424C67.0341 23.5754 60.2215 21.952 52.3775 21.952V31.952C59.0534 31.952 63.1968 33.3646 65.6378 35.3696L71.9852 27.6424ZM52.3775 21.952C45.6378 21.952 39.3984 23.275 33.7561 26.0198L38.1308 35.0122C42.2566 33.005 46.9731 31.952 52.3775 31.952V21.952ZM33.856 25.9726C28.1352 28.6011 23.3757 32.6182 19.5988 37.9058L27.7361 43.7182C30.5593 39.7658 33.9838 36.9189 38.031 35.0594L33.856 25.9726ZM26.3749 36.6084L3.01086 21.5604L-2.40392 29.9676L20.9601 45.0156L26.3749 36.6084ZM4.45322 28.5532C9.32047 21.3117 16.0537 15.6114 24.8125 11.4752L20.5424 2.43275C10.2933 7.27264 2.11047 14.1123 -3.84629 22.9748L4.45322 28.5532ZM24.8634 11.4508C33.5843 7.21151 43.7067 5.024 55.3475 5.024V-4.976C42.4363 -4.976 30.7786 -2.54351 20.4915 2.45715L24.8634 11.4508ZM55.3475 5.024C65.0948 5.024 73.3463 6.64864 80.2302 9.73454L84.3207 0.609444C75.8927 -3.16865 66.1922 -4.976 55.3475 -4.976V5.024ZM80.3247 9.77575C87.3442 12.7501 92.5435 16.9296 96.1605 22.242L104.426 16.614C99.5954 9.51841 92.7827 4.19387 84.2262 0.568233L80.3247 9.77575ZM96.2308 22.3425C99.9091 27.4698 101.827 33.6162 101.827 41.01H111.827C111.827 31.7718 109.39 23.5302 104.356 16.5135L96.2308 22.3425ZM101.827 41.01C101.827 47.8064 100.403 54.1266 97.5679 60.0323L106.583 64.3596C110.084 57.0654 111.827 49.2616 111.827 41.01H101.827ZM97.5679 60.0323C94.7968 65.8053 89.1845 72.8255 80.2613 81.1021L87.0617 88.4339C96.3544 79.8145 103.018 71.7867 106.583 64.3596L97.5679 60.0323ZM80.229 81.1323L48.351 111.228L55.2159 118.5L87.0939 88.4037L80.229 81.1323ZM51.7835 119.864H111.381V109.864H51.7835V119.864Z" fill="#D5E093"/>
</svg>
