<svg width="111" height="142" viewBox="0 0 111 142" fill="none" xmlns="http://www.w3.org/2000/svg">
<path d="M72.8801 56.83L69.1224 53.5316L63.17 60.3128L72.0755 61.7648L72.8801 56.83ZM100.798 70.492L97.0953 73.8519L97.111 73.8692L97.1268 73.8863L100.798 70.492ZM104.164 119.002L108.399 121.659L108.411 121.641L108.422 121.622L104.164 119.002ZM84.7601 135.238L82.6344 130.712L82.6211 130.719L82.6077 130.725L84.7601 135.238ZM24.1721 137.614L22.8164 142.427L22.8563 142.438L22.8963 142.449L24.1721 137.614ZM0.214109 126.526L-4.24355 124.261L-6.18401 128.081L-2.70741 130.584L0.214109 126.526ZM12.6881 101.974L15.6881 97.974L10.9265 94.4028L8.23045 99.7092L12.6881 101.974ZM30.9041 111.28L29.3504 116.032L29.4046 116.05L29.4591 116.067L30.9041 111.28ZM71.2961 109.894L74.042 114.073L74.0831 114.045L74.1238 114.018L71.2961 109.894ZM37.6361 79.6H32.6361V84.6H37.6361V79.6ZM37.6361 58.414L33.8889 55.1036L32.6361 56.5217V58.414H37.6361ZM66.1481 26.14L69.8953 29.4504L77.237 21.14H66.1481V26.14ZM7.14411 26.14H2.14411V31.14H7.14411V26.14ZM7.14411 0.39999V-4.60001H2.14411V0.39999H7.14411ZM104.164 0.39999H109.164V-4.60001H104.164V0.39999ZM104.164 21.19L107.922 24.4884L109.164 23.0732V21.19H104.164ZM72.0755 61.7648C83.4185 63.6142 91.5775 67.771 97.0953 73.8519L104.501 67.132C97.0828 58.9569 86.6297 54.0058 73.6847 51.8952L72.0755 61.7648ZM97.1268 73.8863C102.657 79.8676 105.5 87.3291 105.5 96.628H115.5C115.5 85.0709 111.876 75.1084 104.469 67.0977L97.1268 73.8863ZM105.5 96.628C105.5 103.754 103.645 110.305 99.9058 116.382L108.422 121.622C113.131 113.971 115.5 105.606 115.5 96.628H105.5ZM99.9288 116.345C96.3129 122.107 90.6633 126.941 82.6344 130.712L86.8858 139.764C96.2809 135.351 103.567 129.361 108.399 121.659L99.9288 116.345ZM82.6077 130.725C74.8788 134.411 65.1027 136.376 53.0801 136.376V146.376C66.1375 146.376 77.4814 144.249 86.9125 139.751L82.6077 130.725ZM53.0801 136.376C43.7454 136.376 34.5382 135.178 25.4479 132.779L22.8963 142.449C32.8141 145.066 42.8788 146.376 53.0801 146.376V136.376ZM25.5278 132.801C16.61 130.289 9.17865 126.819 3.13563 122.468L-2.70741 130.584C4.44957 135.737 12.9903 139.659 22.8164 142.427L25.5278 132.801ZM4.67177 128.791L17.1458 104.239L8.23045 99.7092L-4.24355 124.261L4.67177 128.791ZM9.68811 105.974C15.4451 110.292 22.0152 113.634 29.3504 116.032L32.4578 106.528C26.065 104.438 20.4912 101.576 15.6881 97.974L9.68811 105.974ZM29.4591 116.067C36.9206 118.319 44.5353 119.448 52.2881 119.448V109.448C45.5209 109.448 38.8796 108.465 32.3491 106.493L29.4591 116.067ZM52.2881 119.448C60.8938 119.448 68.3136 117.837 74.042 114.073L68.5502 105.715C65.0386 108.023 59.7864 109.448 52.2881 109.448V119.448ZM74.1238 114.018C80.1249 109.903 83.2261 103.926 83.2261 96.628H73.2261C73.2261 100.682 71.7073 103.549 68.4685 105.77L74.1238 114.018ZM83.2261 96.628C83.2261 89.4623 80.3719 83.5415 74.4856 79.6772C68.9662 76.0538 61.3221 74.6 52.2881 74.6V84.6C60.5461 84.6 65.871 85.9842 68.9976 88.0368C71.7573 89.8485 73.2261 92.4417 73.2261 96.628H83.2261ZM52.2881 74.6H37.6361V84.6H52.2881V74.6ZM42.6361 79.6V58.414H32.6361V79.6H42.6361ZM41.3833 61.7244L69.8953 29.4504L62.4009 22.8296L33.8889 55.1036L41.3833 61.7244ZM66.1481 21.14H7.14411V31.14H66.1481V21.14ZM12.1441 26.14V0.39999H2.14411V26.14H12.1441ZM7.14411 5.39999H104.164V-4.60001H7.14411V5.39999ZM99.1641 0.39999V21.19H109.164V0.39999H99.1641ZM100.406 17.8916L69.1224 53.5316L76.6378 60.1284L107.922 24.4884L100.406 17.8916Z" fill="#D5E093"/>
</svg>
