<svg width="129" height="139" viewBox="0 0 129 139" fill="none" xmlns="http://www.w3.org/2000/svg">
<path d="M128.884 109.894V114.894H133.884V109.894H128.884ZM106.312 109.894V104.894H101.312V109.894H106.312ZM106.312 139V144H111.312V139H106.312ZM75.0281 139H70.0281V144H75.0281V139ZM75.0281 109.894H80.0281V104.894H75.0281V109.894ZM0.382141 109.894H-4.61786V114.894H0.382141V109.894ZM0.382141 88.312L-3.63084 85.3294L-4.61786 86.6574V88.312H0.382141ZM65.7221 0.39999V-4.60001H63.2086L61.7092 -2.58263L65.7221 0.39999ZM99.3821 0.39999L103.427 3.33971L109.198 -4.60001H99.3821V0.39999ZM38.7941 83.758L34.7496 80.8183L28.9787 88.758H38.7941V83.758ZM76.0181 83.758V88.758H81.0181V83.758H76.0181ZM76.0181 57.82V52.82H71.0181V57.82H76.0181ZM106.312 57.82H111.312V52.82H106.312V57.82ZM106.312 83.758H101.312V88.758H106.312V83.758ZM128.884 83.758H133.884V78.758H128.884V83.758ZM128.884 104.894H106.312V114.894H128.884V104.894ZM101.312 109.894V139H111.312V109.894H101.312ZM106.312 134H75.0281V144H106.312V134ZM80.0281 139V109.894H70.0281V139H80.0281ZM75.0281 104.894H0.382141V114.894H75.0281V104.894ZM5.38214 109.894V88.312H-4.61786V109.894H5.38214ZM4.39512 91.2946L69.7351 3.38261L61.7092 -2.58263L-3.63084 85.3294L4.39512 91.2946ZM65.7221 5.39999H99.3821V-4.60001H65.7221V5.39999ZM95.3376 -2.53973L34.7496 80.8183L42.8387 86.6977L103.427 3.33971L95.3376 -2.53973ZM38.7941 88.758H76.0181V78.758H38.7941V88.758ZM81.0181 83.758V57.82H71.0181V83.758H81.0181ZM76.0181 62.82H106.312V52.82H76.0181V62.82ZM101.312 57.82V83.758H111.312V57.82H101.312ZM106.312 88.758H128.884V78.758H106.312V88.758ZM123.884 83.758V109.894H133.884V83.758H123.884Z" fill="#D5E093"/>
</svg>
