<svg width="374" height="970" viewBox="0 0 374 970" fill="none" xmlns="http://www.w3.org/2000/svg">
<path d="M0 348.617C0 336.867 6.79947 325.826 18.2525 323.201C80.1652 309.006 168.1 347.502 340.312 332.784C358.226 331.253 374 345.145 374 363.124V607.053C374 621.307 363.889 633.682 349.84 636.09C205.847 660.771 150.569 625.381 32.8519 629.462C15.2181 630.073 0 616.328 0 598.684V348.617Z" fill="#0C6D3C"/>
<path d="M0 673.617C0 661.867 6.79947 650.826 18.2525 648.201C80.1652 634.006 168.1 672.502 340.312 657.784C358.226 656.253 374 670.145 374 688.124V932.053C374 946.307 363.889 958.682 349.84 961.09C205.847 985.771 150.569 950.381 32.8519 954.462C15.2181 955.073 0 941.328 0 923.684V673.617Z" fill="#0C6D3C"/>
<g opacity="0.3">
<path d="M262.427 542.357C234.989 542.357 212.666 563.323 212.666 589.092C212.666 614.861 234.989 635.826 262.427 635.826C289.865 635.826 312.188 614.861 312.188 589.092C312.188 563.322 289.865 542.357 262.427 542.357ZM303.666 583.919C298.768 585.152 290.09 586.53 285.828 582.322C284.775 581.281 283.872 580.202 282.998 579.159C280.538 576.221 277.75 572.892 272.33 572.127C267.535 571.452 264.023 573.497 261.457 574.99C260.329 575.648 258.926 576.461 258.413 576.341C247.579 573.704 248.362 565.536 250.372 555.928C250.742 554.161 251.043 552.724 251.141 551.481C254.731 550.529 258.517 550.02 262.427 550.02C283.5 550.02 300.963 564.81 303.666 583.919ZM242.269 554.92C241.402 559.077 240.327 564.614 241.477 569.924C243.004 576.975 248.153 581.759 256.368 583.758C260.257 584.704 263.305 582.929 265.755 581.503C267.945 580.228 269.376 579.458 271.12 579.705C273.248 580.004 274.333 581.206 276.585 583.896C277.528 585.022 278.597 586.299 279.914 587.601C283.935 591.57 289.467 592.798 294.776 592.798C298.049 592.798 301.237 592.331 303.934 591.751C303.585 596.595 302.293 601.201 300.227 605.405C297.508 603.473 294.199 601.175 292.45 600.165C286.584 596.778 281.045 595.813 275.988 597.298C268.067 599.623 263.677 607.322 261.064 612.912C258.121 619.209 252.669 622.656 247.216 625.443C247.209 625.446 247.203 625.45 247.197 625.453C244.139 624.319 241.258 622.855 238.602 621.107C238.864 620.966 239.126 620.827 239.386 620.688C244.223 618.11 249.706 615.187 249.628 609.466C249.588 606.55 247.573 604.239 245.439 601.792C243.625 599.712 241.568 597.355 240.757 594.63C239.909 591.78 239.453 588.473 239.404 584.802C239.303 577.249 235.335 570.373 228.812 566.094C232.373 561.516 236.967 557.689 242.269 554.92ZM220.824 589.092C220.824 583.252 222.196 577.707 224.652 572.726C228.723 575.618 231.182 580.053 231.248 584.898C231.306 589.234 231.862 593.203 232.901 596.693C234.173 600.966 236.921 604.117 239.129 606.648C240.019 607.668 241.224 609.05 241.465 609.659C241.295 610.861 237.736 612.758 235.36 614.024C234.28 614.6 233.18 615.186 232.104 615.816C225.112 608.823 220.824 599.418 220.824 589.092ZM262.427 628.164C261.018 628.164 259.625 628.098 258.252 627.968C261.975 625.31 265.962 621.494 268.535 615.992C270.507 611.773 273.677 606.004 278.422 604.611C281.128 603.817 284.41 604.517 288.178 606.693C289.691 607.566 293.132 609.964 296.066 612.058C288.494 621.813 276.235 628.164 262.427 628.164Z" fill="black"/>
<path d="M366.104 586.877C365.634 586.254 354.381 571.448 336.067 556.437C325.259 547.578 314.234 540.509 303.297 535.424C289.453 528.987 275.703 525.724 262.428 525.724C249.153 525.724 235.403 528.987 221.558 535.424C210.622 540.509 199.597 547.578 188.789 556.437C170.474 571.448 159.221 586.254 158.751 586.877C157.75 588.204 157.75 589.98 158.751 591.307C159.221 591.93 170.474 606.736 188.788 621.747C199.596 630.606 210.621 637.675 221.558 642.76C237.817 646.741 248.821 642.993 262.095 642.993C275.37 642.993 296.017 642.368 303.297 642.76C314.233 637.675 325.258 630.606 336.066 621.747C354.38 606.736 365.633 591.93 366.103 591.307C367.105 589.98 367.105 588.204 366.104 586.877ZM330.702 615.974C314.659 629.123 289.699 642.76 262.095 642.993C234.788 642.993 210.301 629.184 194.289 616.086C180.71 604.978 170.976 593.734 167.173 589.091C170.957 584.467 180.617 573.304 194.153 562.21C210.196 549.06 235.063 533.386 262.428 533.386C289.735 533.386 314.554 549 330.566 562.098C344.145 573.206 353.879 584.449 357.683 589.093C353.898 593.716 344.238 604.88 330.702 615.974Z" fill="black"/>
<path d="M262.427 517.529C264.68 517.529 266.506 515.814 266.506 513.698V507.831C266.506 505.716 264.68 504 262.427 504C260.174 504 258.348 505.716 258.348 507.831V513.699C258.348 515.814 260.174 517.529 262.427 517.529Z" fill="black"/>
<path d="M202.07 533.293C202.867 534.041 203.91 534.416 204.954 534.416C205.998 534.416 207.042 534.041 207.839 533.293C209.432 531.797 209.432 529.372 207.839 527.875L203.421 523.726C201.828 522.23 199.245 522.23 197.652 523.726C196.059 525.222 196.059 527.648 197.652 529.144L202.07 533.293Z" fill="black"/>
<path d="M319.901 534.416C320.945 534.416 321.99 534.041 322.786 533.293L327.204 529.144C328.796 527.648 328.796 525.222 327.204 523.726C325.611 522.23 323.028 522.23 321.435 523.726L317.017 527.875C315.424 529.371 315.424 531.797 317.017 533.293C317.813 534.042 318.858 534.416 319.901 534.416Z" fill="black"/>
</g>
<path d="M0 28.6173C0 16.867 6.79947 5.82637 18.2525 3.20056C80.1652 -10.994 168.1 27.5023 340.312 12.7837C358.226 11.2527 374 25.1448 374 43.1239V287.053C374 301.307 363.889 313.682 349.84 316.09C205.847 340.771 150.569 305.381 32.8519 309.462C15.2181 310.073 0 296.328 0 278.683V28.6173Z" fill="#0C6D3C"/>
<g clip-path="url(#clip0_1263_28)">
<path d="M318.522 304H182.771C181.444 304 180.207 303.299 179.529 302.152C178.85 301.006 178.827 299.588 179.461 298.419L247.336 173.982C248.655 171.561 252.638 171.561 253.957 173.982L321.832 298.419C322.466 299.588 322.443 301.006 321.764 302.152C321.086 303.299 319.849 304 318.522 304ZM189.122 296.458H312.164L250.647 183.665L189.122 296.458Z" fill="black" fill-opacity="0.3"/>
<path d="M356.229 304H318.521C316.439 304 314.75 302.311 314.75 300.229C314.75 298.148 316.439 296.458 318.521 296.458H349.849L314.968 233.033L300.594 262.777C299.689 264.648 297.449 265.44 295.556 264.527C293.678 263.622 292.894 261.367 293.807 259.489L311.364 223.169C311.982 221.902 313.249 221.079 314.659 221.042C316.077 221.11 317.382 221.758 318.06 222.995L359.54 298.412C360.181 299.581 360.166 300.999 359.479 302.145C358.793 303.299 357.564 304 356.229 304V304Z" fill="black" fill-opacity="0.3"/>
<path d="M250.646 179.562C248.564 179.562 246.875 177.873 246.875 175.792V126.771C246.875 124.689 248.564 123 250.646 123H295.896C297.419 123 298.799 123.92 299.38 125.33C299.968 126.741 299.644 128.362 298.566 129.441L286.144 141.854L298.558 154.268C299.637 155.346 299.961 156.968 299.373 158.378C298.799 159.788 297.419 160.708 295.896 160.708H254.417V175.792C254.417 177.873 252.727 179.562 250.646 179.562V179.562ZM254.417 153.167H286.793L278.15 144.524C276.68 143.053 276.68 140.663 278.15 139.192L286.793 130.542H254.417V153.167Z" fill="black" fill-opacity="0.3"/>
<path d="M261.959 236.125C261.868 236.125 261.785 236.125 261.687 236.118C260.594 236.042 259.598 235.492 258.942 234.617L250.646 223.561L242.35 234.617C241.694 235.492 240.691 236.035 239.605 236.118C238.466 236.208 237.441 235.801 236.671 235.024L224.001 222.354C222.531 220.883 222.531 218.493 224.001 217.022C225.472 215.551 227.863 215.551 229.333 217.022L238.926 226.615L247.629 215.008C249.047 213.108 252.237 213.108 253.663 215.008L262.366 226.615L271.959 217.022C273.429 215.551 275.82 215.551 277.291 217.022C278.761 218.493 278.761 220.883 277.291 222.354L264.621 235.024C263.912 235.733 262.954 236.125 261.959 236.125V236.125Z" fill="black" fill-opacity="0.3"/>
</g>
<g opacity="0.3" clip-path="url(#clip1_1263_28)">
<path d="M189.414 866.896C187.287 866.896 185.237 866.052 183.725 864.54L161.438 842.253C158.46 839.275 160.399 834.164 164.595 833.9L176.455 833.156L168.716 825.417C167.418 824.119 167.418 822.013 168.716 820.715C170.015 819.416 172.12 819.416 173.419 820.715L181.158 828.454L181.902 816.594C182.166 812.39 187.282 810.464 190.255 813.437L212.542 835.723C214.174 837.355 215.027 839.613 214.882 841.916L214.116 854.121C232.717 838.261 256.69 829.166 282.085 829.166C340.072 829.166 387.002 876.09 387.002 934.083C387.002 960.255 377.31 985.322 359.711 1004.67C358.474 1006.02 356.371 1006.12 355.013 1004.89C353.655 1003.65 353.556 1001.55 354.791 1000.19C371.274 982.073 380.352 958.596 380.352 934.083C380.352 879.898 336.269 835.816 282.085 835.816C256.692 835.816 232.799 845.547 214.926 862.222L230.099 877.394C243.821 864.799 262.09 857.091 282.085 857.091C324.538 857.091 359.076 891.629 359.076 934.082C359.076 946.3 356.129 958.47 350.551 969.277C350.551 969.277 350.551 969.278 350.55 969.278C337.627 994.32 311.599 1011.07 282.084 1011.07C245.716 1011.07 214.085 985.386 206.692 949.736C206.319 947.938 207.475 946.178 209.273 945.805C211.071 945.432 212.831 946.588 213.204 948.386C219.938 980.856 248.906 1004.42 282.084 1004.42C308.512 1004.42 332.483 989.788 344.64 966.228C344.64 966.228 344.641 966.227 344.641 966.227C349.806 956.218 352.425 945.403 352.425 934.082C352.425 895.296 320.87 863.741 282.084 863.741C263.92 863.741 247.312 870.703 234.8 882.095L249.838 897.133C258.467 889.592 269.751 885.016 282.084 885.016C309.139 885.016 331.15 907.027 331.15 934.082C331.15 961.137 309.139 983.147 282.084 983.147C255.029 983.147 233.018 961.137 233.018 934.082C233.018 921.748 237.594 910.465 245.135 901.835L230.096 886.797C218.793 899.208 211.847 915.655 211.744 933.673C211.734 935.502 210.247 936.979 208.42 936.979H208.4C206.564 936.968 205.084 935.471 205.094 933.634C205.207 913.801 212.896 895.706 225.394 882.094L210.22 866.92C193.618 884.672 183.818 908.424 183.818 934.081C183.818 988.267 227.9 1032.35 282.085 1032.35C304.531 1032.35 326.48 1024.58 343.888 1010.49C345.316 1009.33 347.408 1009.55 348.565 1010.98C349.721 1012.4 349.501 1014.5 348.074 1015.65C329.486 1030.71 306.05 1039 282.085 1039C224.097 1039 177.167 992.076 177.167 934.083C177.167 911.377 184.303 889.767 197.801 871.59C199.199 869.708 200.654 867.884 202.158 866.111C189.123 866.93 189.826 866.896 189.414 866.896V866.896ZM239.669 934.083C239.669 957.47 258.696 976.498 282.085 976.498C305.472 976.498 324.5 957.47 324.5 934.083C324.5 910.695 305.472 891.668 282.085 891.668C271.585 891.668 261.966 895.504 254.551 901.846L269.683 916.978C273.169 914.444 277.454 912.943 282.085 912.943C293.741 912.943 303.224 922.426 303.224 934.083C303.224 945.739 293.741 955.223 282.085 955.223C270.428 955.223 260.944 945.739 260.944 934.083C260.944 929.452 262.445 925.167 264.98 921.681L249.848 906.549C243.506 913.964 239.669 923.583 239.669 934.083V934.083ZM284.436 936.434C283.137 937.733 281.032 937.733 279.733 936.434L269.766 926.467C268.391 928.681 267.595 931.29 267.595 934.083C267.595 942.073 274.095 948.573 282.085 948.573C290.075 948.573 296.574 942.073 296.574 934.083C296.574 926.094 290.075 919.594 282.085 919.594C279.292 919.594 276.683 920.39 274.468 921.764L284.437 931.732C285.735 933.03 285.735 935.136 284.436 936.434V936.434ZM208.244 841.499C208.27 841.1 208.122 840.708 207.839 840.426L188.296 820.884L187.428 834.724L207.415 854.711L208.244 841.499ZM202.713 859.414L182.725 839.426L168.885 840.295L188.428 859.837C188.71 860.12 189.105 860.27 189.501 860.243L202.713 859.414Z" fill="black"/>
</g>
<defs>
<clipPath id="clip0_1263_28">
<rect width="181" height="181" fill="white" transform="translate(179 123)"/>
</clipPath>
<clipPath id="clip1_1263_28">
<rect width="310" height="235" fill="white" transform="translate(64 724)"/>
</clipPath>
</defs>
</svg>
