<svg width="1200" height="1163" viewBox="0 0 1200 1163" fill="none" xmlns="http://www.w3.org/2000/svg">
<path d="M0 36.5113C0 21.8901 10.4904 9.33928 24.9886 7.44638C234.124 -19.8587 531.692 38.6816 1168.38 12.5528C1185.46 11.8519 1200 25.4736 1200 42.5678V348.328C1200 363.107 1188.94 375.745 1174.32 377.909C645.22 456.209 469.24 341.362 32.6698 371.509C15.1603 372.719 0 358.947 0 341.396V36.5113Z" fill="#0C6D3C"/>
<path d="M0 428.175C0 413.703 10.3396 401.236 24.6416 399.025C314.915 354.149 593.348 460.183 1166.69 406.467C1184.39 404.808 1200 418.652 1200 436.431V740.382C1200 755.137 1189.03 767.76 1174.43 769.914C682.135 842.549 471.475 715.02 33.8897 762.06C15.9483 763.988 0 750.062 0 732.017V428.175Z" fill="#0C6D3C"/>
<path d="M0 824.529C0 810.057 10.3396 797.59 24.6416 795.379C314.915 750.503 593.348 856.538 1166.69 802.821C1184.39 801.163 1200 815.007 1200 832.785V1132.35C1200 1148.92 1186.57 1162.35 1170 1162.35H30C13.4314 1162.35 0 1148.92 0 1132.35V824.529Z" fill="#0C6D3C"/>
<g opacity="0.3" clip-path="url(#clip0_1249_23)">
<path d="M266.723 1007.77C269.852 1007.77 272.868 1006.53 275.093 1004.31L307.885 971.514C312.267 967.133 309.414 959.612 303.24 959.225L285.79 958.13L297.176 946.743C299.087 944.832 299.087 941.734 297.176 939.824C295.265 937.914 292.168 937.914 290.257 939.824L278.87 951.211L277.775 933.761C277.387 927.576 269.859 924.742 265.485 929.115L232.693 961.907C230.292 964.309 229.037 967.63 229.25 971.019L230.377 988.976C203.009 965.641 167.736 952.259 130.371 952.259C45.0511 952.259 -24 1021.3 -24 1106.63C-24 1145.14 -9.73979 1182.02 16.1549 1210.48C17.9743 1212.48 21.0684 1212.63 23.0665 1210.81C25.0653 1208.99 25.2114 1205.9 23.3933 1203.9C-0.858803 1177.24 -14.2149 1142.7 -14.2149 1106.63C-14.2149 1026.9 50.6462 962.043 130.371 962.043C167.732 962.043 202.888 976.362 229.185 1000.9L206.86 1023.22C186.671 1004.69 159.79 993.346 130.371 993.346C67.9072 993.346 17.0891 1044.16 17.0891 1106.63C17.0891 1124.61 21.4259 1142.51 29.6323 1158.41C29.633 1158.41 29.633 1158.41 29.6336 1158.41C48.6488 1195.26 86.9445 1219.91 130.372 1219.91C183.883 1219.91 230.423 1182.11 241.3 1129.66C241.848 1127.02 240.148 1124.43 237.503 1123.88C234.857 1123.33 232.268 1125.03 231.719 1127.67C221.811 1175.45 179.189 1210.13 130.372 1210.13C91.4868 1210.13 56.2172 1188.59 38.3294 1153.93C38.3294 1153.93 38.3287 1153.93 38.3287 1153.92C30.7289 1139.2 26.8749 1123.29 26.8749 1106.63C26.8749 1049.56 73.3034 1003.13 130.372 1003.13C157.098 1003.13 181.534 1013.37 199.943 1030.14L177.818 1052.26C165.121 1041.17 148.518 1034.43 130.372 1034.43C90.5644 1034.43 58.1788 1066.82 58.1788 1106.63C58.1788 1146.43 90.5644 1178.82 130.372 1178.82C170.179 1178.82 202.565 1146.43 202.565 1106.63C202.565 1088.48 195.833 1071.88 184.737 1059.18L206.864 1037.05C223.496 1055.32 233.715 1079.52 233.866 1106.03C233.881 1108.72 236.069 1110.89 238.758 1110.89H238.787C241.489 1110.87 243.667 1108.67 243.652 1105.97C243.485 1076.79 232.172 1050.16 213.783 1030.13L236.109 1007.81C260.537 1033.93 274.957 1068.88 274.957 1106.63C274.956 1186.35 210.096 1251.21 130.371 1251.21C97.3435 1251.21 65.0487 1239.79 39.4357 1219.04C37.3345 1217.34 34.2561 1217.67 32.5542 1219.77C30.8535 1221.87 31.1771 1224.95 33.2763 1226.65C60.6264 1248.8 95.1086 1261 130.371 1261C215.691 1261 284.742 1191.96 284.742 1106.63C284.742 1073.22 274.243 1041.42 254.382 1014.68C252.326 1011.91 250.184 1009.23 247.971 1006.62C267.15 1007.82 266.116 1007.77 266.723 1007.77ZM192.779 1106.63C192.779 1141.04 164.783 1169.04 130.371 1169.04C95.9593 1169.04 67.9633 1141.04 67.9633 1106.63C67.9633 1072.22 95.9593 1044.22 130.371 1044.22C145.82 1044.22 159.973 1049.87 170.883 1059.2L148.618 1081.46C143.488 1077.73 137.184 1075.52 130.371 1075.52C113.22 1075.52 99.2666 1089.48 99.2666 1106.63C99.2666 1123.78 113.22 1137.73 130.371 1137.73C147.522 1137.73 161.476 1123.78 161.476 1106.63C161.476 1099.82 159.268 1093.51 155.538 1088.38L177.803 1066.12C187.134 1077.03 192.779 1091.18 192.779 1106.63ZM126.911 1110.09C128.822 1112 131.92 1112 133.83 1110.09L148.496 1095.42C150.519 1098.68 151.69 1102.52 151.69 1106.63C151.69 1118.39 142.126 1127.95 130.37 1127.95C118.614 1127.95 109.051 1118.38 109.051 1106.63C109.051 1094.87 118.614 1085.31 130.37 1085.31C134.479 1085.31 138.318 1086.48 141.577 1088.5L126.91 1103.17C125 1105.08 125 1108.18 126.911 1110.09ZM239.016 970.405C238.979 969.818 239.197 969.242 239.613 968.826L268.367 940.073L269.645 960.436L240.236 989.845L239.016 970.405ZM247.155 996.764L276.564 967.355L296.928 968.633L268.174 997.387C267.758 997.803 267.178 998.024 266.594 997.984L247.155 996.764Z" fill="black"/>
</g>
<g opacity="0.3">
<path d="M166 600.668C124.748 600.668 91.1875 632.188 91.1875 670.93C91.1875 709.672 124.748 741.192 166 741.192C207.251 741.192 240.812 709.673 240.812 670.93C240.812 632.187 207.251 600.668 166 600.668ZM228.001 663.153C220.636 665.007 207.589 667.078 201.181 660.752C199.599 659.188 198.241 657.566 196.927 655.997C193.228 651.58 189.036 646.574 180.889 645.425C173.679 644.409 168.399 647.485 164.542 649.729C162.845 650.718 160.736 651.941 159.966 651.76C143.678 647.795 144.854 635.515 147.877 621.071C148.432 618.414 148.884 616.254 149.032 614.385C154.43 612.954 160.121 612.188 166 612.188C197.681 612.188 223.936 634.425 228.001 663.153ZM135.694 619.555C134.391 625.804 132.774 634.129 134.503 642.113C136.799 652.713 144.539 659.905 156.89 662.911C162.737 664.334 167.32 661.664 171.003 659.521C174.296 657.604 176.448 656.446 179.069 656.817C182.268 657.268 183.9 659.075 187.285 663.118C188.703 664.811 190.311 666.731 192.291 668.689C198.336 674.656 206.652 676.502 214.634 676.502C219.555 676.502 224.348 675.799 228.402 674.928C227.879 682.211 225.935 689.135 222.83 695.456C218.742 692.551 213.767 689.096 211.138 687.578C202.318 682.486 193.99 681.035 186.388 683.268C174.479 686.763 167.879 698.339 163.951 706.742C159.526 716.209 151.329 721.392 143.131 725.582C143.121 725.586 143.112 725.592 143.102 725.597C138.505 723.893 134.173 721.691 130.18 719.062C130.574 718.852 130.968 718.641 131.36 718.432C138.631 714.556 146.874 710.162 146.757 701.562C146.698 697.177 143.667 693.703 140.459 690.024C137.732 686.897 134.64 683.353 133.42 679.256C132.145 674.971 131.46 670 131.386 664.48C131.234 653.125 125.269 642.788 115.462 636.354C120.816 629.472 127.723 623.719 135.694 619.555ZM103.453 670.93C103.453 662.15 105.515 653.813 109.208 646.325C115.329 650.673 119.026 657.342 119.124 664.625C119.211 671.144 120.048 677.111 121.61 682.358C123.522 688.783 127.653 693.519 130.972 697.324C132.31 698.858 134.123 700.936 134.485 701.852C134.229 703.658 128.879 706.51 125.307 708.414C123.682 709.281 122.029 710.162 120.411 711.107C109.899 700.594 103.453 686.456 103.453 670.93ZM166 729.672C163.881 729.672 161.788 729.573 159.723 729.379C165.32 725.383 171.315 719.645 175.182 711.372C178.147 705.03 182.914 696.356 190.048 694.262C194.115 693.068 199.05 694.121 204.716 697.392C206.99 698.706 212.163 702.311 216.573 705.458C205.19 720.124 186.76 729.672 166 729.672Z" fill="black"/>
<path d="M321.871 667.6C321.164 666.663 304.246 644.403 276.712 621.835C260.463 608.517 243.887 597.888 227.445 590.244C206.631 580.566 185.958 575.66 166.001 575.66C146.043 575.66 125.37 580.567 104.556 590.244C88.114 597.888 71.5382 608.517 55.2893 621.835C27.7543 644.403 10.8363 666.663 10.1292 667.6C8.6236 669.595 8.6236 672.266 10.1292 674.26C10.8357 675.197 27.7537 697.456 55.2881 720.025C71.537 733.343 88.1127 743.972 104.555 751.616C129 757.602 145.543 751.967 165.5 751.967C185.457 751.967 216.5 751.028 227.444 751.616C243.886 743.972 260.462 733.343 276.711 720.025C304.245 697.456 321.163 675.197 321.869 674.26C323.376 672.265 323.376 669.595 321.871 667.6ZM268.647 711.345C244.527 731.115 207 751.616 165.5 751.967C124.445 751.967 87.6313 731.206 63.5588 711.514C43.1433 694.814 28.5086 677.909 22.7904 670.928C28.4798 663.977 43.0035 647.194 63.3534 630.515C87.4731 610.745 124.859 587.18 166 587.18C207.055 587.18 244.369 610.654 268.441 630.346C288.857 647.047 303.491 663.95 309.21 670.932C303.52 677.883 288.996 694.666 268.647 711.345Z" fill="black"/>
<path d="M166 563.341C169.387 563.341 172.133 560.761 172.133 557.581V548.76C172.133 545.579 169.387 543 166 543C162.613 543 159.867 545.579 159.867 548.76V557.581C159.867 560.762 162.613 563.341 166 563.341Z" fill="black"/>
<path d="M75.2565 587.041C76.4542 588.165 78.0236 588.728 79.593 588.728C81.1623 588.728 82.7323 588.165 83.9295 587.041C86.3243 584.792 86.3243 581.145 83.9295 578.895L77.2876 572.657C74.8928 570.408 71.0095 570.408 68.614 572.657C66.2192 574.906 66.2192 578.553 68.614 580.803L75.2565 587.041Z" fill="black"/>
<path d="M252.407 588.728C253.976 588.728 255.546 588.165 256.744 587.04L263.385 580.803C265.78 578.553 265.78 574.906 263.385 572.657C260.991 570.408 257.107 570.408 254.712 572.657L248.071 578.894C245.676 581.144 245.676 584.791 248.071 587.04C249.268 588.165 250.838 588.728 252.407 588.728Z" fill="black"/>
</g>
<g clip-path="url(#clip1_1249_23)">
<path d="M228.167 372H42.1668C40.3482 372 38.6535 371.039 37.7235 369.468C36.7935 367.898 36.7625 365.955 37.6305 364.353L130.631 193.853C132.439 190.536 137.895 190.536 139.703 193.853L232.703 364.353C233.571 365.955 233.54 367.898 232.61 369.468C231.68 371.039 229.986 372 228.167 372ZM50.8675 361.667H219.456L135.167 207.121L50.8675 361.667Z" fill="black" fill-opacity="0.3"/>
<path d="M279.833 372H228.167C225.315 372 223 369.685 223 366.833C223 363.981 225.315 361.667 228.167 361.667H271.091L223.3 274.763L203.604 315.518C202.364 318.081 199.295 319.166 196.702 317.915C194.129 316.675 193.054 313.586 194.304 311.013L218.36 261.247C219.208 259.511 220.944 258.385 222.876 258.333C224.819 258.426 226.606 259.315 227.536 261.01L284.37 364.343C285.248 365.945 285.227 367.887 284.287 369.458C283.347 371.039 281.662 372 279.833 372Z" fill="black" fill-opacity="0.3"/>
<path d="M135.167 201.5C132.315 201.5 130 199.185 130 196.333V129.167C130 126.315 132.315 124 135.167 124H197.167C199.254 124 201.145 125.261 201.941 127.193C202.747 129.125 202.302 131.347 200.825 132.825L183.806 149.833L200.814 166.842C202.292 168.32 202.736 170.541 201.93 172.474C201.145 174.406 199.254 175.667 197.167 175.667H140.333V196.333C140.333 199.185 138.019 201.5 135.167 201.5ZM140.333 165.333H184.694L172.852 153.491C170.837 151.476 170.837 148.201 172.852 146.186L184.694 134.333H140.333V165.333Z" fill="black" fill-opacity="0.3"/>
<path d="M150.667 279C150.543 279 150.429 279 150.295 278.99C148.797 278.886 147.433 278.132 146.534 276.933L135.167 261.785L123.8 276.933C122.901 278.132 121.527 278.876 120.039 278.99C118.479 279.114 117.073 278.556 116.019 277.491L98.6592 260.131C96.6442 258.116 96.6442 254.841 98.6592 252.826C100.674 250.811 103.95 250.811 105.965 252.826L119.109 265.97L131.034 250.067C132.976 247.463 137.347 247.463 139.3 250.067L151.225 265.97L164.369 252.826C166.384 250.811 169.66 250.811 171.675 252.826C173.69 254.841 173.69 258.116 171.675 260.131L154.315 277.491C153.343 278.463 152.031 279 150.667 279Z" fill="black" fill-opacity="0.3"/>
</g>
<defs>
<clipPath id="clip0_1249_23">
<rect width="310" height="235" fill="white" transform="translate(0 927)"/>
</clipPath>
<clipPath id="clip1_1249_23">
<rect width="248" height="248" fill="white" transform="translate(37 124)"/>
</clipPath>
</defs>
</svg>
