<svg width="1440" height="722" viewBox="0 0 1440 722" fill="none" xmlns="http://www.w3.org/2000/svg">
<rect x="-156" width="1597" height="722" fill="#0C6D3C"/>
<g opacity="0.3" clip-path="url(#clip0_0_1)">
<path d="M445.142 276.717C443.779 273.925 441.412 271.829 438.475 270.817C435.537 269.805 432.381 269.999 429.59 271.36C426.797 272.721 424.7 275.089 423.688 278.026C422.676 280.963 422.87 284.12 424.231 286.911L436.511 312.1C437.872 314.891 440.241 316.988 443.178 318C446.115 319.012 449.27 318.818 452.063 317.457L505.88 291.22C508.673 289.858 510.768 287.49 511.78 284.555C512.791 281.617 512.6 278.462 511.238 275.668C509.877 272.875 507.508 270.78 504.571 269.768C501.633 268.756 498.478 268.948 495.686 270.31L489.752 273.203C487.342 269.581 484.444 266.344 481.14 263.586L482.864 258.583C484.953 252.519 481.719 245.886 475.656 243.797L441.173 231.917L442.489 228.099C445.158 220.35 441.026 211.874 433.277 209.204L394.821 195.956C387.072 193.286 378.595 197.419 375.926 205.168L370.455 221.047C368.972 225.352 371.268 230.062 375.573 231.545L426.52 249.096C430.825 250.58 435.535 248.283 437.018 243.978L438.868 238.61L473.349 250.489C475.723 251.307 476.989 253.904 476.171 256.277L475.109 259.359C472.546 257.853 469.829 256.586 466.977 255.604C443.539 247.529 417.901 260.028 409.826 283.467C401.751 306.905 414.251 332.543 437.689 340.618C440.548 341.603 443.466 342.287 446.404 342.682L411.327 444.499C410.509 446.872 407.913 448.137 405.539 447.319L270.012 400.628C267.638 399.811 266.373 397.216 267.191 394.842L332.035 206.621C332.853 204.247 335.448 202.981 337.822 203.798L360.066 211.462C361.914 212.099 363.929 211.117 364.565 209.268C365.202 207.42 364.22 205.406 362.372 204.769L340.127 197.106C334.065 195.017 327.432 198.251 325.342 204.315L260.498 392.537C258.409 398.599 261.643 405.232 267.706 407.321L403.235 454.012C409.298 456.101 415.931 452.867 418.019 446.804L453.763 343.052C459.79 342.861 465.77 341.46 471.377 338.838C481.977 333.88 490.121 325.141 494.304 314.231C495.003 312.406 494.092 310.36 492.266 309.659C490.453 308.966 488.395 309.871 487.694 311.697C481.806 327.054 467.165 336.365 451.588 336.007C451.379 335.986 451.171 335.981 450.967 335.998C447.321 335.854 443.632 335.178 439.995 333.925C420.247 327.122 409.716 305.52 416.519 285.772C423.322 266.025 444.924 255.493 464.671 262.296C472.257 264.91 478.762 269.833 483.325 276.336L452.324 291.452L445.142 276.717ZM430.326 241.673C430.113 242.289 429.442 242.616 428.826 242.404L377.879 224.852C377.263 224.64 376.936 223.968 377.148 223.352L382.618 207.473C384.017 203.414 388.455 201.25 392.515 202.648L430.971 215.897C435.029 217.295 437.195 221.734 435.796 225.794L430.326 241.673ZM498.788 276.674C499.882 276.14 501.116 276.065 502.265 276.461C503.415 276.857 504.341 277.678 504.875 278.771C505.975 281.027 505.034 283.759 502.778 284.858L448.96 311.095C447.867 311.628 446.632 311.705 445.481 311.308C444.331 310.912 443.405 310.091 442.873 308.998L430.592 283.809C430.06 282.717 429.985 281.482 430.381 280.332C430.777 279.181 431.597 278.255 432.691 277.723C433.784 277.19 435.019 277.113 436.169 277.51C437.318 277.905 438.245 278.727 438.778 279.82L447.512 297.735C448.369 299.492 450.487 300.221 452.244 299.365L498.788 276.674Z" fill="black"/>
<path d="M397.425 290.816L356.651 276.769C354.803 276.132 352.79 277.115 352.154 278.963C351.518 280.809 352.498 282.823 354.346 283.46L395.12 297.507C396.968 298.143 398.982 297.161 399.618 295.315C400.255 293.467 399.273 291.452 397.425 290.816Z" fill="black"/>
<path d="M362.164 240.028L339.648 232.271C337.8 231.635 335.786 232.617 335.149 234.465C334.512 236.313 335.494 238.327 337.342 238.964L359.858 246.721C361.706 247.358 363.721 246.375 364.358 244.527C364.994 242.679 364.012 240.665 362.164 240.028Z" fill="black"/>
<path d="M348.998 298.984L389.771 313.031C391.619 313.667 393.634 312.685 394.27 310.837C394.907 308.991 393.924 306.977 392.076 306.34L351.303 292.293C349.455 291.656 347.442 292.639 346.806 294.485C346.169 296.333 347.149 298.347 348.998 298.984Z" fill="black"/>
<path d="M397.528 336.252L342.67 317.353C340.822 316.716 338.809 317.699 338.172 319.547C337.536 321.395 338.516 323.409 340.364 324.046L395.223 342.945C397.071 343.582 399.085 342.6 399.722 340.752C400.359 338.903 399.376 336.889 397.528 336.252Z" fill="black"/>
<path d="M335.015 339.57L362.446 349.02C364.294 349.656 366.306 348.674 366.943 346.825C367.58 344.977 366.599 342.964 364.751 342.327L337.321 332.877C335.473 332.24 333.46 333.223 332.824 335.071C332.187 336.919 333.167 338.933 335.015 339.57Z" fill="black"/>
<path d="M326.367 364.673L367.141 378.72C368.989 379.357 371.003 378.375 371.64 376.527C372.277 374.679 371.295 372.664 369.446 372.027L328.673 357.98C326.825 357.344 324.812 358.327 324.175 360.175C323.539 362.023 324.519 364.036 326.367 364.673Z" fill="black"/>
<path d="M321.019 380.195L375.878 399.095C377.726 399.731 379.74 398.749 380.377 396.901C381.013 395.055 380.031 393.04 378.183 392.404L323.324 373.504C321.476 372.868 319.463 373.85 318.827 375.697C318.191 377.545 319.171 379.559 321.019 380.195Z" fill="black"/>
<path d="M335.85 266.357C328.397 263.79 320.245 267.764 317.678 275.217C315.11 282.67 319.084 290.821 326.537 293.389C333.99 295.957 342.142 291.983 344.709 284.529C347.277 277.076 343.303 268.925 335.85 266.357ZM328.843 286.696C325.081 285.4 323.074 281.285 324.37 277.522C325.666 273.76 329.782 271.754 333.544 273.05C337.306 274.346 339.313 278.462 338.017 282.224C336.721 285.986 332.605 287.992 328.843 286.696Z" fill="black"/>
<path d="M321.698 307.434C314.245 304.866 306.093 308.842 303.526 316.294C300.959 323.747 304.933 331.898 312.386 334.466C319.839 337.033 327.99 333.059 330.558 325.606C333.125 318.155 329.152 310.002 321.698 307.434ZM314.691 327.775C310.929 326.479 308.922 322.363 310.218 318.601C311.515 314.837 315.631 312.831 319.393 314.127C323.155 315.423 325.161 319.538 323.865 323.302C322.569 327.065 318.453 329.071 314.691 327.775Z" fill="black"/>
<path d="M307.701 348.062C300.248 345.494 292.097 349.468 289.529 356.921C286.962 364.374 290.936 372.526 298.389 375.093C305.842 377.661 313.993 373.687 316.561 366.234C319.129 358.781 315.155 350.629 307.701 348.062ZM300.694 368.401C296.932 367.104 294.926 362.989 296.222 359.227C297.518 355.464 301.633 353.458 305.396 354.754C309.158 356.05 311.164 360.166 309.868 363.928C308.572 367.69 304.457 369.697 300.694 368.401Z" fill="black"/>
</g>
<g opacity="0.3" clip-path="url(#clip1_0_1)">
<path d="M1078.61 344.143C1075.51 343.978 1072.53 345.028 1070.22 347.104C1067.91 349.179 1066.54 352.032 1066.38 355.133C1066.21 358.236 1067.26 361.219 1069.33 363.53C1071.41 365.842 1074.26 367.206 1077.36 367.373L1105.35 368.879C1108.45 369.045 1111.43 367.994 1113.74 365.918C1116.05 363.843 1117.42 360.991 1117.58 357.889L1120.8 298.103C1120.97 295 1119.92 292.019 1117.84 289.708C1115.77 287.397 1112.92 286.031 1109.81 285.864C1106.71 285.696 1103.73 286.749 1101.42 288.825C1099.1 290.9 1097.74 293.752 1097.57 296.854L1097.22 303.445C1092.88 303.792 1088.64 304.752 1084.63 306.3L1081.09 302.363C1076.81 297.59 1069.44 297.193 1064.67 301.478L1037.53 325.844L1034.83 322.84C1029.36 316.741 1019.94 316.235 1013.84 321.71L983.576 348.885C977.478 354.36 976.971 363.777 982.447 369.875L993.668 382.372C996.71 385.76 1001.94 386.042 1005.33 382.999L1045.42 346.999C1048.81 343.957 1049.09 338.725 1046.05 335.336L1042.26 331.111L1069.4 306.746C1071.26 305.069 1074.15 305.224 1075.83 307.092L1078 309.517C1075.44 311.025 1073.01 312.785 1070.77 314.8C1052.32 331.362 1050.79 359.844 1067.35 378.29C1083.92 396.735 1112.4 398.268 1130.84 381.705C1133.09 379.685 1135.11 377.467 1136.88 375.091L1208.83 455.22C1210.51 457.088 1210.35 459.972 1208.48 461.649L1101.82 557.418C1099.95 559.095 1097.07 558.94 1095.4 557.072L962.392 408.943C960.714 407.075 960.868 404.191 962.736 402.514L980.243 386.795C981.697 385.489 981.817 383.252 980.511 381.797C979.206 380.343 976.968 380.222 975.513 381.528L958.007 397.247C953.236 401.531 952.839 408.9 957.125 413.672L1090.13 561.801C1094.41 566.572 1101.78 566.969 1106.55 562.685L1213.21 466.915C1217.98 462.631 1218.38 455.263 1214.1 450.491L1140.78 368.839C1143.54 363.479 1145.22 357.571 1145.66 351.397C1146.47 339.723 1142.79 328.359 1135.29 319.401C1134.03 317.904 1131.8 317.706 1130.3 318.961C1128.82 320.209 1128.61 322.447 1129.86 323.947C1140.42 336.556 1141.45 353.876 1133.57 367.317C1133.45 367.489 1133.34 367.669 1133.26 367.856C1131.36 370.972 1128.98 373.868 1126.11 376.438C1110.57 390.393 1086.58 389.101 1072.62 373.56C1058.67 358.019 1059.96 334.021 1075.5 320.067C1081.47 314.707 1088.93 311.414 1096.83 310.585L1094.98 345.025L1078.61 344.143ZM1040.79 340.066C1041.22 340.55 1041.18 341.296 1040.7 341.732L1000.6 377.732C1000.12 378.168 999.37 378.128 998.935 377.643L987.714 365.146C984.845 361.951 985.111 357.02 988.306 354.152L1018.57 326.977C1021.76 324.11 1026.7 324.374 1029.56 327.569L1040.79 340.066ZM1104.64 297.234C1104.71 296.019 1105.24 294.903 1106.14 294.092C1107.05 293.279 1108.22 292.869 1109.43 292.933C1111.94 293.068 1113.87 295.218 1113.73 297.723L1110.52 357.51C1110.45 358.724 1109.92 359.841 1109.01 360.654C1108.11 361.466 1106.94 361.877 1105.73 361.811L1077.74 360.306C1076.53 360.241 1075.41 359.706 1074.6 358.801C1073.79 357.896 1073.38 356.729 1073.44 355.514C1073.51 354.3 1074.04 353.184 1074.95 352.371C1075.85 351.559 1077.02 351.148 1078.23 351.213L1098.14 352.284C1100.09 352.389 1101.75 350.892 1101.86 348.94L1104.64 297.234Z" fill="black"/>
<path d="M1067.75 392.7L1035.66 421.512C1034.21 422.818 1034.09 425.055 1035.4 426.509C1036.7 427.962 1038.94 428.084 1040.39 426.778L1072.48 397.966C1073.93 396.66 1074.05 394.422 1072.75 392.969C1071.44 391.514 1069.21 391.394 1067.75 392.7Z" fill="black"/>
<path d="M1006.23 398.842L988.51 414.752C987.055 416.058 986.935 418.296 988.241 419.75C989.547 421.205 991.784 421.325 993.239 420.019L1010.96 404.109C1012.41 402.803 1012.53 400.565 1011.23 399.111C1009.92 397.656 1007.68 397.536 1006.23 398.842Z" fill="black"/>
<path d="M1051.36 438.995L1083.45 410.183C1084.9 408.877 1085.02 406.639 1083.72 405.185C1082.41 403.732 1080.18 403.611 1078.72 404.917L1046.63 433.729C1045.18 435.035 1045.06 437.272 1046.36 438.725C1047.67 440.179 1049.91 440.301 1051.36 438.995Z" fill="black"/>
<path d="M1107.51 414.686L1064.34 453.451C1062.89 454.757 1062.77 456.994 1064.07 458.448C1065.38 459.903 1067.62 460.024 1069.07 458.718L1112.24 419.953C1113.7 418.647 1113.82 416.41 1112.51 414.955C1111.21 413.501 1108.97 413.38 1107.51 414.686Z" fill="black"/>
<path d="M1080.04 470.935L1101.63 451.552C1103.08 450.246 1103.2 448.01 1101.9 446.555C1100.59 445.101 1098.35 444.979 1096.9 446.285L1075.31 465.668C1073.86 466.974 1073.74 469.211 1075.04 470.665C1076.35 472.12 1078.59 472.241 1080.04 470.935Z" fill="black"/>
<path d="M1097.78 490.692L1129.87 461.88C1131.32 460.574 1131.44 458.336 1130.14 456.882C1128.83 455.427 1126.59 455.307 1125.14 456.613L1093.05 485.425C1091.6 486.731 1091.48 488.967 1092.78 490.422C1094.09 491.876 1096.32 491.998 1097.78 490.692Z" fill="black"/>
<path d="M1108.75 502.908L1151.92 464.143C1153.38 462.837 1153.5 460.599 1152.19 459.145C1150.89 457.692 1148.65 457.571 1147.19 458.877L1104.02 497.642C1102.57 498.948 1102.45 501.185 1103.75 502.638C1105.06 504.092 1107.29 504.214 1108.75 502.908Z" fill="black"/>
<path d="M1016.46 434.634C1010.59 439.901 1010.1 448.956 1015.37 454.822C1020.64 460.687 1029.69 461.175 1035.56 455.908C1041.42 450.641 1041.91 441.586 1036.64 435.72C1031.38 429.855 1022.32 429.368 1016.46 434.634ZM1030.83 450.641C1027.87 453.299 1023.3 453.053 1020.64 450.093C1017.98 447.132 1018.22 442.56 1021.19 439.901C1024.15 437.243 1028.72 437.489 1031.38 440.45C1034.04 443.41 1033.79 447.982 1030.83 450.641Z" fill="black"/>
<path d="M1045.48 466.961C1039.62 472.228 1039.13 481.284 1044.4 487.149C1049.66 493.014 1058.72 493.501 1064.58 488.235C1070.45 482.968 1070.94 473.913 1065.67 468.047C1060.4 462.183 1051.35 461.694 1045.48 466.961ZM1059.86 482.969C1056.9 485.628 1052.32 485.382 1049.66 482.421C1047.01 479.458 1047.25 474.887 1050.21 472.228C1053.17 469.57 1057.74 469.816 1060.4 472.778C1063.06 475.739 1062.82 480.31 1059.86 482.969Z" fill="black"/>
<path d="M1074.19 498.935C1068.33 504.201 1067.84 513.257 1073.11 519.122C1078.37 524.988 1087.43 525.475 1093.29 520.208C1099.16 514.942 1099.65 505.886 1094.38 500.021C1089.11 494.155 1080.06 493.668 1074.19 498.935ZM1088.56 514.941C1085.6 517.6 1081.03 517.354 1078.37 514.393C1075.71 511.432 1075.96 506.86 1078.92 504.202C1081.88 501.543 1086.45 501.789 1089.11 504.75C1091.77 507.711 1091.52 512.283 1088.56 514.941Z" fill="black"/>
</g>
<rect x="405" y="264" width="630" height="98" rx="16.5" fill="white"/>
<rect x="405" y="380" width="630" height="98" rx="16.5" fill="white"/>
<rect x="405" y="496" width="630" height="98" rx="16.5" fill="white"/>
<circle cx="995" cy="313" r="16" fill="#0C6D3C"/>
<circle cx="995" cy="429" r="16" fill="#0C6D3C"/>
<circle cx="995" cy="545" r="16" fill="#0C6D3C"/>
<rect x="992.692" y="303" width="4.61538" height="20" rx="2.30769" fill="white"/>
<rect x="1005" y="310.692" width="4.61539" height="20" rx="2.30769" transform="rotate(90 1005 310.692)" fill="white"/>
<rect x="992.692" y="419" width="4.61538" height="20" rx="2.30769" fill="white"/>
<rect x="1005" y="426.692" width="4.61539" height="20" rx="2.30769" transform="rotate(90 1005 426.692)" fill="white"/>
<rect x="992.692" y="535" width="4.61538" height="20" rx="2.30769" fill="white"/>
<rect x="1005" y="542.692" width="4.61539" height="20" rx="2.30769" transform="rotate(90 1005 542.692)" fill="white"/>
<defs>
<clipPath id="clip0_0_1">
<rect width="241.243" height="241.243" fill="white" transform="translate(316.578 169) rotate(19.0094)"/>
</clipPath>
<clipPath id="clip1_0_1">
<rect width="241.243" height="241.243" fill="white" transform="translate(922 404.174) rotate(-41.9204)"/>
</clipPath>
</defs>
</svg>
