<svg width="414" height="722" viewBox="0 0 414 722" fill="none" xmlns="http://www.w3.org/2000/svg">
<rect width="414" height="722" fill="#0C6D3C"/>
<g opacity="0.3" clip-path="url(#clip0_0_1)">
<path d="M85.8817 240.981C84.8827 238.934 83.147 237.396 80.9932 236.654C78.8395 235.912 76.5253 236.054 74.4787 237.052C72.4304 238.051 70.8932 239.786 70.1512 241.94C69.4092 244.094 69.5512 246.408 70.549 248.455L79.5532 266.924C80.551 268.97 82.288 270.508 84.4417 271.25C86.5955 271.992 88.9084 271.85 90.9563 270.852L130.416 251.614C132.465 250.616 134.001 248.88 134.742 246.727C135.484 244.573 135.343 242.26 134.345 240.211C133.347 238.163 131.61 236.627 129.456 235.885C127.303 235.143 124.989 235.284 122.942 236.283L118.591 238.404C116.824 235.748 114.699 233.374 112.276 231.352L113.54 227.684C115.072 223.237 112.701 218.374 108.256 216.843L82.9718 208.132L83.9362 205.333C85.8936 199.651 82.8635 193.436 77.1818 191.478L48.9849 181.764C43.3032 179.807 37.0879 182.837 35.1305 188.518L31.1194 200.161C30.0319 203.318 31.7155 206.771 34.8722 207.859L72.2277 220.728C75.3843 221.816 78.8376 220.132 79.9251 216.975L81.2812 213.039L106.564 221.749C108.304 222.349 109.233 224.253 108.633 225.994L107.854 228.253C105.975 227.149 103.983 226.22 101.892 225.5C84.7063 219.579 65.9078 228.744 59.9872 245.929C54.0666 263.115 63.2314 281.913 80.4169 287.834C82.5133 288.556 84.6528 289.058 86.8069 289.347L61.0875 364.002C60.4879 365.743 58.5842 366.67 56.8438 366.07L-42.5284 331.835C-44.2688 331.236 -45.1963 329.333 -44.5968 327.593L2.94872 189.584C3.54829 187.844 5.45123 186.915 7.1916 187.515L23.5019 193.134C24.8569 193.6 26.3339 192.88 26.8008 191.525C27.2676 190.17 26.5475 188.693 25.1924 188.226L8.8822 182.607C4.43685 181.076 -0.426613 183.447 -1.95852 187.894L-49.504 325.902C-51.0355 330.348 -48.6644 335.211 -44.219 336.743L55.1545 370.978C59.5998 372.509 64.4633 370.138 65.9947 365.693L92.2029 289.619C96.6219 289.479 101.007 288.451 105.118 286.529C112.89 282.894 118.862 276.486 121.929 268.486C122.441 267.148 121.773 265.648 120.435 265.134C119.105 264.626 117.596 265.29 117.082 266.628C112.765 277.889 102.03 284.716 90.6082 284.454C90.4551 284.438 90.3024 284.434 90.1525 284.447C87.4798 284.341 84.7742 283.845 82.1075 282.927C67.6282 277.938 59.9061 262.099 64.8944 247.62C69.8827 233.141 85.7219 225.419 100.201 230.407C105.763 232.323 110.533 235.933 113.879 240.701L91.1479 251.784L85.8817 240.981ZM75.0179 215.285C74.8623 215.737 74.3699 215.977 73.9182 215.821L36.5628 202.952C36.1111 202.796 35.871 202.304 36.0266 201.852L40.0377 190.209C41.0633 187.232 44.3176 185.646 47.2943 186.671L75.4912 196.385C78.4667 197.41 80.0545 200.665 79.029 203.642L75.0179 215.285ZM125.217 240.949C126.018 240.557 126.924 240.502 127.766 240.792C128.609 241.083 129.288 241.685 129.68 242.487C130.486 244.14 129.796 246.144 128.142 246.95L88.6809 266.187C87.8798 266.578 86.974 266.634 86.1306 266.344C85.2872 266.053 84.6083 265.451 84.2177 264.65L75.2134 246.181C74.8229 245.379 74.7679 244.474 75.0585 243.631C75.349 242.787 75.9499 242.108 76.7523 241.718C77.5535 241.327 78.4592 241.271 79.3026 241.562C80.1448 241.852 80.825 242.454 81.2156 243.255L87.6196 256.391C88.2477 257.679 89.8005 258.214 91.0888 257.586L125.217 240.949Z" fill="black"/>
<path d="M50.8936 251.319L20.9973 241.019C19.6422 240.552 18.1665 241.273 17.6996 242.628C17.2332 243.982 17.9521 245.458 19.3071 245.925L49.2035 256.225C50.5585 256.692 52.0356 255.972 52.502 254.618C52.9688 253.263 52.2487 251.786 50.8936 251.319Z" fill="black"/>
<path d="M25.0391 214.08L8.52979 208.392C7.17475 207.926 5.6977 208.646 5.23087 210.001C4.76405 211.356 5.48415 212.833 6.83919 213.3L23.3485 218.987C24.7035 219.454 26.1806 218.734 26.6474 217.379C27.1142 216.024 26.3941 214.547 25.0391 214.08Z" fill="black"/>
<path d="M15.3872 257.307L45.2836 267.607C46.6386 268.074 48.1157 267.354 48.5825 265.999C49.0489 264.645 48.3288 263.168 46.9737 262.701L17.0773 252.401C15.7223 251.934 14.2465 252.655 13.7801 254.009C13.3133 255.364 14.0321 256.84 15.3872 257.307Z" fill="black"/>
<path d="M50.9691 284.634L10.7453 270.776C9.39027 270.309 7.9145 271.03 7.44767 272.385C6.98084 273.74 7.69967 275.216 9.05471 275.683L49.2785 289.541C50.6335 290.008 52.1106 289.288 52.5774 287.932C53.0442 286.577 52.3241 285.1 50.9691 284.634Z" fill="black"/>
<path d="M5.13479 287.066L25.2473 293.995C26.6024 294.462 28.0781 293.742 28.545 292.387C29.0118 291.031 28.293 289.555 26.9379 289.088L6.82539 282.159C5.47035 281.692 3.99457 282.413 3.52775 283.768C3.06092 285.123 3.77975 286.599 5.13479 287.066Z" fill="black"/>
<path d="M-1.20701 305.473L28.6894 315.773C30.0444 316.239 31.5214 315.519 31.9883 314.164C32.4551 312.809 31.735 311.332 30.38 310.865L0.483591 300.566C-0.871448 300.099 -2.34722 300.819 -2.81405 302.174C-3.28088 303.529 -2.56205 305.006 -1.20701 305.473Z" fill="black"/>
<path d="M-5.12844 316.853L35.0954 330.711C36.4504 331.178 37.9275 330.458 38.3943 329.103C38.8607 327.749 38.1406 326.272 36.7855 325.805L-3.43828 311.948C-4.79332 311.481 -6.2691 312.201 -6.73549 313.555C-7.20231 314.91 -6.48348 316.387 -5.12844 316.853Z" fill="black"/>
<path d="M5.74611 233.385C0.281287 231.502 -5.69553 234.416 -7.57822 239.881C-9.46091 245.346 -6.54703 251.323 -1.08222 253.205C4.38261 255.088 10.3594 252.174 12.2421 246.709C14.1248 241.244 11.2109 235.268 5.74611 233.385ZM0.608381 248.298C-2.15018 247.348 -3.62134 244.33 -2.67099 241.571C-1.72063 238.813 1.29694 237.342 4.05551 238.292C6.81408 239.242 8.28523 242.26 7.33488 245.019C6.38452 247.777 3.36695 249.248 0.608381 248.298Z" fill="black"/>
<path d="M-4.63084 263.504C-10.0957 261.621 -16.0729 264.536 -17.9552 270C-19.8379 275.465 -16.924 281.442 -11.4592 283.324C-5.99435 285.207 -0.0175239 282.293 1.86517 276.828C3.74742 271.365 0.833979 265.387 -4.63084 263.504ZM-9.76901 278.418C-12.5276 277.468 -13.9987 274.45 -13.0484 271.692C-12.0976 268.932 -9.08001 267.461 -6.32144 268.411C-3.56287 269.362 -2.09172 272.379 -3.04251 275.139C-3.99287 277.898 -7.01044 279.369 -9.76901 278.418Z" fill="black"/>
</g>
<g opacity="0.3" clip-path="url(#clip1_0_1)">
<path d="M367.012 357.838C364.318 357.694 361.727 358.607 359.72 360.409C357.712 362.212 356.527 364.689 356.382 367.382C356.237 370.077 357.15 372.667 358.952 374.675C360.755 376.683 363.232 377.867 365.925 378.012L390.227 379.32C392.919 379.465 395.511 378.551 397.518 376.749C399.526 374.946 400.71 372.47 400.856 369.776L403.649 317.855C403.794 315.16 402.881 312.57 401.079 310.564C399.277 308.556 396.801 307.371 394.105 307.226C391.411 307.08 388.821 307.994 386.814 309.797C384.806 311.599 383.62 314.075 383.476 316.769L383.168 322.494C379.402 322.795 375.722 323.629 372.234 324.973L369.164 321.554C365.443 317.409 359.043 317.064 354.9 320.785L331.332 341.946L328.989 339.337C324.233 334.041 316.055 333.601 310.759 338.356L284.476 361.956C279.18 366.711 278.74 374.889 283.495 380.185L293.24 391.038C295.882 393.981 300.425 394.225 303.368 391.583L338.188 360.318C341.131 357.676 341.375 353.132 338.733 350.19L335.439 346.521L359.006 325.36C360.628 323.904 363.133 324.038 364.59 325.661L366.481 327.767C364.257 329.077 362.148 330.605 360.199 332.355C344.18 346.739 342.849 371.473 357.233 387.493C371.616 403.512 396.351 404.843 412.37 390.459C414.324 388.705 416.075 386.778 417.614 384.715L480.097 454.304C481.554 455.926 481.418 458.43 479.796 459.887L387.167 543.057C385.545 544.514 383.042 544.379 381.585 542.757L266.078 414.114C264.621 412.492 264.755 409.987 266.377 408.53L281.58 394.879C282.844 393.745 282.948 391.802 281.814 390.539C280.68 389.276 278.736 389.171 277.473 390.305L262.27 403.956C258.126 407.677 257.782 414.076 261.504 418.221L377.011 546.864C380.731 551.008 387.131 551.352 391.274 547.631L483.904 464.46C488.048 460.739 488.392 454.34 484.671 450.196L421.001 379.285C423.399 374.63 424.859 369.5 425.234 364.138C425.944 353.999 422.748 344.13 416.231 336.351C415.141 335.051 413.203 334.878 411.901 335.969C410.61 337.053 410.428 338.996 411.518 340.299C420.691 351.249 421.58 366.291 414.736 377.964C414.632 378.113 414.54 378.269 414.466 378.431C412.819 381.137 410.749 383.653 408.263 385.885C394.767 398.004 373.925 396.882 361.807 383.386C349.688 369.889 350.81 349.048 364.306 336.929C369.491 332.274 375.973 329.414 382.835 328.694L381.227 358.604L367.012 357.838ZM334.159 354.297C334.537 354.718 334.502 355.366 334.081 355.744L299.261 387.009C298.84 387.387 298.192 387.352 297.814 386.931L288.069 376.078C285.578 373.303 285.808 369.021 288.583 366.53L314.866 342.931C317.64 340.44 321.923 340.669 324.414 343.444L334.159 354.297ZM389.616 317.1C389.672 316.044 390.136 315.076 390.921 314.371C391.707 313.665 392.721 313.309 393.776 313.364C395.952 313.481 397.629 315.349 397.512 317.525L394.717 369.447C394.66 370.501 394.197 371.471 393.411 372.177C392.625 372.883 391.611 373.239 390.557 373.182L366.255 371.875C365.201 371.818 364.232 371.354 363.526 370.568C362.821 369.782 362.463 368.769 362.521 367.713C362.578 366.659 363.041 365.689 363.827 364.983C364.612 364.279 365.627 363.921 366.681 363.978L383.965 364.908C385.66 364.999 387.108 363.699 387.199 362.004L389.616 317.1Z" fill="black"/>
<path d="M357.579 400.007L329.712 425.029C328.449 426.163 328.345 428.105 329.479 429.368C330.612 430.63 332.555 430.736 333.818 429.602L361.685 404.58C362.948 403.446 363.053 401.502 361.92 400.24C360.786 398.977 358.842 398.873 357.579 400.007Z" fill="black"/>
<path d="M304.151 405.341L288.762 419.159C287.499 420.293 287.394 422.236 288.528 423.499C289.662 424.762 291.606 424.867 292.869 423.733L308.258 409.915C309.521 408.781 309.625 406.838 308.491 405.575C307.357 404.311 305.414 404.207 304.151 405.341Z" fill="black"/>
<path d="M343.345 440.213L371.213 415.191C372.476 414.057 372.58 412.113 371.446 410.85C370.313 409.588 368.37 409.484 367.107 410.618L339.239 435.64C337.976 436.774 337.873 438.716 339.006 439.978C340.14 441.241 342.082 441.347 343.345 440.213Z" fill="black"/>
<path d="M392.112 419.102L354.618 452.767C353.355 453.901 353.251 455.844 354.386 457.107C355.52 458.37 357.462 458.476 358.725 457.341L396.219 423.676C397.482 422.542 397.587 420.598 396.453 419.335C395.319 418.072 393.375 417.968 392.112 419.102Z" fill="black"/>
<path d="M368.25 467.951L386.998 451.117C388.261 449.983 388.365 448.041 387.23 446.778C386.096 445.515 384.154 445.409 382.891 446.543L364.143 463.377C362.88 464.511 362.777 466.453 363.911 467.716C365.045 468.979 366.987 469.085 368.25 467.951Z" fill="black"/>
<path d="M383.657 485.109L411.524 460.087C412.787 458.953 412.892 457.009 411.758 455.746C410.624 454.483 408.68 454.379 407.417 455.513L379.55 480.535C378.287 481.669 378.183 483.611 379.317 484.874C380.451 486.137 382.394 486.243 383.657 485.109Z" fill="black"/>
<path d="M393.181 495.718L430.675 462.052C431.938 460.918 432.043 458.975 430.909 457.712C429.776 456.45 427.832 456.345 426.569 457.479L389.075 491.145C387.812 492.279 387.709 494.222 388.842 495.483C389.976 496.747 391.918 496.852 393.181 495.718Z" fill="black"/>
<path d="M313.031 436.425C307.937 440.999 307.514 448.863 312.087 453.957C316.661 459.051 324.525 459.474 329.619 454.9C334.713 450.326 335.136 442.462 330.563 437.368C325.989 432.274 318.125 431.851 313.031 436.425ZM325.512 450.326C322.941 452.635 318.97 452.421 316.662 449.85C314.353 447.278 314.566 443.308 317.138 440.999C319.709 438.69 323.68 438.904 325.988 441.475C328.297 444.047 328.084 448.017 325.512 450.326Z" fill="black"/>
<path d="M338.24 464.5C333.146 469.073 332.724 476.939 337.296 482.032C341.87 487.126 349.734 487.549 354.828 482.975C359.922 478.401 360.345 470.537 355.772 465.443C351.199 460.35 343.334 459.926 338.24 464.5ZM350.722 478.402C348.151 480.711 344.18 480.497 341.872 477.926C339.562 475.353 339.775 471.383 342.347 469.074C344.918 466.765 348.889 466.979 351.198 469.551C353.507 472.122 353.294 476.093 350.722 478.402Z" fill="black"/>
<path d="M363.171 492.268C358.077 496.842 357.654 504.706 362.228 509.8C366.802 514.894 374.666 515.317 379.76 510.743C384.854 506.17 385.277 498.305 380.703 493.211C376.129 488.117 368.265 487.694 363.171 492.268ZM375.653 506.169C373.081 508.478 369.111 508.264 366.802 505.693C364.493 503.122 364.707 499.151 367.278 496.842C369.85 494.534 373.82 494.747 376.129 497.319C378.438 499.89 378.224 503.86 375.653 506.169Z" fill="black"/>
</g>
<rect x="20" y="216" width="374" height="66" rx="16.5" fill="white"/>
<rect x="20" y="293" width="374" height="66" rx="16.5" fill="white"/>
<rect x="20" y="370" width="374" height="66" rx="16.5" fill="white"/>
<circle cx="370.5" cy="249.5" r="9.5" fill="#0C6D3C"/>
<circle cx="370.5" cy="326.5" r="9.5" fill="#0C6D3C"/>
<circle cx="370.5" cy="403.5" r="9.5" fill="#0C6D3C"/>
<rect x="368.883" y="243.152" width="2.73993" height="11.873" rx="1.36996" fill="white"/>
<rect x="376.189" y="247.719" width="2.73993" height="11.873" rx="1.36996" transform="rotate(90 376.189 247.719)" fill="white"/>
<rect x="368.883" y="320.152" width="2.73993" height="11.873" rx="1.36996" fill="white"/>
<rect x="376.189" y="324.719" width="2.73993" height="11.873" rx="1.36996" transform="rotate(90 376.189 324.719)" fill="white"/>
<rect x="368.883" y="397.152" width="2.73993" height="11.873" rx="1.36996" fill="white"/>
<rect x="376.189" y="401.719" width="2.73993" height="11.873" rx="1.36996" transform="rotate(90 376.189 401.719)" fill="white"/>
<defs>
<clipPath id="clip0_0_1">
<rect width="176.885" height="176.885" fill="white" transform="translate(-8.38477 162) rotate(19.0094)"/>
</clipPath>
<clipPath id="clip1_0_1">
<rect width="209.508" height="209.508" fill="white" transform="translate(231 409.972) rotate(-41.9204)"/>
</clipPath>
</defs>
</svg>
