<svg width="707" height="527" viewBox="0 0 707 527" fill="none" xmlns="http://www.w3.org/2000/svg">
<path d="M183.808 149.696H181.858V155H177.854V149.696H175.904L172.94 155H168.156L172.55 147.772L168.468 141.012H172.758L175.852 146.446H177.854V141.012H181.858V146.446H183.834L186.954 141.012H191.244L187.162 147.772L191.582 155H186.772L183.808 149.696ZM193.69 141.012H197.72V149.332L204.532 141.012H208.25V155H204.22V146.68L197.434 155H193.69V141.012ZM221.096 147.72C221.928 147.98 222.57 148.379 223.02 148.916C223.488 149.453 223.722 150.095 223.722 150.84C223.722 151.724 223.419 152.504 222.812 153.18C222.206 153.839 221.374 154.35 220.316 154.714C219.259 155.078 218.063 155.26 216.728 155.26C215.636 155.26 214.562 155.147 213.504 154.922C212.447 154.697 211.468 154.359 210.566 153.908L211.658 151.074C213.132 151.785 214.761 152.14 216.546 152.14C217.5 152.14 218.245 152.001 218.782 151.724C219.337 151.429 219.614 151.022 219.614 150.502C219.614 150.051 219.424 149.713 219.042 149.488C218.661 149.245 218.106 149.124 217.378 149.124H214.518V146.602H217.014C217.725 146.602 218.271 146.489 218.652 146.264C219.034 146.039 219.224 145.709 219.224 145.276C219.224 144.825 218.982 144.479 218.496 144.236C218.028 143.993 217.352 143.872 216.468 143.872C215.116 143.872 213.643 144.193 212.048 144.834L211.06 142.026C213.002 141.177 214.891 140.752 216.728 140.752C217.994 140.752 219.12 140.908 220.108 141.22C221.114 141.532 221.902 141.991 222.474 142.598C223.046 143.187 223.332 143.881 223.332 144.678C223.332 145.337 223.133 145.935 222.734 146.472C222.336 146.992 221.79 147.408 221.096 147.72ZM226.673 141.012H230.703V146.472H236.787V141.012H240.843V155H236.787V149.774H230.703V155H226.673V141.012ZM252.291 145.484C254.111 145.501 255.507 145.917 256.477 146.732C257.448 147.529 257.933 148.665 257.933 150.138C257.933 151.681 257.387 152.885 256.295 153.752C255.221 154.601 253.704 155.026 251.745 155.026L244.725 155V141.012H248.755V145.484H252.291ZM251.381 152.14C252.161 152.157 252.759 151.993 253.175 151.646C253.591 151.299 253.799 150.779 253.799 150.086C253.799 149.41 253.591 148.916 253.175 148.604C252.777 148.292 252.179 148.127 251.381 148.11L248.755 148.084V152.14H251.381ZM183.86 173.012V187H179.804V176.34H173.98V187H169.95V173.012H183.86ZM194.301 187.208C192.827 187.208 191.501 186.905 190.323 186.298C189.161 185.674 188.251 184.816 187.593 183.724C186.934 182.632 186.605 181.393 186.605 180.006C186.605 178.619 186.934 177.38 187.593 176.288C188.251 175.196 189.161 174.347 190.323 173.74C191.501 173.116 192.827 172.804 194.301 172.804C195.774 172.804 197.091 173.116 198.253 173.74C199.414 174.347 200.324 175.196 200.983 176.288C201.641 177.38 201.971 178.619 201.971 180.006C201.971 181.393 201.641 182.632 200.983 183.724C200.324 184.816 199.414 185.674 198.253 186.298C197.091 186.905 195.774 187.208 194.301 187.208ZM194.301 183.88C195.341 183.88 196.19 183.533 196.849 182.84C197.525 182.129 197.863 181.185 197.863 180.006C197.863 178.827 197.525 177.891 196.849 177.198C196.19 176.487 195.341 176.132 194.301 176.132C193.261 176.132 192.403 176.487 191.727 177.198C191.051 177.891 190.713 178.827 190.713 180.006C190.713 181.185 191.051 182.129 191.727 182.84C192.403 183.533 193.261 183.88 194.301 183.88ZM220.235 183.672V190.016H216.465V187H206.637V190.016H202.867V183.672H203.439C204.306 183.655 204.904 183.143 205.233 182.138C205.563 181.133 205.771 179.703 205.857 177.848L206.039 173.012H218.233V183.672H220.235ZM209.523 178.134C209.471 179.555 209.359 180.717 209.185 181.618C209.029 182.519 208.726 183.204 208.275 183.672H214.177V176.34H209.601L209.523 178.134ZM231.03 172.804C232.33 172.804 233.509 173.107 234.566 173.714C235.641 174.303 236.481 175.144 237.088 176.236C237.695 177.311 237.998 178.567 237.998 180.006C237.998 181.445 237.695 182.71 237.088 183.802C236.481 184.877 235.641 185.717 234.566 186.324C233.509 186.913 232.33 187.208 231.03 187.208C229.245 187.208 227.841 186.645 226.818 185.518V192.044H222.762V173.012H226.636V174.624C227.641 173.411 229.106 172.804 231.03 172.804ZM230.328 183.88C231.368 183.88 232.217 183.533 232.876 182.84C233.552 182.129 233.89 181.185 233.89 180.006C233.89 178.827 233.552 177.891 232.876 177.198C232.217 176.487 231.368 176.132 230.328 176.132C229.288 176.132 228.43 176.487 227.754 177.198C227.095 177.891 226.766 178.827 226.766 180.006C226.766 181.185 227.095 182.129 227.754 182.84C228.43 183.533 229.288 183.88 230.328 183.88ZM247.393 187.208C245.919 187.208 244.593 186.905 243.415 186.298C242.253 185.674 241.343 184.816 240.685 183.724C240.026 182.632 239.697 181.393 239.697 180.006C239.697 178.619 240.026 177.38 240.685 176.288C241.343 175.196 242.253 174.347 243.415 173.74C244.593 173.116 245.919 172.804 247.393 172.804C248.866 172.804 250.183 173.116 251.345 173.74C252.506 174.347 253.416 175.196 254.075 176.288C254.733 177.38 255.063 178.619 255.063 180.006C255.063 181.393 254.733 182.632 254.075 183.724C253.416 184.816 252.506 185.674 251.345 186.298C250.183 186.905 248.866 187.208 247.393 187.208ZM247.393 183.88C248.433 183.88 249.282 183.533 249.941 182.84C250.617 182.129 250.955 181.185 250.955 180.006C250.955 178.827 250.617 177.891 249.941 177.198C249.282 176.487 248.433 176.132 247.393 176.132C246.353 176.132 245.495 176.487 244.819 177.198C244.143 177.891 243.805 178.827 243.805 180.006C243.805 181.185 244.143 182.129 244.819 182.84C245.495 183.533 246.353 183.88 247.393 183.88ZM264.508 187.208C263.018 187.208 261.674 186.905 260.478 186.298C259.3 185.674 258.372 184.816 257.696 183.724C257.038 182.632 256.708 181.393 256.708 180.006C256.708 178.619 257.038 177.38 257.696 176.288C258.372 175.196 259.3 174.347 260.478 173.74C261.674 173.116 263.018 172.804 264.508 172.804C265.982 172.804 267.264 173.116 268.356 173.74C269.466 174.347 270.272 175.222 270.774 176.366L267.628 178.056C266.9 176.773 265.852 176.132 264.482 176.132C263.425 176.132 262.55 176.479 261.856 177.172C261.163 177.865 260.816 178.81 260.816 180.006C260.816 181.202 261.163 182.147 261.856 182.84C262.55 183.533 263.425 183.88 264.482 183.88C265.869 183.88 266.918 183.239 267.628 181.956L270.774 183.672C270.272 184.781 269.466 185.648 268.356 186.272C267.264 186.896 265.982 187.208 264.508 187.208ZM284.94 176.34H280.208V187H276.178V176.34H271.446V173.012H284.94V176.34ZM293.264 181.696H291.158V187H287.102V173.012H291.158V178.446H293.342L297.138 173.012H301.454L296.566 179.72L301.792 187H297.008L293.264 181.696ZM309.904 187.208C308.431 187.208 307.105 186.905 305.926 186.298C304.765 185.674 303.855 184.816 303.196 183.724C302.538 182.632 302.208 181.393 302.208 180.006C302.208 178.619 302.538 177.38 303.196 176.288C303.855 175.196 304.765 174.347 305.926 173.74C307.105 173.116 308.431 172.804 309.904 172.804C311.378 172.804 312.695 173.116 313.856 173.74C315.018 174.347 315.928 175.196 316.586 176.288C317.245 177.38 317.574 178.619 317.574 180.006C317.574 181.393 317.245 182.632 316.586 183.724C315.928 184.816 315.018 185.674 313.856 186.298C312.695 186.905 311.378 187.208 309.904 187.208ZM309.904 183.88C310.944 183.88 311.794 183.533 312.452 182.84C313.128 182.129 313.466 181.185 313.466 180.006C313.466 178.827 313.128 177.891 312.452 177.198C311.794 176.487 310.944 176.132 309.904 176.132C308.864 176.132 308.006 176.487 307.33 177.198C306.654 177.891 306.316 178.827 306.316 180.006C306.316 181.185 306.654 182.129 307.33 182.84C308.006 183.533 308.864 183.88 309.904 183.88ZM331.05 179.694C332.697 180.249 333.52 181.358 333.52 183.022C333.52 184.287 333.043 185.267 332.09 185.96C331.137 186.653 329.715 187 327.826 187H320.364V173.012H327.514C329.265 173.012 330.634 173.333 331.622 173.974C332.61 174.598 333.104 175.482 333.104 176.626C333.104 177.319 332.922 177.935 332.558 178.472C332.211 178.992 331.709 179.399 331.05 179.694ZM324.082 178.758H327.15C328.571 178.758 329.282 178.255 329.282 177.25C329.282 176.262 328.571 175.768 327.15 175.768H324.082V178.758ZM327.488 184.244C328.979 184.244 329.724 183.733 329.724 182.71C329.724 182.173 329.551 181.783 329.204 181.54C328.857 181.28 328.311 181.15 327.566 181.15H324.082V184.244H327.488Z" fill="#414141"/>
<path d="M9.8973 139.312C8.04263 139.312 6.3613 138.913 4.8533 138.116C3.36263 137.301 2.18396 136.183 1.3173 134.762C0.467964 133.323 0.0432969 131.703 0.0432969 129.9C0.0432969 128.097 0.467964 126.485 1.3173 125.064C2.18396 123.625 3.36263 122.507 4.8533 121.71C6.3613 120.895 8.0513 120.488 9.9233 120.488C11.5006 120.488 12.922 120.765 14.1873 121.32C15.47 121.875 16.5446 122.672 17.4113 123.712L14.7073 126.208C13.4766 124.787 11.9513 124.076 10.1313 124.076C9.00463 124.076 7.9993 124.327 7.1153 124.83C6.2313 125.315 5.53796 126 5.0353 126.884C4.54996 127.768 4.3073 128.773 4.3073 129.9C4.3073 131.027 4.54996 132.032 5.0353 132.916C5.53796 133.8 6.2313 134.493 7.1153 134.996C7.9993 135.481 9.00463 135.724 10.1313 135.724C11.9513 135.724 13.4766 135.005 14.7073 133.566L17.4113 136.062C16.5446 137.119 15.47 137.925 14.1873 138.48C12.9046 139.035 11.4746 139.312 9.8973 139.312ZM25.9141 139.208C24.4408 139.208 23.1148 138.905 21.9361 138.298C20.7748 137.674 19.8648 136.816 19.2061 135.724C18.5474 134.632 18.2181 133.393 18.2181 132.006C18.2181 130.619 18.5474 129.38 19.2061 128.288C19.8648 127.196 20.7748 126.347 21.9361 125.74C23.1148 125.116 24.4408 124.804 25.9141 124.804C27.3874 124.804 28.7048 125.116 29.8661 125.74C31.0274 126.347 31.9374 127.196 32.5961 128.288C33.2548 129.38 33.5841 130.619 33.5841 132.006C33.5841 133.393 33.2548 134.632 32.5961 135.724C31.9374 136.816 31.0274 137.674 29.8661 138.298C28.7048 138.905 27.3874 139.208 25.9141 139.208ZM25.9141 135.88C26.9541 135.88 27.8034 135.533 28.4621 134.84C29.1381 134.129 29.4761 133.185 29.4761 132.006C29.4761 130.827 29.1381 129.891 28.4621 129.198C27.8034 128.487 26.9541 128.132 25.9141 128.132C24.8741 128.132 24.0161 128.487 23.3401 129.198C22.6641 129.891 22.3261 130.827 22.3261 132.006C22.3261 133.185 22.6641 134.129 23.3401 134.84C24.0161 135.533 24.8741 135.88 25.9141 135.88ZM44.7302 139L41.6622 134.71L38.4902 139H34.0702L39.4522 131.954L34.2522 125.012H38.8022L41.7662 129.094L44.8082 125.012H49.1242L43.9242 131.85L49.3322 139H44.7302ZM59.5709 124.804C60.8709 124.804 62.0496 125.107 63.1069 125.714C64.1816 126.303 65.0222 127.144 65.6289 128.236C66.2356 129.311 66.5389 130.567 66.5389 132.006C66.5389 133.445 66.2356 134.71 65.6289 135.802C65.0222 136.877 64.1816 137.717 63.1069 138.324C62.0496 138.913 60.8709 139.208 59.5709 139.208C57.7856 139.208 56.3816 138.645 55.3589 137.518V144.044H51.3029V125.012H55.1769V126.624C56.1822 125.411 57.6469 124.804 59.5709 124.804ZM58.8689 135.88C59.9089 135.88 60.7582 135.533 61.4169 134.84C62.0929 134.129 62.4309 133.185 62.4309 132.006C62.4309 130.827 62.0929 129.891 61.4169 129.198C60.7582 128.487 59.9089 128.132 58.8689 128.132C57.8289 128.132 56.9709 128.487 56.2949 129.198C55.6362 129.891 55.3069 130.827 55.3069 132.006C55.3069 133.185 55.6362 134.129 56.2949 134.84C56.9709 135.533 57.8289 135.88 58.8689 135.88ZM74.5871 124.804C76.7538 124.804 78.4178 125.324 79.5791 126.364C80.7405 127.387 81.3211 128.938 81.3211 131.018V139H77.5251V137.258C76.7625 138.558 75.3411 139.208 73.2611 139.208C72.1865 139.208 71.2505 139.026 70.4531 138.662C69.6731 138.298 69.0751 137.795 68.6591 137.154C68.2431 136.513 68.0351 135.785 68.0351 134.97C68.0351 133.67 68.5205 132.647 69.4911 131.902C70.4791 131.157 71.9958 130.784 74.0411 130.784H77.2651C77.2651 129.9 76.9965 129.224 76.4591 128.756C75.9218 128.271 75.1158 128.028 74.0411 128.028C73.2958 128.028 72.5591 128.149 71.8311 128.392C71.1205 128.617 70.5138 128.929 70.0111 129.328L68.5551 126.494C69.3178 125.957 70.2278 125.541 71.2851 125.246C72.3598 124.951 73.4605 124.804 74.5871 124.804ZM74.2751 136.478C74.9685 136.478 75.5838 136.322 76.1211 136.01C76.6585 135.681 77.0398 135.204 77.2651 134.58V133.15H74.4831C72.8191 133.15 71.9871 133.696 71.9871 134.788C71.9871 135.308 72.1865 135.724 72.5851 136.036C73.0011 136.331 73.5645 136.478 74.2751 136.478ZM84.8445 125.012H88.8745V130.472H94.9585V125.012H99.0145V139H94.9585V133.774H88.8745V139H84.8445V125.012ZM102.897 125.012H106.927V133.332L113.739 125.012H117.457V139H113.427V130.68L106.641 139H102.897V125.012ZM135.006 139V130.628L130.82 137.648H129.104L125.022 130.602V139H121.356V125.012H125.594L130.066 133.098L134.824 125.012H138.62L138.672 139H135.006ZM11.1482 189.012H15.1782V197.332L21.9902 189.012H25.7082V203H21.6782V194.68L14.8922 203H11.1482V189.012ZM38.5543 195.72C39.3863 195.98 40.0276 196.379 40.4783 196.916C40.9463 197.453 41.1803 198.095 41.1803 198.84C41.1803 199.724 40.8769 200.504 40.2703 201.18C39.6636 201.839 38.8316 202.35 37.7743 202.714C36.7169 203.078 35.5209 203.26 34.1863 203.26C33.0943 203.26 32.0196 203.147 30.9623 202.922C29.9049 202.697 28.9256 202.359 28.0243 201.908L29.1163 199.074C30.5896 199.785 32.2189 200.14 34.0043 200.14C34.9576 200.14 35.7029 200.001 36.2403 199.724C36.7949 199.429 37.0723 199.022 37.0723 198.502C37.0723 198.051 36.8816 197.713 36.5003 197.488C36.1189 197.245 35.5643 197.124 34.8363 197.124H31.9763V194.602H34.4723C35.1829 194.602 35.7289 194.489 36.1103 194.264C36.4916 194.039 36.6823 193.709 36.6823 193.276C36.6823 192.825 36.4396 192.479 35.9543 192.236C35.4863 191.993 34.8103 191.872 33.9263 191.872C32.5743 191.872 31.1009 192.193 29.5063 192.834L28.5183 190.026C30.4596 189.177 32.3489 188.752 34.1863 188.752C35.4516 188.752 36.5783 188.908 37.5663 189.22C38.5716 189.532 39.3603 189.991 39.9323 190.598C40.5043 191.187 40.7903 191.881 40.7903 192.678C40.7903 193.337 40.5909 193.935 40.1923 194.472C39.7936 194.992 39.2476 195.408 38.5543 195.72ZM57.7807 203V194.628L53.5947 201.648H51.8787L47.7967 194.602V203H44.1307V189.012H48.3687L52.8407 197.098L57.5987 189.012H61.3947L61.4467 203H57.7807ZM78.9298 196.058C78.9298 196.11 78.9038 196.474 78.8518 197.15H68.2698C68.4605 198.017 68.9112 198.701 69.6218 199.204C70.3325 199.707 71.2165 199.958 72.2738 199.958C73.0018 199.958 73.6432 199.854 74.1978 199.646C74.7698 199.421 75.2985 199.074 75.7838 198.606L77.9418 200.946C76.6245 202.454 74.7005 203.208 72.1698 203.208C70.5925 203.208 69.1972 202.905 67.9838 202.298C66.7705 201.674 65.8345 200.816 65.1758 199.724C64.5172 198.632 64.1878 197.393 64.1878 196.006C64.1878 194.637 64.5085 193.406 65.1498 192.314C65.8085 191.205 66.7012 190.347 67.8278 189.74C68.9718 189.116 70.2458 188.804 71.6498 188.804C73.0192 188.804 74.2585 189.099 75.3678 189.688C76.4772 190.277 77.3438 191.127 77.9678 192.236C78.6092 193.328 78.9298 194.602 78.9298 196.058ZM71.6758 191.872C70.7572 191.872 69.9858 192.132 69.3618 192.652C68.7378 193.172 68.3565 193.883 68.2178 194.784H75.1078C74.9692 193.9 74.5878 193.198 73.9638 192.678C73.3398 192.141 72.5772 191.872 71.6758 191.872ZM82.0389 189.012H86.0689V194.472H92.1529V189.012H96.2089V203H92.1529V197.774H86.0689V203H82.0389V189.012ZM100.092 189.012H104.122V197.332L110.934 189.012H114.652V203H110.622V194.68L103.836 203H100.092V189.012ZM132.201 203V194.628L128.015 201.648H126.299L122.217 194.602V203H118.551V189.012H122.789L127.261 197.098L132.019 189.012H135.815L135.867 203H132.201Z" fill="#15854F"/>
<path d="M62.5389 157.012H66.5689V165.332L73.3809 157.012H77.0989V171H73.0689V162.68L66.2829 171H62.5389V157.012Z" fill="#414141"/>
<path d="M-0.970703 141.6H140.596V142.9H-0.970703V141.6ZM9.19824 205.6H137.791V206.9H9.19824V205.6Z" fill="#15854F"/>
<path d="M179.642 28.7435C175.353 24.1333 169.342 21.5102 163.046 21.5005C156.744 21.5078 150.727 24.1295 146.432 28.7406L144.968 30.2876L143.504 28.7406C134.98 19.5666 120.633 19.0397 111.459 27.5636C111.052 27.9415 110.66 28.3339 110.282 28.7406C101.239 38.4937 101.239 53.5668 110.282 63.3199L142.816 97.6295C143.942 98.8178 145.817 98.8687 147.006 97.7431C147.045 97.7063 147.082 97.6684 147.119 97.6295L179.642 63.3199C188.683 53.5678 188.683 38.4956 179.642 28.7435ZM175.353 59.239H175.351L144.968 91.2844L114.582 59.239C107.674 51.7867 107.674 40.2708 114.582 32.8185C120.855 26.0195 131.452 25.5932 138.251 31.8663C138.581 32.1708 138.899 32.4884 139.204 32.8185L142.816 36.6298C144.007 37.8127 145.929 37.8127 147.119 36.6298L150.732 32.8215C157.005 26.0225 167.602 25.5962 174.401 31.8692C174.731 32.1738 175.049 32.4914 175.353 32.8215C182.321 40.2856 182.372 51.8225 175.353 59.239Z" fill="#15854F"/>
<path d="M422.324 149.5L422.298 138.606L416.942 147.576H415.07L409.714 138.814V149.5H405.762V131.3H409.246L416.058 142.61L422.766 131.3H426.25L426.276 149.5H422.324ZM437.843 139.984C439.663 140.001 441.041 140.409 441.977 141.206C442.913 142.003 443.381 143.147 443.381 144.638C443.381 146.198 442.852 147.403 441.795 148.252C440.738 149.101 439.238 149.526 437.297 149.526L430.485 149.5V135.512H434.515V139.984H437.843ZM444.889 135.512H448.919V149.5H444.889V135.512ZM436.933 146.64C437.713 146.657 438.311 146.493 438.727 146.146C439.143 145.799 439.351 145.279 439.351 144.586C439.351 143.91 439.143 143.416 438.727 143.104C438.328 142.792 437.73 142.627 436.933 142.61L434.515 142.584V146.64H436.933ZM466.354 144.196H464.248V149.5H460.192V135.512H464.248V140.946H466.432L470.228 135.512H474.544L469.656 142.22L474.882 149.5H470.098L466.354 144.196ZM482.994 149.708C481.521 149.708 480.195 149.405 479.016 148.798C477.855 148.174 476.945 147.316 476.286 146.224C475.628 145.132 475.298 143.893 475.298 142.506C475.298 141.119 475.628 139.88 476.286 138.788C476.945 137.696 477.855 136.847 479.016 136.24C480.195 135.616 481.521 135.304 482.994 135.304C484.468 135.304 485.785 135.616 486.946 136.24C488.108 136.847 489.018 137.696 489.676 138.788C490.335 139.88 490.664 141.119 490.664 142.506C490.664 143.893 490.335 145.132 489.676 146.224C489.018 147.316 488.108 148.174 486.946 148.798C485.785 149.405 484.468 149.708 482.994 149.708ZM482.994 146.38C484.034 146.38 484.884 146.033 485.542 145.34C486.218 144.629 486.556 143.685 486.556 142.506C486.556 141.327 486.218 140.391 485.542 139.698C484.884 138.987 484.034 138.632 482.994 138.632C481.954 138.632 481.096 138.987 480.42 139.698C479.744 140.391 479.406 141.327 479.406 142.506C479.406 143.685 479.744 144.629 480.42 145.34C481.096 146.033 481.954 146.38 482.994 146.38ZM507.104 149.5V141.128L502.918 148.148H501.202L497.12 141.102V149.5H493.454V135.512H497.692L502.164 143.598L506.922 135.512H510.718L510.77 149.5H507.104ZM520.089 135.304C522.256 135.304 523.92 135.824 525.081 136.864C526.242 137.887 526.823 139.438 526.823 141.518V149.5H523.027V147.758C522.264 149.058 520.843 149.708 518.763 149.708C517.688 149.708 516.752 149.526 515.955 149.162C515.175 148.798 514.577 148.295 514.161 147.654C513.745 147.013 513.537 146.285 513.537 145.47C513.537 144.17 514.022 143.147 514.993 142.402C515.981 141.657 517.498 141.284 519.543 141.284H522.767C522.767 140.4 522.498 139.724 521.961 139.256C521.424 138.771 520.618 138.528 519.543 138.528C518.798 138.528 518.061 138.649 517.333 138.892C516.622 139.117 516.016 139.429 515.513 139.828L514.057 136.994C514.82 136.457 515.73 136.041 516.787 135.746C517.862 135.451 518.962 135.304 520.089 135.304ZM519.777 146.978C520.47 146.978 521.086 146.822 521.623 146.51C522.16 146.181 522.542 145.704 522.767 145.08V143.65H519.985C518.321 143.65 517.489 144.196 517.489 145.288C517.489 145.808 517.688 146.224 518.087 146.536C518.503 146.831 519.066 146.978 519.777 146.978ZM530.346 135.512H534.376V140.972H540.46V135.512H544.516V149.5H540.46V144.274H534.376V149.5H530.346V135.512ZM564.077 146.172V152.516H560.307V149.5H550.479V152.516H546.709V146.172H547.281C548.148 146.155 548.746 145.643 549.075 144.638C549.405 143.633 549.613 142.203 549.699 140.348L549.881 135.512H562.075V146.172H564.077ZM553.365 140.634C553.313 142.055 553.201 143.217 553.027 144.118C552.871 145.019 552.568 145.704 552.117 146.172H558.019V138.84H553.443L553.365 140.634ZM572.064 135.304C574.23 135.304 575.894 135.824 577.056 136.864C578.217 137.887 578.798 139.438 578.798 141.518V149.5H575.002V147.758C574.239 149.058 572.818 149.708 570.738 149.708C569.663 149.708 568.727 149.526 567.93 149.162C567.15 148.798 566.552 148.295 566.136 147.654C565.72 147.013 565.512 146.285 565.512 145.47C565.512 144.17 565.997 143.147 566.968 142.402C567.956 141.657 569.472 141.284 571.518 141.284H574.742C574.742 140.4 574.473 139.724 573.936 139.256C573.398 138.771 572.592 138.528 571.518 138.528C570.772 138.528 570.036 138.649 569.308 138.892C568.597 139.117 567.99 139.429 567.488 139.828L566.032 136.994C566.794 136.457 567.704 136.041 568.762 135.746C569.836 135.451 570.937 135.304 572.064 135.304ZM571.752 146.978C572.445 146.978 573.06 146.822 573.598 146.51C574.135 146.181 574.516 145.704 574.742 145.08V143.65H571.96C570.296 143.65 569.464 144.196 569.464 145.288C569.464 145.808 569.663 146.224 570.062 146.536C570.478 146.831 571.041 146.978 571.752 146.978ZM419.36 167.512V181.5H415.304V170.84H409.48V181.5H405.45V167.512H419.36ZM431.491 167.304C432.791 167.304 433.969 167.607 435.027 168.214C436.101 168.803 436.942 169.644 437.549 170.736C438.155 171.811 438.459 173.067 438.459 174.506C438.459 175.945 438.155 177.21 437.549 178.302C436.942 179.377 436.101 180.217 435.027 180.824C433.969 181.413 432.791 181.708 431.491 181.708C429.705 181.708 428.301 181.145 427.279 180.018V186.544H423.223V167.512H427.097V169.124C428.102 167.911 429.567 167.304 431.491 167.304ZM430.789 178.38C431.829 178.38 432.678 178.033 433.337 177.34C434.013 176.629 434.351 175.685 434.351 174.506C434.351 173.327 434.013 172.391 433.337 171.698C432.678 170.987 431.829 170.632 430.789 170.632C429.749 170.632 428.891 170.987 428.215 171.698C427.556 172.391 427.227 173.327 427.227 174.506C427.227 175.685 427.556 176.629 428.215 177.34C428.891 178.033 429.749 178.38 430.789 178.38ZM447.854 181.708C446.38 181.708 445.054 181.405 443.876 180.798C442.714 180.174 441.804 179.316 441.146 178.224C440.487 177.132 440.158 175.893 440.158 174.506C440.158 173.119 440.487 171.88 441.146 170.788C441.804 169.696 442.714 168.847 443.876 168.24C445.054 167.616 446.38 167.304 447.854 167.304C449.327 167.304 450.644 167.616 451.806 168.24C452.967 168.847 453.877 169.696 454.536 170.788C455.194 171.88 455.524 173.119 455.524 174.506C455.524 175.893 455.194 177.132 454.536 178.224C453.877 179.316 452.967 180.174 451.806 180.798C450.644 181.405 449.327 181.708 447.854 181.708ZM447.854 178.38C448.894 178.38 449.743 178.033 450.402 177.34C451.078 176.629 451.416 175.685 451.416 174.506C451.416 173.327 451.078 172.391 450.402 171.698C449.743 170.987 448.894 170.632 447.854 170.632C446.814 170.632 445.956 170.987 445.28 171.698C444.604 172.391 444.266 173.327 444.266 174.506C444.266 175.685 444.604 176.629 445.28 177.34C445.956 178.033 446.814 178.38 447.854 178.38ZM477.631 174.454C477.631 176.621 476.903 178.337 475.447 179.602C474.009 180.85 471.946 181.569 469.259 181.76V186.544H465.541V181.76C462.855 181.569 460.783 180.859 459.327 179.628C457.889 178.38 457.169 176.655 457.169 174.454C457.169 172.287 457.88 170.606 459.301 169.41C460.74 168.214 462.82 167.521 465.541 167.33V162.208H469.259V167.33C471.946 167.521 474.009 168.223 475.447 169.436C476.903 170.649 477.631 172.322 477.631 174.454ZM461.095 174.454C461.095 175.702 461.451 176.664 462.161 177.34C462.872 178.016 463.999 178.441 465.541 178.614V170.476C463.999 170.632 462.872 171.039 462.161 171.698C461.451 172.339 461.095 173.258 461.095 174.454ZM469.259 178.614C470.802 178.441 471.929 178.016 472.639 177.34C473.367 176.664 473.731 175.702 473.731 174.454C473.731 173.258 473.367 172.339 472.639 171.698C471.929 171.039 470.802 170.632 469.259 170.476V178.614ZM493.976 174.558C493.976 174.61 493.95 174.974 493.898 175.65H483.316C483.506 176.517 483.957 177.201 484.668 177.704C485.378 178.207 486.262 178.458 487.32 178.458C488.048 178.458 488.689 178.354 489.244 178.146C489.816 177.921 490.344 177.574 490.83 177.106L492.988 179.446C491.67 180.954 489.746 181.708 487.216 181.708C485.638 181.708 484.243 181.405 483.03 180.798C481.816 180.174 480.88 179.316 480.222 178.224C479.563 177.132 479.234 175.893 479.234 174.506C479.234 173.137 479.554 171.906 480.196 170.814C480.854 169.705 481.747 168.847 482.874 168.24C484.018 167.616 485.292 167.304 486.696 167.304C488.065 167.304 489.304 167.599 490.414 168.188C491.523 168.777 492.39 169.627 493.014 170.736C493.655 171.828 493.976 173.102 493.976 174.558ZM486.722 170.372C485.803 170.372 485.032 170.632 484.408 171.152C483.784 171.672 483.402 172.383 483.264 173.284H490.154C490.015 172.4 489.634 171.698 489.01 171.178C488.386 170.641 487.623 170.372 486.722 170.372ZM503.741 181.708C502.25 181.708 500.907 181.405 499.711 180.798C498.532 180.174 497.605 179.316 496.929 178.224C496.27 177.132 495.941 175.893 495.941 174.506C495.941 173.119 496.27 171.88 496.929 170.788C497.605 169.696 498.532 168.847 499.711 168.24C500.907 167.616 502.25 167.304 503.741 167.304C505.214 167.304 506.497 167.616 507.589 168.24C508.698 168.847 509.504 169.722 510.007 170.866L506.861 172.556C506.133 171.273 505.084 170.632 503.715 170.632C502.657 170.632 501.782 170.979 501.089 171.672C500.395 172.365 500.049 173.31 500.049 174.506C500.049 175.702 500.395 176.647 501.089 177.34C501.782 178.033 502.657 178.38 503.715 178.38C505.101 178.38 506.15 177.739 506.861 176.456L510.007 178.172C509.504 179.281 508.698 180.148 507.589 180.772C506.497 181.396 505.214 181.708 503.741 181.708ZM518.95 181.708C517.459 181.708 516.116 181.405 514.92 180.798C513.741 180.174 512.814 179.316 512.138 178.224C511.479 177.132 511.15 175.893 511.15 174.506C511.15 173.119 511.479 171.88 512.138 170.788C512.814 169.696 513.741 168.847 514.92 168.24C516.116 167.616 517.459 167.304 518.95 167.304C520.423 167.304 521.706 167.616 522.798 168.24C523.907 168.847 524.713 169.722 525.216 170.866L522.07 172.556C521.342 171.273 520.293 170.632 518.924 170.632C517.866 170.632 516.991 170.979 516.298 171.672C515.604 172.365 515.258 173.31 515.258 174.506C515.258 175.702 515.604 176.647 516.298 177.34C516.991 178.033 517.866 178.38 518.924 178.38C520.31 178.38 521.359 177.739 522.07 176.456L525.216 178.172C524.713 179.281 523.907 180.148 522.798 180.772C521.706 181.396 520.423 181.708 518.95 181.708ZM527.68 167.512H531.71V175.832L538.522 167.512H542.24V181.5H538.21V173.18L531.424 181.5H527.68V167.512ZM552.691 181.708C551.218 181.708 549.892 181.405 548.713 180.798C547.552 180.174 546.642 179.316 545.983 178.224C545.325 177.132 544.995 175.893 544.995 174.506C544.995 173.119 545.325 171.88 545.983 170.788C546.642 169.696 547.552 168.847 548.713 168.24C549.892 167.616 551.218 167.304 552.691 167.304C554.165 167.304 555.482 167.616 556.643 168.24C557.805 168.847 558.715 169.696 559.373 170.788C560.032 171.88 560.361 173.119 560.361 174.506C560.361 175.893 560.032 177.132 559.373 178.224C558.715 179.316 557.805 180.174 556.643 180.798C555.482 181.405 554.165 181.708 552.691 181.708ZM552.691 178.38C553.731 178.38 554.581 178.033 555.239 177.34C555.915 176.629 556.253 175.685 556.253 174.506C556.253 173.327 555.915 172.391 555.239 171.698C554.581 170.987 553.731 170.632 552.691 170.632C551.651 170.632 550.793 170.987 550.117 171.698C549.441 172.391 549.103 173.327 549.103 174.506C549.103 175.685 549.441 176.629 550.117 177.34C550.793 178.033 551.651 178.38 552.691 178.38ZM563.151 167.512H567.181V172.972H573.265V167.512H577.321V181.5H573.265V176.274H567.181V181.5H563.151V167.512ZM586.638 167.304C588.805 167.304 590.469 167.824 591.63 168.864C592.791 169.887 593.372 171.438 593.372 173.518V181.5H589.576V179.758C588.813 181.058 587.392 181.708 585.312 181.708C584.237 181.708 583.301 181.526 582.504 181.162C581.724 180.798 581.126 180.295 580.71 179.654C580.294 179.013 580.086 178.285 580.086 177.47C580.086 176.17 580.571 175.147 581.542 174.402C582.53 173.657 584.047 173.284 586.092 173.284H589.316C589.316 172.4 589.047 171.724 588.51 171.256C587.973 170.771 587.167 170.528 586.092 170.528C585.347 170.528 584.61 170.649 583.882 170.892C583.171 171.117 582.565 171.429 582.062 171.828L580.606 168.994C581.369 168.457 582.279 168.041 583.336 167.746C584.411 167.451 585.511 167.304 586.638 167.304ZM586.326 178.978C587.019 178.978 587.635 178.822 588.172 178.51C588.709 178.181 589.091 177.704 589.316 177.08V175.65H586.534C584.87 175.65 584.038 176.196 584.038 177.288C584.038 177.808 584.237 178.224 584.636 178.536C585.052 178.831 585.615 178.978 586.326 178.978ZM610.311 167.512V181.5H606.255V170.84H601.835L601.705 173.31C601.636 175.147 601.463 176.673 601.185 177.886C600.908 179.099 600.457 180.053 599.833 180.746C599.209 181.439 598.343 181.786 597.233 181.786C596.644 181.786 595.942 181.682 595.127 181.474L595.335 178.146C595.613 178.181 595.812 178.198 595.933 178.198C596.54 178.198 596.991 177.981 597.285 177.548C597.597 177.097 597.805 176.534 597.909 175.858C598.013 175.165 598.091 174.255 598.143 173.128L598.351 167.512H610.311ZM620.764 181.708C619.29 181.708 617.964 181.405 616.786 180.798C615.624 180.174 614.714 179.316 614.056 178.224C613.397 177.132 613.068 175.893 613.068 174.506C613.068 173.119 613.397 171.88 614.056 170.788C614.714 169.696 615.624 168.847 616.786 168.24C617.964 167.616 619.29 167.304 620.764 167.304C622.237 167.304 623.554 167.616 624.716 168.24C625.877 168.847 626.787 169.696 627.446 170.788C628.104 171.88 628.434 173.119 628.434 174.506C628.434 175.893 628.104 177.132 627.446 178.224C626.787 179.316 625.877 180.174 624.716 180.798C623.554 181.405 622.237 181.708 620.764 181.708ZM620.764 178.38C621.804 178.38 622.653 178.033 623.312 177.34C623.988 176.629 624.326 175.685 624.326 174.506C624.326 173.327 623.988 172.391 623.312 171.698C622.653 170.987 621.804 170.632 620.764 170.632C619.724 170.632 618.866 170.987 618.19 171.698C617.514 172.391 617.176 173.327 617.176 174.506C617.176 175.685 617.514 176.629 618.19 177.34C618.866 178.033 619.724 178.38 620.764 178.38ZM641.909 174.194C643.556 174.749 644.379 175.858 644.379 177.522C644.379 178.787 643.903 179.767 642.949 180.46C641.996 181.153 640.575 181.5 638.685 181.5H631.223V167.512H638.373C640.124 167.512 641.493 167.833 642.481 168.474C643.469 169.098 643.963 169.982 643.963 171.126C643.963 171.819 643.781 172.435 643.417 172.972C643.071 173.492 642.568 173.899 641.909 174.194ZM634.941 173.258H638.009C639.431 173.258 640.141 172.755 640.141 171.75C640.141 170.762 639.431 170.268 638.009 170.268H634.941V173.258ZM638.347 178.744C639.838 178.744 640.583 178.233 640.583 177.21C640.583 176.673 640.41 176.283 640.063 176.04C639.717 175.78 639.171 175.65 638.425 175.65H634.941V178.744H638.347ZM646.799 163.3H651.635L650.829 175.182H647.605L646.799 163.3ZM649.217 181.708C648.507 181.708 647.909 181.483 647.423 181.032C646.955 180.564 646.721 180.001 646.721 179.342C646.721 178.683 646.955 178.137 647.423 177.704C647.891 177.253 648.489 177.028 649.217 177.028C649.945 177.028 650.543 177.253 651.011 177.704C651.479 178.137 651.713 178.683 651.713 179.342C651.713 180.001 651.471 180.564 650.985 181.032C650.517 181.483 649.928 181.708 649.217 181.708Z" fill="#414141"/>
<g clip-path="url(#clip0_1213_22)">
<path d="M443.859 31.7927C444.739 31.7927 445.452 31.0794 445.452 30.1994V23.0933C445.452 22.2133 444.739 21.5 443.859 21.5C442.979 21.5 442.266 22.2133 442.266 23.0933V30.1994C442.266 31.0794 442.979 31.7927 443.859 31.7927Z" fill="#15854F"/>
<path d="M482.804 76.2359L479.99 73.4292C478.988 72.4292 477.654 71.8784 476.232 71.8784C475.323 71.8784 474.45 72.1046 473.677 72.5284L468.373 67.2308L468.631 66.9728C470.783 64.8168 470.782 61.3134 468.631 59.1647C467.862 58.3945 466.903 57.881 465.857 57.6649C466.001 57.168 466.077 56.6475 466.077 56.1148C466.077 54.6348 465.502 53.2471 464.462 52.2107C463.693 51.4406 462.734 50.927 461.688 50.7109C461.832 50.214 461.908 49.6937 461.908 49.1609C461.908 47.6807 461.333 46.2931 460.29 45.2551C459.503 44.4689 458.536 43.9712 457.519 43.7593C458.063 41.8851 457.599 39.7764 456.124 38.2994C454.897 37.0773 453.231 36.5521 451.626 36.7223L441.116 34.7329C439.513 34.4288 437.511 34.2278 436.248 35.3803C436.168 35.453 436.087 35.5367 436.007 35.6299C434.048 34.9158 431.763 35.341 430.194 36.9082C429.153 37.9477 428.579 39.3349 428.579 40.8141C428.579 41.3469 428.655 41.8672 428.799 42.3643C427.754 42.5802 426.796 43.0931 426.03 43.8607C424.987 44.8993 424.412 46.2849 424.411 47.7623C424.411 48.2964 424.486 48.8185 424.631 49.3169C423.586 49.5323 422.628 50.0443 421.859 50.8119C420.816 51.8536 420.242 53.2416 420.242 54.72C420.242 55.8524 420.58 56.9312 421.206 57.8424C420.415 58.1106 419.691 58.5569 419.084 59.1629C416.931 61.3134 416.93 64.817 419.086 66.9761L419.343 67.2324L414.038 72.5273C412.067 71.5991 409.638 71.9469 408.011 73.5716L405.195 76.38C404.193 77.3805 403.642 78.7151 403.642 80.1378C403.642 81.5607 404.193 82.8955 405.195 83.8961L408.71 87.4066C409.332 88.0285 410.341 88.0279 410.963 87.4054C411.585 86.7828 411.584 85.774 410.962 85.1522L407.447 81.6417C407.048 81.2432 406.828 80.7091 406.828 80.138C406.828 79.567 407.048 79.0331 407.446 78.6355L410.262 75.8269C410.966 75.124 412.043 75.0193 412.861 75.5083C412.919 75.5949 412.985 75.6771 413.061 75.7535C413.198 75.8904 413.354 75.9953 413.519 76.072L429.671 92.1997C429.747 92.3669 429.853 92.5243 429.99 92.662C430.124 92.796 430.277 92.8996 430.439 92.9758C430.78 93.362 430.969 93.8553 430.969 94.3815C430.969 94.9526 430.749 95.4865 430.35 95.885L427.537 98.6954C426.705 99.5231 425.353 99.5229 424.524 98.6979L421.009 95.1828C420.387 94.5606 419.379 94.5606 418.756 95.1828C418.134 95.805 418.134 96.8137 418.756 97.4359L422.274 100.954C423.309 101.985 424.669 102.5 426.029 102.5C427.389 102.5 428.75 101.984 429.787 100.952L432.602 98.1398C433.604 97.1391 434.156 95.8045 434.156 94.3815C434.156 93.366 433.873 92.3962 433.348 91.5599L439.318 85.5973C439.325 85.5908 439.331 85.5843 439.337 85.5778C440.021 84.8711 441.925 85.0034 443.766 85.1312C445.074 85.2222 446.532 85.3232 447.957 85.159L454.494 91.6889C454.071 92.4611 453.845 93.3328 453.845 94.2405C453.845 95.662 454.396 96.9958 455.398 97.9964L458.214 100.808C459.215 101.808 460.549 102.359 461.971 102.359C463.393 102.359 464.727 101.809 465.729 100.808L482.805 83.7526C483.807 82.7521 484.359 81.4175 484.359 79.9946C484.359 78.5719 483.807 77.2373 482.804 76.2359V76.2359ZM440.523 37.8637L447.434 39.1719L443.297 43.3072C442.657 42.9996 441.78 42.426 440.818 41.5056C439.501 40.2456 438.559 38.791 438.473 37.8837C438.473 37.8832 438.473 37.8827 438.473 37.8822C438.473 37.8821 438.473 37.8819 438.473 37.8818C438.467 37.8166 438.465 37.7645 438.466 37.7248C438.674 37.6742 439.228 37.618 440.523 37.8637ZM432.445 39.1627C433.252 38.3564 434.506 38.2634 435.418 38.881C435.935 41.048 437.784 43.0121 438.616 43.8079C439.232 44.3977 441.21 46.1659 443.206 46.6519C443.476 47.039 443.623 47.5005 443.623 47.9875C443.623 48.6147 443.382 49.2012 442.942 49.6404C442.504 50.0795 441.916 50.3213 441.288 50.3213C440.659 50.3213 440.072 50.0795 439.631 49.6383L439.631 49.6382L439.63 49.6374L432.445 42.4651C432.007 42.0276 431.766 41.4412 431.766 40.8141C431.766 40.1868 432.007 39.6003 432.445 39.1627V39.1627ZM428.282 46.1153C428.72 45.6763 429.307 45.4344 429.935 45.4344C430.563 45.4344 431.152 45.6768 431.593 46.1175L437.379 51.8918C438.29 52.8043 438.29 54.2892 437.382 55.1985C436.941 55.6375 436.352 55.8793 435.722 55.8793C435.093 55.8793 434.503 55.6375 434.064 55.2004L434.064 55.2003L429.675 50.8119C429.668 50.8051 429.66 50.7987 429.654 50.7918L428.28 49.4192C427.84 48.9791 427.597 48.3915 427.598 47.7647C427.598 47.14 427.84 46.5554 428.282 46.1153V46.1153ZM424.111 53.0664C424.55 52.6284 425.138 52.3871 425.767 52.3871C426.391 52.3871 426.974 52.6249 427.411 53.0553L431.814 57.4561C432.253 57.8934 432.495 58.4792 432.495 59.1057C432.495 59.732 432.253 60.3178 431.812 60.7568C431.373 61.1947 430.786 61.436 430.158 61.436C429.529 61.436 428.939 61.1941 428.5 60.7568L426.904 59.1626C426.904 59.1621 426.903 59.1618 426.903 59.1615L424.111 56.373C423.671 55.9334 423.429 55.3461 423.429 54.7196C423.429 54.0933 423.671 53.5059 424.111 53.0664V53.0664ZM421.336 61.4173C421.777 60.9772 422.365 60.7348 422.994 60.7348C423.622 60.7348 424.211 60.9771 424.651 61.4169L426.25 63.0133C426.689 63.4506 426.931 64.0364 426.931 64.6629C426.931 65.2894 426.689 65.875 426.246 66.3158C425.808 66.7548 425.221 66.9967 424.592 66.9967C423.964 66.9967 423.376 66.7549 422.935 66.3126L422.735 66.1133C422.732 66.1106 422.73 66.1077 422.727 66.1052C422.724 66.1024 422.721 66.0998 422.718 66.097L421.338 64.7217C420.426 63.8087 420.426 62.3265 421.336 61.4173ZM453.805 79.5249C453.183 78.9023 452.174 78.9018 451.552 79.5235L450.134 80.9393C448.787 82.2862 446.346 82.1166 443.986 81.9529C441.423 81.7748 438.773 81.5909 437.058 83.3517L431.189 89.2131L416.514 74.5593L421.707 69.3751C422.566 69.9013 423.556 70.1834 424.593 70.1834C426.073 70.1834 427.462 69.6094 428.499 68.5705C429.543 67.5308 430.118 66.1432 430.118 64.663C430.118 64.6493 430.117 64.6357 430.117 64.6219C430.13 64.6221 430.144 64.6228 430.158 64.6228C431.637 64.6228 433.024 64.0506 434.062 63.0134C435.106 61.9737 435.681 60.586 435.681 59.106C435.681 59.0922 435.68 59.0786 435.68 59.0649C435.694 59.0649 435.708 59.0658 435.722 59.0658C437.2 59.0658 438.589 58.4942 439.634 57.4531C440.719 56.3661 441.256 54.935 441.246 53.5069C441.26 53.507 441.274 53.5078 441.288 53.5078C442.769 53.5077 444.157 52.9338 445.196 51.8933C446.237 50.8538 446.81 49.4667 446.81 47.9875C446.81 46.953 446.529 45.9641 446.004 45.1074L450.556 40.5573C450.895 40.2195 451.314 40.0075 451.752 39.9201C451.8 39.915 451.846 39.9074 451.893 39.8982C452.596 39.8012 453.335 40.0183 453.873 40.554C454.784 41.4667 454.784 42.9515 453.876 43.8609L452.49 45.2415C452.485 45.2461 452.48 45.2502 452.476 45.2548L450.879 46.8489C450.256 47.4706 450.256 48.4795 450.877 49.102C451.499 49.7247 452.508 49.7252 453.131 49.1034L454.522 47.7135C454.523 47.7131 454.523 47.7128 454.523 47.7125L454.734 47.5029C455.647 46.5977 457.128 46.5996 458.04 47.511C458.479 47.9482 458.721 48.5341 458.721 49.1605C458.721 49.7869 458.479 50.3727 458.037 50.8135L456.642 52.2105C456.642 52.2107 456.642 52.2109 456.642 52.2112L455.045 53.8013C454.422 54.4222 454.42 55.4311 455.041 56.0544C455.662 56.6779 456.67 56.6798 457.294 56.059L458.898 54.4616C459.336 54.0224 459.924 53.7807 460.552 53.7807C461.181 53.7807 461.768 54.0224 462.21 54.4648C462.649 54.9022 462.891 55.488 462.891 56.1145C462.891 56.7408 462.649 57.3267 462.207 57.7665L459.427 60.5472C458.805 61.1696 458.806 62.1783 459.428 62.8003C459.739 63.1114 460.147 63.2667 460.554 63.2667C460.962 63.2667 461.37 63.1111 461.681 62.7999L463.043 61.4371C463.051 61.4297 463.059 61.4232 463.067 61.4154C463.505 60.9763 464.093 60.7345 464.721 60.7345C465.35 60.7345 465.937 60.9763 466.377 61.417C467.287 62.3262 467.287 63.8086 466.377 64.7195L464.992 66.103C464.992 66.1035 464.991 66.1039 464.991 66.1044C464.99 66.1049 464.99 66.1055 464.989 66.106L462.791 68.3017C462.168 68.9236 462.168 69.9325 462.789 70.555C463.1 70.8665 463.509 71.0223 463.917 71.0223C464.324 71.0223 464.732 70.867 465.043 70.5564L466.118 69.4824L471.272 74.6301L456.598 89.2864L451.34 84.035C451.706 83.7993 452.057 83.5221 452.386 83.1929L453.803 81.7779C454.426 81.1563 454.427 80.1475 453.805 79.5249V79.5249ZM480.553 81.4981L463.477 98.5539C463.077 98.9529 462.543 99.1727 461.971 99.1727C461.4 99.1727 460.865 98.9529 460.465 98.5538L457.65 95.7417C457.251 95.3434 457.031 94.8102 457.031 94.2405C457.031 93.671 457.251 93.1378 457.65 92.7393L474.726 75.6835C475.126 75.2843 475.661 75.0646 476.232 75.0646C476.804 75.0646 477.338 75.2843 477.739 75.6844L480.553 78.4911C480.952 78.8896 481.172 79.4234 481.172 79.9945C481.172 80.5658 480.952 81.0997 480.553 81.4981V81.4981Z" fill="#15854F"/>
<path d="M422.702 30.4495C423.013 30.7599 423.42 30.915 423.828 30.915C424.236 30.915 424.644 30.759 424.955 30.4472C425.577 29.8243 425.576 28.8156 424.953 28.194L419.147 22.3998C418.525 21.7783 417.516 21.7791 416.894 22.4021C416.273 23.0249 416.274 24.0336 416.896 24.6552L422.702 30.4495Z" fill="#15854F"/>
<path d="M463.89 30.915C464.297 30.915 464.705 30.7596 465.016 30.4491L470.817 24.6547C471.439 24.033 471.44 23.0241 470.818 22.4016C470.196 21.7791 469.188 21.7784 468.565 22.4003L462.764 28.1947C462.141 28.8164 462.141 29.8253 462.762 30.4478C463.074 30.7593 463.482 30.915 463.89 30.915Z" fill="#15854F"/>
<path d="M413.438 90.0342C412.821 90.6617 412.83 91.6705 413.457 92.2874L413.462 92.2918C413.772 92.5962 414.174 92.7477 414.575 92.7477C414.988 92.7477 415.4 92.5881 415.713 92.2703C416.33 91.6429 416.319 90.6318 415.691 90.0149C415.064 89.3981 414.055 89.4068 413.438 90.0342V90.0342Z" fill="#15854F"/>
<path d="M457.701 77.2298C457.944 77.2298 458.19 77.1745 458.42 77.0583C459.206 76.662 459.522 75.7039 459.125 74.9182C458.729 74.1326 457.771 73.8168 456.985 74.2131L456.977 74.2176C456.191 74.6139 455.88 75.5697 456.276 76.3554C456.556 76.9103 457.118 77.2298 457.701 77.2298V77.2298Z" fill="#15854F"/>
</g>
<path d="M418.872 378.51C419.981 378.839 420.831 379.377 421.42 380.122C422.009 380.867 422.304 381.786 422.304 382.878C422.304 384.49 421.689 385.747 420.458 386.648C419.245 387.549 417.503 388 415.232 388H406.262V369.8H414.738C416.853 369.8 418.499 370.207 419.678 371.022C420.857 371.837 421.446 372.998 421.446 374.506C421.446 375.407 421.221 376.205 420.77 376.898C420.319 377.574 419.687 378.111 418.872 378.51ZM410.448 377.34H414.374C415.293 377.34 415.986 377.158 416.454 376.794C416.922 376.413 417.156 375.858 417.156 375.13C417.156 374.419 416.913 373.873 416.428 373.492C415.96 373.111 415.275 372.92 414.374 372.92H410.448V377.34ZM415.076 384.88C417.052 384.88 418.04 384.1 418.04 382.54C418.04 381.032 417.052 380.278 415.076 380.278H410.448V384.88H415.076ZM430.757 373.804C432.924 373.804 434.588 374.324 435.749 375.364C436.91 376.387 437.491 377.938 437.491 380.018V388H433.695V386.258C432.932 387.558 431.511 388.208 429.431 388.208C428.356 388.208 427.42 388.026 426.623 387.662C425.843 387.298 425.245 386.795 424.829 386.154C424.413 385.513 424.205 384.785 424.205 383.97C424.205 382.67 424.69 381.647 425.661 380.902C426.649 380.157 428.166 379.784 430.211 379.784H433.435C433.435 378.9 433.166 378.224 432.629 377.756C432.092 377.271 431.286 377.028 430.211 377.028C429.466 377.028 428.729 377.149 428.001 377.392C427.29 377.617 426.684 377.929 426.181 378.328L424.725 375.494C425.488 374.957 426.398 374.541 427.455 374.246C428.53 373.951 429.63 373.804 430.757 373.804ZM430.445 385.478C431.138 385.478 431.754 385.322 432.291 385.01C432.828 384.681 433.21 384.204 433.435 383.58V382.15H430.653C428.989 382.15 428.157 382.696 428.157 383.788C428.157 384.308 428.356 384.724 428.755 385.036C429.171 385.331 429.734 385.478 430.445 385.478ZM454.664 388V379.628L450.478 386.648H448.762L444.68 379.602V388H441.014V374.012H445.252L449.724 382.098L454.482 374.012H458.278L458.33 388H454.664ZM469.579 374.012H473.609V379.472H479.693V374.012H483.749V388H479.693V382.774H473.609V388H469.579V374.012ZM501.646 374.012L495.328 388.858C494.686 390.47 493.889 391.605 492.936 392.264C492 392.923 490.864 393.252 489.53 393.252C488.802 393.252 488.082 393.139 487.372 392.914C486.661 392.689 486.08 392.377 485.63 391.978L487.112 389.092C487.424 389.369 487.779 389.586 488.178 389.742C488.594 389.898 489.001 389.976 489.4 389.976C489.954 389.976 490.405 389.837 490.752 389.56C491.098 389.3 491.41 388.858 491.688 388.234L491.74 388.104L485.682 374.012H489.868L493.794 383.502L497.746 374.012H501.646ZM516.673 382.696H514.723V388H510.719V382.696H508.769L505.805 388H501.021L505.415 380.772L501.333 374.012H505.623L508.717 379.446H510.719V374.012H514.723V379.446H516.699L519.819 374.012H524.109L520.027 380.772L524.447 388H519.637L516.673 382.696ZM526.555 374.012H530.585V379.472H536.669V374.012H540.725V388H536.669V382.774H530.585V388H526.555V374.012ZM550.042 373.804C552.209 373.804 553.873 374.324 555.034 375.364C556.196 376.387 556.776 377.938 556.776 380.018V388H552.98V386.258C552.218 387.558 550.796 388.208 548.716 388.208C547.642 388.208 546.706 388.026 545.908 387.662C545.128 387.298 544.53 386.795 544.114 386.154C543.698 385.513 543.49 384.785 543.49 383.97C543.49 382.67 543.976 381.647 544.946 380.902C545.934 380.157 547.451 379.784 549.496 379.784H552.72C552.72 378.9 552.452 378.224 551.914 377.756C551.377 377.271 550.571 377.028 549.496 377.028C548.751 377.028 548.014 377.149 547.286 377.392C546.576 377.617 545.969 377.929 545.466 378.328L544.01 375.494C544.773 374.957 545.683 374.541 546.74 374.246C547.815 373.951 548.916 373.804 550.042 373.804ZM549.73 385.478C550.424 385.478 551.039 385.322 551.576 385.01C552.114 384.681 552.495 384.204 552.72 383.58V382.15H549.938C548.274 382.15 547.442 382.696 547.442 383.788C547.442 384.308 547.642 384.724 548.04 385.036C548.456 385.331 549.02 385.478 549.73 385.478ZM405.95 406.012H409.98V414.332L416.792 406.012H420.51V420H416.48V411.68L409.694 420H405.95V406.012ZM424.409 406.012H428.439V411.472H434.523V406.012H438.579V420H434.523V414.774H428.439V420H424.409V406.012ZM454.214 409.34H449.482V420H445.452V409.34H440.72V406.012H454.214V409.34ZM469.39 413.058C469.39 413.11 469.364 413.474 469.312 414.15H458.73C458.92 415.017 459.371 415.701 460.082 416.204C460.792 416.707 461.676 416.958 462.734 416.958C463.462 416.958 464.103 416.854 464.658 416.646C465.23 416.421 465.758 416.074 466.244 415.606L468.402 417.946C467.084 419.454 465.16 420.208 462.63 420.208C461.052 420.208 459.657 419.905 458.444 419.298C457.23 418.674 456.294 417.816 455.636 416.724C454.977 415.632 454.648 414.393 454.648 413.006C454.648 411.637 454.968 410.406 455.61 409.314C456.268 408.205 457.161 407.347 458.288 406.74C459.432 406.116 460.706 405.804 462.11 405.804C463.479 405.804 464.718 406.099 465.828 406.688C466.937 407.277 467.804 408.127 468.428 409.236C469.069 410.328 469.39 411.602 469.39 413.058ZM462.136 408.872C461.217 408.872 460.446 409.132 459.822 409.652C459.198 410.172 458.816 410.883 458.678 411.784H465.568C465.429 410.9 465.048 410.198 464.424 409.678C463.8 409.141 463.037 408.872 462.136 408.872ZM480.741 405.804C482.041 405.804 483.219 406.107 484.277 406.714C485.351 407.303 486.192 408.144 486.799 409.236C487.405 410.311 487.709 411.567 487.709 413.006C487.709 414.445 487.405 415.71 486.799 416.802C486.192 417.877 485.351 418.717 484.277 419.324C483.219 419.913 482.041 420.208 480.741 420.208C478.955 420.208 477.551 419.645 476.529 418.518V425.044H472.473V406.012H476.347V407.624C477.352 406.411 478.817 405.804 480.741 405.804ZM480.039 416.88C481.079 416.88 481.928 416.533 482.587 415.84C483.263 415.129 483.601 414.185 483.601 413.006C483.601 411.827 483.263 410.891 482.587 410.198C481.928 409.487 481.079 409.132 480.039 409.132C478.999 409.132 478.141 409.487 477.465 410.198C476.806 410.891 476.477 411.827 476.477 413.006C476.477 414.185 476.806 415.129 477.465 415.84C478.141 416.533 478.999 416.88 480.039 416.88ZM504.15 413.058C504.15 413.11 504.124 413.474 504.072 414.15H493.49C493.68 415.017 494.131 415.701 494.842 416.204C495.552 416.707 496.436 416.958 497.494 416.958C498.222 416.958 498.863 416.854 499.418 416.646C499.99 416.421 500.518 416.074 501.004 415.606L503.162 417.946C501.844 419.454 499.92 420.208 497.39 420.208C495.812 420.208 494.417 419.905 493.204 419.298C491.99 418.674 491.054 417.816 490.396 416.724C489.737 415.632 489.408 414.393 489.408 413.006C489.408 411.637 489.728 410.406 490.37 409.314C491.028 408.205 491.921 407.347 493.048 406.74C494.192 406.116 495.466 405.804 496.87 405.804C498.239 405.804 499.478 406.099 500.588 406.688C501.697 407.277 502.564 408.127 503.188 409.236C503.829 410.328 504.15 411.602 504.15 413.058ZM496.896 408.872C495.977 408.872 495.206 409.132 494.582 409.652C493.958 410.172 493.576 410.883 493.438 411.784H500.328C500.189 410.9 499.808 410.198 499.184 409.678C498.56 409.141 497.797 408.872 496.896 408.872ZM513.915 420.208C512.424 420.208 511.081 419.905 509.885 419.298C508.706 418.674 507.779 417.816 507.103 416.724C506.444 415.632 506.115 414.393 506.115 413.006C506.115 411.619 506.444 410.38 507.103 409.288C507.779 408.196 508.706 407.347 509.885 406.74C511.081 406.116 512.424 405.804 513.915 405.804C515.388 405.804 516.671 406.116 517.763 406.74C518.872 407.347 519.678 408.222 520.181 409.366L517.035 411.056C516.307 409.773 515.258 409.132 513.889 409.132C512.831 409.132 511.956 409.479 511.263 410.172C510.569 410.865 510.223 411.81 510.223 413.006C510.223 414.202 510.569 415.147 511.263 415.84C511.956 416.533 512.831 416.88 513.889 416.88C515.275 416.88 516.324 416.239 517.035 414.956L520.181 416.672C519.678 417.781 518.872 418.648 517.763 419.272C516.671 419.896 515.388 420.208 513.915 420.208ZM522.645 406.012H526.675V411.472H532.759V406.012H536.815V420H532.759V414.774H526.675V420H522.645V406.012ZM546.132 405.804C548.299 405.804 549.963 406.324 551.124 407.364C552.285 408.387 552.866 409.938 552.866 412.018V420H549.07V418.258C548.307 419.558 546.886 420.208 544.806 420.208C543.731 420.208 542.795 420.026 541.998 419.662C541.218 419.298 540.62 418.795 540.204 418.154C539.788 417.513 539.58 416.785 539.58 415.97C539.58 414.67 540.065 413.647 541.036 412.902C542.024 412.157 543.541 411.784 545.586 411.784H548.81C548.81 410.9 548.541 410.224 548.004 409.756C547.467 409.271 546.661 409.028 545.586 409.028C544.841 409.028 544.104 409.149 543.376 409.392C542.665 409.617 542.059 409.929 541.556 410.328L540.1 407.494C540.863 406.957 541.773 406.541 542.83 406.246C543.905 405.951 545.005 405.804 546.132 405.804ZM545.82 417.478C546.513 417.478 547.129 417.322 547.666 417.01C548.203 416.681 548.585 416.204 548.81 415.58V414.15H546.028C544.364 414.15 543.532 414.696 543.532 415.788C543.532 416.308 543.731 416.724 544.13 417.036C544.546 417.331 545.109 417.478 545.82 417.478ZM568.817 406.012V420H565.203V415.996H562.213L559.561 420H555.245L558.443 415.424C557.473 415.043 556.727 414.497 556.207 413.786C555.705 413.058 555.453 412.183 555.453 411.16C555.453 409.513 556.043 408.248 557.221 407.364C558.417 406.463 560.055 406.012 562.135 406.012H568.817ZM562.213 409.314C561.347 409.314 560.688 409.47 560.237 409.782C559.804 410.094 559.587 410.597 559.587 411.29C559.587 411.983 559.795 412.495 560.211 412.824C560.645 413.136 561.295 413.292 562.161 413.292H565.203V409.314H562.213ZM419.366 438.012V452H415.31V441.34H410.89L410.76 443.81C410.691 445.647 410.517 447.173 410.24 448.386C409.963 449.599 409.512 450.553 408.888 451.246C408.264 451.939 407.397 452.286 406.288 452.286C405.699 452.286 404.997 452.182 404.182 451.974L404.39 448.646C404.667 448.681 404.867 448.698 404.988 448.698C405.595 448.698 406.045 448.481 406.34 448.048C406.652 447.597 406.86 447.034 406.964 446.358C407.068 445.665 407.146 444.755 407.198 443.628L407.406 438.012H419.366ZM423.266 438.012H427.296V446.332L434.108 438.012H437.826V452H433.796V443.68L427.01 452H423.266V438.012ZM453.477 441.34H448.745V452H444.715V441.34H439.983V438.012H453.477V441.34ZM468.653 445.058C468.653 445.11 468.627 445.474 468.575 446.15H457.993C458.184 447.017 458.635 447.701 459.345 448.204C460.056 448.707 460.94 448.958 461.997 448.958C462.725 448.958 463.367 448.854 463.921 448.646C464.493 448.421 465.022 448.074 465.507 447.606L467.665 449.946C466.348 451.454 464.424 452.208 461.893 452.208C460.316 452.208 458.921 451.905 457.707 451.298C456.494 450.674 455.558 449.816 454.899 448.724C454.241 447.632 453.911 446.393 453.911 445.006C453.911 443.637 454.232 442.406 454.873 441.314C455.532 440.205 456.425 439.347 457.551 438.74C458.695 438.116 459.969 437.804 461.373 437.804C462.743 437.804 463.982 438.099 465.091 438.688C466.201 439.277 467.067 440.127 467.691 441.236C468.333 442.328 468.653 443.602 468.653 445.058ZM461.399 440.872C460.481 440.872 459.709 441.132 459.085 441.652C458.461 442.172 458.08 442.883 457.941 443.784H464.831C464.693 442.9 464.311 442.198 463.687 441.678C463.063 441.141 462.301 440.872 461.399 440.872ZM480.005 437.804C481.305 437.804 482.483 438.107 483.54 438.714C484.615 439.303 485.456 440.144 486.062 441.236C486.669 442.311 486.973 443.567 486.973 445.006C486.973 446.445 486.669 447.71 486.062 448.802C485.456 449.877 484.615 450.717 483.54 451.324C482.483 451.913 481.305 452.208 480.005 452.208C478.219 452.208 476.815 451.645 475.793 450.518V457.044H471.737V438.012H475.611V439.624C476.616 438.411 478.081 437.804 480.005 437.804ZM479.303 448.88C480.343 448.88 481.192 448.533 481.851 447.84C482.527 447.129 482.865 446.185 482.865 445.006C482.865 443.827 482.527 442.891 481.851 442.198C481.192 441.487 480.343 441.132 479.303 441.132C478.263 441.132 477.405 441.487 476.729 442.198C476.07 442.891 475.741 443.827 475.741 445.006C475.741 446.185 476.07 447.129 476.729 447.84C477.405 448.533 478.263 448.88 479.303 448.88ZM495.021 437.804C497.187 437.804 498.851 438.324 500.013 439.364C501.174 440.387 501.755 441.938 501.755 444.018V452H497.959V450.258C497.196 451.558 495.775 452.208 493.695 452.208C492.62 452.208 491.684 452.026 490.887 451.662C490.107 451.298 489.509 450.795 489.093 450.154C488.677 449.513 488.469 448.785 488.469 447.97C488.469 446.67 488.954 445.647 489.925 444.902C490.913 444.157 492.429 443.784 494.475 443.784H497.699C497.699 442.9 497.43 442.224 496.893 441.756C496.355 441.271 495.549 441.028 494.475 441.028C493.729 441.028 492.993 441.149 492.265 441.392C491.554 441.617 490.947 441.929 490.445 442.328L488.989 439.494C489.751 438.957 490.661 438.541 491.719 438.246C492.793 437.951 493.894 437.804 495.021 437.804ZM494.709 449.478C495.402 449.478 496.017 449.322 496.555 449.01C497.092 448.681 497.473 448.204 497.699 447.58V446.15H494.917C493.253 446.15 492.421 446.696 492.421 447.788C492.421 448.308 492.62 448.724 493.019 449.036C493.435 449.331 493.998 449.478 494.709 449.478ZM517.03 441.34H512.298V452H508.268V441.34H503.536V438.012H517.03V441.34ZM533.333 438.012L527.015 452.858C526.374 454.47 525.576 455.605 524.623 456.264C523.687 456.923 522.552 457.252 521.217 457.252C520.489 457.252 519.77 457.139 519.059 456.914C518.348 456.689 517.768 456.377 517.317 455.978L518.799 453.092C519.111 453.369 519.466 453.586 519.865 453.742C520.281 453.898 520.688 453.976 521.087 453.976C521.642 453.976 522.092 453.837 522.439 453.56C522.786 453.3 523.098 452.858 523.375 452.234L523.427 452.104L517.369 438.012H521.555L525.481 447.502L529.433 438.012H533.333ZM543.532 437.804C544.832 437.804 546.011 438.107 547.068 438.714C548.143 439.303 548.983 440.144 549.59 441.236C550.197 442.311 550.5 443.567 550.5 445.006C550.5 446.445 550.197 447.71 549.59 448.802C548.983 449.877 548.143 450.717 547.068 451.324C546.011 451.913 544.832 452.208 543.532 452.208C541.747 452.208 540.343 451.645 539.32 450.518V457.044H535.264V438.012H539.138V439.624C540.143 438.411 541.608 437.804 543.532 437.804ZM542.83 448.88C543.87 448.88 544.719 448.533 545.378 447.84C546.054 447.129 546.392 446.185 546.392 445.006C546.392 443.827 546.054 442.891 545.378 442.198C544.719 441.487 543.87 441.132 542.83 441.132C541.79 441.132 540.932 441.487 540.256 442.198C539.597 442.891 539.268 443.827 539.268 445.006C539.268 446.185 539.597 447.129 540.256 447.84C540.932 448.533 541.79 448.88 542.83 448.88ZM558.548 437.804C560.715 437.804 562.379 438.324 563.54 439.364C564.701 440.387 565.282 441.938 565.282 444.018V452H561.486V450.258C560.723 451.558 559.302 452.208 557.222 452.208C556.147 452.208 555.211 452.026 554.414 451.662C553.634 451.298 553.036 450.795 552.62 450.154C552.204 449.513 551.996 448.785 551.996 447.97C551.996 446.67 552.481 445.647 553.452 444.902C554.44 444.157 555.957 443.784 558.002 443.784H561.226C561.226 442.9 560.957 442.224 560.42 441.756C559.883 441.271 559.077 441.028 558.002 441.028C557.257 441.028 556.52 441.149 555.792 441.392C555.081 441.617 554.475 441.929 553.972 442.328L552.516 439.494C553.279 438.957 554.189 438.541 555.246 438.246C556.321 437.951 557.421 437.804 558.548 437.804ZM558.236 449.478C558.929 449.478 559.545 449.322 560.082 449.01C560.619 448.681 561.001 448.204 561.226 447.58V446.15H558.444C556.78 446.15 555.948 446.696 555.948 447.788C555.948 448.308 556.147 448.724 556.546 449.036C556.962 449.331 557.525 449.478 558.236 449.478ZM570.287 447.164C571.015 447.164 571.613 447.398 572.081 447.866C572.549 448.317 572.783 448.915 572.783 449.66C572.783 450.007 572.74 450.353 572.653 450.7C572.567 451.047 572.376 451.567 572.081 452.26L570.599 456.004H568.025L569.169 451.87C568.736 451.697 568.389 451.419 568.129 451.038C567.887 450.639 567.765 450.18 567.765 449.66C567.765 448.915 567.999 448.317 568.467 447.866C568.953 447.398 569.559 447.164 570.287 447.164ZM417.702 473.34H412.97V484H408.94V473.34H404.208V470.012H417.702V473.34ZM428.106 469.804C429.406 469.804 430.585 470.107 431.642 470.714C432.717 471.303 433.557 472.144 434.164 473.236C434.771 474.311 435.074 475.567 435.074 477.006C435.074 478.445 434.771 479.71 434.164 480.802C433.557 481.877 432.717 482.717 431.642 483.324C430.585 483.913 429.406 484.208 428.106 484.208C426.321 484.208 424.917 483.645 423.894 482.518V489.044H419.838V470.012H423.712V471.624C424.717 470.411 426.182 469.804 428.106 469.804ZM427.404 480.88C428.444 480.88 429.293 480.533 429.952 479.84C430.628 479.129 430.966 478.185 430.966 477.006C430.966 475.827 430.628 474.891 429.952 474.198C429.293 473.487 428.444 473.132 427.404 473.132C426.364 473.132 425.506 473.487 424.83 474.198C424.171 474.891 423.842 475.827 423.842 477.006C423.842 478.185 424.171 479.129 424.83 479.84C425.506 480.533 426.364 480.88 427.404 480.88ZM451.515 477.058C451.515 477.11 451.489 477.474 451.437 478.15H440.855C441.045 479.017 441.496 479.701 442.207 480.204C442.917 480.707 443.801 480.958 444.859 480.958C445.587 480.958 446.228 480.854 446.783 480.646C447.355 480.421 447.883 480.074 448.369 479.606L450.527 481.946C449.209 483.454 447.285 484.208 444.755 484.208C443.177 484.208 441.782 483.905 440.569 483.298C439.355 482.674 438.419 481.816 437.761 480.724C437.102 479.632 436.773 478.393 436.773 477.006C436.773 475.637 437.093 474.406 437.735 473.314C438.393 472.205 439.286 471.347 440.413 470.74C441.557 470.116 442.831 469.804 444.235 469.804C445.604 469.804 446.843 470.099 447.953 470.688C449.062 471.277 449.929 472.127 450.553 473.236C451.194 474.328 451.515 475.602 451.515 477.058ZM444.261 472.872C443.342 472.872 442.571 473.132 441.947 473.652C441.323 474.172 440.941 474.883 440.803 475.784H447.693C447.554 474.9 447.173 474.198 446.549 473.678C445.925 473.141 445.162 472.872 444.261 472.872ZM454.624 470.012H458.654V475.472H464.738V470.012H468.794V484H464.738V478.774H458.654V484H454.624V470.012ZM472.677 470.012H476.707V478.332L483.519 470.012H487.237V484H483.207V475.68L476.421 484H472.677V470.012ZM491.136 470.012H495.166V475.472H501.25V470.012H505.306V484H501.25V478.774H495.166V484H491.136V470.012ZM520.394 473.34H513.218V484H509.188V470.012H520.394V473.34ZM522.544 470.012H526.574V478.332L533.386 470.012H537.104V484H533.074V475.68L526.288 484H522.544V470.012ZM545.38 477.682C545.38 476.781 545.58 476.035 545.978 475.446C546.394 474.857 546.992 474.207 547.772 473.496C548.344 472.976 548.76 472.543 549.02 472.196C549.298 471.832 549.436 471.425 549.436 470.974C549.436 470.333 549.176 469.83 548.656 469.466C548.154 469.085 547.478 468.894 546.628 468.894C545.814 468.894 545.086 469.067 544.444 469.414C543.82 469.743 543.292 470.211 542.858 470.818L539.712 468.972C540.44 467.863 541.42 467.005 542.65 466.398C543.898 465.791 545.372 465.488 547.07 465.488C549.064 465.488 550.658 465.913 551.854 466.762C553.068 467.611 553.674 468.79 553.674 470.298C553.674 471.009 553.553 471.633 553.31 472.17C553.085 472.707 552.799 473.167 552.452 473.548C552.123 473.912 551.69 474.337 551.152 474.822C550.511 475.394 550.043 475.879 549.748 476.278C549.454 476.659 549.306 477.127 549.306 477.682H545.38ZM547.356 484.208C546.646 484.208 546.048 483.983 545.562 483.532C545.094 483.064 544.86 482.501 544.86 481.842C544.86 481.183 545.094 480.637 545.562 480.204C546.03 479.753 546.628 479.528 547.356 479.528C548.084 479.528 548.682 479.753 549.15 480.204C549.618 480.637 549.852 481.183 549.852 481.842C549.852 482.501 549.61 483.064 549.124 483.532C548.656 483.983 548.067 484.208 547.356 484.208Z" fill="#414141"/>
<g clip-path="url(#clip1_1213_22)">
<path d="M483.93 297.778C483.925 297.778 483.919 297.778 483.914 297.778H478.592V295.957C478.62 295.236 478.154 294.588 477.461 294.387C473.766 293.419 469.961 292.933 466.141 292.943C459.861 292.943 451.304 294.356 444.976 300.793C438.696 294.293 430.076 292.943 423.812 292.943C419.992 292.933 416.187 293.419 412.492 294.387C411.799 294.588 411.333 295.236 411.361 295.957V297.763H406.07C405.203 297.763 404.5 298.466 404.5 299.333V349.481C404.5 350.348 405.203 351.051 406.07 351.051C406.34 351.05 406.605 350.98 406.839 350.847C406.996 350.768 422.697 342.18 444.615 347.707H444.851H444.992C445.117 347.722 445.244 347.722 445.369 347.707C467.35 342.133 483.051 350.706 483.145 350.847C483.631 351.127 484.229 351.127 484.715 350.847C485.198 350.568 485.497 350.054 485.5 349.497V299.349C485.5 298.481 484.797 297.778 483.93 297.778ZM407.64 346.984V300.919H411.393V340.296C411.383 341.163 412.078 341.874 412.945 341.884C413.03 341.885 413.114 341.879 413.198 341.866C416.446 341.37 419.726 341.108 423.011 341.081C427.562 341.002 432.095 341.687 436.42 343.106C426.653 341.925 416.746 343.26 407.64 346.984ZM423.011 337.957C420.155 337.963 417.303 338.147 414.47 338.506V297.198C417.527 296.517 420.649 296.169 423.78 296.161C429.653 296.161 437.754 297.512 443.375 303.855L443.422 342.965C440.156 340.83 433.782 337.957 423.011 337.957ZM446.562 303.855C452.183 297.574 460.285 296.161 466.157 296.161C469.288 296.171 472.41 296.518 475.467 297.198V338.506C472.65 338.143 469.813 337.954 466.973 337.941C456.265 337.941 449.875 340.814 446.562 342.949V303.855V303.855ZM482.344 346.984C473.219 343.25 463.289 341.915 453.502 343.106C457.847 341.682 462.401 340.997 466.973 341.081C470.279 341.099 473.58 341.357 476.849 341.85C477.706 341.98 478.507 341.391 478.637 340.534C478.65 340.45 478.655 340.365 478.654 340.28V300.919H482.407L482.344 346.984Z" fill="#15854F"/>
</g>
<path d="M349 2C326 203 384.5 317.5 349 525" stroke="#A5A5A5" stroke-width="3" stroke-linecap="round"/>
<path d="M639 254C413.5 287.5 300 221 68 254" stroke="#A5A5A5" stroke-width="3" stroke-linecap="round"/>
<path d="M138.5 286C116.167 286 98 304.169 98 326.5C98 348.831 116.167 367 138.5 367C160.833 367 179 348.831 179 326.5C179 304.169 160.833 286 138.5 286ZM138.5 363.625C118.029 363.625 101.375 346.971 101.375 326.5C101.375 306.029 118.029 289.375 138.5 289.375C158.971 289.375 175.625 306.029 175.625 326.5C175.625 346.971 158.971 363.625 138.5 363.625Z" fill="#15854F"/>
<path d="M138.493 333.245C128.925 333.245 120.362 338.952 116.677 347.785C116.321 348.645 116.727 349.632 117.587 349.991C118.434 350.352 119.436 349.944 119.795 349.083C122.949 341.513 130.289 336.62 138.493 336.62C146.696 336.62 154.04 341.513 157.194 349.087C157.464 349.734 158.094 350.125 158.753 350.125C158.97 350.125 159.191 350.084 159.402 349.995C160.262 349.637 160.668 348.648 160.312 347.788C156.627 338.954 148.064 333.245 138.493 333.245Z" fill="#15854F"/>
<path d="M125 319.75C126.864 319.75 128.375 318.239 128.375 316.375C128.375 314.511 126.864 313 125 313C123.137 313 121.625 314.511 121.625 316.375C121.625 318.239 123.137 319.75 125 319.75Z" fill="#15854F"/>
<path d="M152 319.75C153.864 319.75 155.375 318.239 155.375 316.375C155.375 314.511 153.864 313 152 313C150.136 313 148.625 314.511 148.625 316.375C148.625 318.239 150.136 319.75 152 319.75Z" fill="#15854F"/>
<path d="M155.668 320.479C154.564 322.079 151.993 326.03 151.993 328.188C151.993 330.979 154.264 333.25 157.056 333.25C159.847 333.25 162.118 330.979 162.118 328.188C162.118 326.03 159.547 322.079 158.443 320.479C157.817 319.566 156.294 319.566 155.668 320.479ZM157.056 329.875C156.126 329.875 155.368 329.119 155.368 328.189C155.381 327.673 156.083 326.203 157.056 324.565C158.028 326.2 158.727 327.67 158.743 328.188C158.743 329.119 157.985 329.875 157.056 329.875Z" fill="#15854F"/>
<path d="M118.872 403.51C119.981 403.839 120.831 404.377 121.42 405.122C122.009 405.867 122.304 406.786 122.304 407.878C122.304 409.49 121.689 410.747 120.458 411.648C119.245 412.549 117.503 413 115.232 413H106.262V394.8H114.738C116.853 394.8 118.499 395.207 119.678 396.022C120.857 396.837 121.446 397.998 121.446 399.506C121.446 400.407 121.221 401.205 120.77 401.898C120.319 402.574 119.687 403.111 118.872 403.51ZM110.448 402.34H114.374C115.293 402.34 115.986 402.158 116.454 401.794C116.922 401.413 117.156 400.858 117.156 400.13C117.156 399.419 116.913 398.873 116.428 398.492C115.96 398.111 115.275 397.92 114.374 397.92H110.448V402.34ZM115.076 409.88C117.052 409.88 118.04 409.1 118.04 407.54C118.04 406.032 117.052 405.278 115.076 405.278H110.448V409.88H115.076ZM132.681 403.484C134.501 403.501 135.879 403.909 136.815 404.706C137.751 405.503 138.219 406.647 138.219 408.138C138.219 409.698 137.69 410.903 136.633 411.752C135.576 412.601 134.076 413.026 132.135 413.026L125.323 413V399.012H129.353V403.484H132.681ZM139.727 399.012H143.757V413H139.727V399.012ZM131.771 410.14C132.551 410.157 133.149 409.993 133.565 409.646C133.981 409.299 134.189 408.779 134.189 408.086C134.189 407.41 133.981 406.916 133.565 406.604C133.166 406.292 132.568 406.127 131.771 406.11L129.353 406.084V410.14H131.771ZM161.582 413.208C160.109 413.208 158.783 412.905 157.604 412.298C156.443 411.674 155.533 410.816 154.874 409.724C154.215 408.632 153.886 407.393 153.886 406.006C153.886 404.619 154.215 403.38 154.874 402.288C155.533 401.196 156.443 400.347 157.604 399.74C158.783 399.116 160.109 398.804 161.582 398.804C163.055 398.804 164.373 399.116 165.534 399.74C166.695 400.347 167.605 401.196 168.264 402.288C168.923 403.38 169.252 404.619 169.252 406.006C169.252 407.393 168.923 408.632 168.264 409.724C167.605 410.816 166.695 411.674 165.534 412.298C164.373 412.905 163.055 413.208 161.582 413.208ZM161.582 409.88C162.622 409.88 163.471 409.533 164.13 408.84C164.806 408.129 165.144 407.185 165.144 406.006C165.144 404.827 164.806 403.891 164.13 403.198C163.471 402.487 162.622 402.132 161.582 402.132C160.542 402.132 159.684 402.487 159.008 403.198C158.332 403.891 157.994 404.827 157.994 406.006C157.994 407.185 158.332 408.129 159.008 408.84C159.684 409.533 160.542 409.88 161.582 409.88ZM191.989 399.012V413H187.933V407.8C186.754 408.389 185.454 408.684 184.033 408.684C182.144 408.684 180.714 408.259 179.743 407.41C178.79 406.543 178.313 405.209 178.313 403.406V399.012H182.369V403.146C182.369 403.995 182.586 404.611 183.019 404.992C183.47 405.373 184.111 405.564 184.943 405.564C186 405.564 186.997 405.339 187.933 404.888V399.012H191.989ZM209.482 406.058C209.482 406.11 209.456 406.474 209.404 407.15H198.822C199.012 408.017 199.463 408.701 200.174 409.204C200.884 409.707 201.768 409.958 202.826 409.958C203.554 409.958 204.195 409.854 204.75 409.646C205.322 409.421 205.85 409.074 206.336 408.606L208.494 410.946C207.176 412.454 205.252 413.208 202.722 413.208C201.144 413.208 199.749 412.905 198.536 412.298C197.322 411.674 196.386 410.816 195.728 409.724C195.069 408.632 194.74 407.393 194.74 406.006C194.74 404.637 195.06 403.406 195.702 402.314C196.36 401.205 197.253 400.347 198.38 399.74C199.524 399.116 200.798 398.804 202.202 398.804C203.571 398.804 204.81 399.099 205.92 399.688C207.029 400.277 207.896 401.127 208.52 402.236C209.161 403.328 209.482 404.602 209.482 406.058ZM202.228 401.872C201.309 401.872 200.538 402.132 199.914 402.652C199.29 403.172 198.908 403.883 198.77 404.784H205.66C205.521 403.9 205.14 403.198 204.516 402.678C203.892 402.141 203.129 401.872 202.228 401.872ZM226.241 413V404.628L222.055 411.648H220.339L216.257 404.602V413H212.591V399.012H216.829L221.301 407.098L226.059 399.012H229.855L229.907 413H226.241ZM233.194 404.056H240.552V407.306H233.194V404.056ZM255.319 402.34H250.587V413H246.557V402.34H241.825V399.012H255.319V402.34ZM263.449 413.208C261.976 413.208 260.65 412.905 259.471 412.298C258.31 411.674 257.4 410.816 256.741 409.724C256.083 408.632 255.753 407.393 255.753 406.006C255.753 404.619 256.083 403.38 256.741 402.288C257.4 401.196 258.31 400.347 259.471 399.74C260.65 399.116 261.976 398.804 263.449 398.804C264.923 398.804 266.24 399.116 267.401 399.74C268.563 400.347 269.473 401.196 270.131 402.288C270.79 403.38 271.119 404.619 271.119 406.006C271.119 407.393 270.79 408.632 270.131 409.724C269.473 410.816 268.563 411.674 267.401 412.298C266.24 412.905 264.923 413.208 263.449 413.208ZM263.449 409.88C264.489 409.88 265.339 409.533 265.997 408.84C266.673 408.129 267.011 407.185 267.011 406.006C267.011 404.827 266.673 403.891 265.997 403.198C265.339 402.487 264.489 402.132 263.449 402.132C262.409 402.132 261.551 402.487 260.875 403.198C260.199 403.891 259.861 404.827 259.861 406.006C259.861 407.185 260.199 408.129 260.875 408.84C261.551 409.533 262.409 409.88 263.449 409.88ZM119.86 431.012V445H115.804V434.34H109.98V445H105.95V431.012H119.86ZM137.347 438.058C137.347 438.11 137.321 438.474 137.269 439.15H126.687C126.877 440.017 127.328 440.701 128.039 441.204C128.749 441.707 129.633 441.958 130.691 441.958C131.419 441.958 132.06 441.854 132.615 441.646C133.187 441.421 133.715 441.074 134.201 440.606L136.359 442.946C135.041 444.454 133.117 445.208 130.587 445.208C129.009 445.208 127.614 444.905 126.401 444.298C125.187 443.674 124.251 442.816 123.593 441.724C122.934 440.632 122.605 439.393 122.605 438.006C122.605 436.637 122.925 435.406 123.567 434.314C124.225 433.205 125.118 432.347 126.245 431.74C127.389 431.116 128.663 430.804 130.067 430.804C131.436 430.804 132.675 431.099 133.785 431.688C134.894 432.277 135.761 433.127 136.385 434.236C137.026 435.328 137.347 436.602 137.347 438.058ZM130.093 433.872C129.174 433.872 128.403 434.132 127.779 434.652C127.155 435.172 126.773 435.883 126.635 436.784H133.525C133.386 435.9 133.005 435.198 132.381 434.678C131.757 434.141 130.994 433.872 130.093 433.872ZM148.698 430.804C149.998 430.804 151.177 431.107 152.234 431.714C153.309 432.303 154.149 433.144 154.756 434.236C155.363 435.311 155.666 436.567 155.666 438.006C155.666 439.445 155.363 440.71 154.756 441.802C154.149 442.877 153.309 443.717 152.234 444.324C151.177 444.913 149.998 445.208 148.698 445.208C146.913 445.208 145.509 444.645 144.486 443.518V450.044H140.43V431.012H144.304V432.624C145.309 431.411 146.774 430.804 148.698 430.804ZM147.996 441.88C149.036 441.88 149.885 441.533 150.544 440.84C151.22 440.129 151.558 439.185 151.558 438.006C151.558 436.827 151.22 435.891 150.544 435.198C149.885 434.487 149.036 434.132 147.996 434.132C146.956 434.132 146.098 434.487 145.422 435.198C144.763 435.891 144.434 436.827 144.434 438.006C144.434 439.185 144.763 440.129 145.422 440.84C146.098 441.533 146.956 441.88 147.996 441.88ZM172.107 438.058C172.107 438.11 172.081 438.474 172.029 439.15H161.447C161.637 440.017 162.088 440.701 162.799 441.204C163.509 441.707 164.393 441.958 165.451 441.958C166.179 441.958 166.82 441.854 167.375 441.646C167.947 441.421 168.475 441.074 168.961 440.606L171.119 442.946C169.801 444.454 167.877 445.208 165.347 445.208C163.769 445.208 162.374 444.905 161.161 444.298C159.947 443.674 159.011 442.816 158.353 441.724C157.694 440.632 157.365 439.393 157.365 438.006C157.365 436.637 157.685 435.406 158.327 434.314C158.985 433.205 159.878 432.347 161.005 431.74C162.149 431.116 163.423 430.804 164.827 430.804C166.196 430.804 167.435 431.099 168.545 431.688C169.654 432.277 170.521 433.127 171.145 434.236C171.786 435.328 172.107 436.602 172.107 438.058ZM164.853 433.872C163.934 433.872 163.163 434.132 162.539 434.652C161.915 435.172 161.533 435.883 161.395 436.784H168.285C168.146 435.9 167.765 435.198 167.141 434.678C166.517 434.141 165.754 433.872 164.853 433.872ZM188.693 439.696H186.743V445H182.739V439.696H180.789L177.825 445H173.041L177.435 437.772L173.353 431.012H177.643L180.737 436.446H182.739V431.012H186.743V436.446H188.719L191.839 431.012H196.129L192.047 437.772L196.467 445H191.657L188.693 439.696ZM198.575 431.012H202.605V439.332L209.417 431.012H213.135V445H209.105V436.68L202.319 445H198.575V431.012ZM227.72 437.694C229.367 438.249 230.19 439.358 230.19 441.022C230.19 442.287 229.713 443.267 228.76 443.96C227.807 444.653 226.385 445 224.496 445H217.034V431.012H224.184C225.935 431.012 227.304 431.333 228.292 431.974C229.28 432.598 229.774 433.482 229.774 434.626C229.774 435.319 229.592 435.935 229.228 436.472C228.881 436.992 228.379 437.399 227.72 437.694ZM220.752 436.758H223.82C225.241 436.758 225.952 436.255 225.952 435.25C225.952 434.262 225.241 433.768 223.82 433.768H220.752V436.758ZM224.158 442.244C225.649 442.244 226.394 441.733 226.394 440.71C226.394 440.173 226.221 439.783 225.874 439.54C225.527 439.28 224.981 439.15 224.236 439.15H220.752V442.244H224.158ZM238.642 430.804C240.808 430.804 242.472 431.324 243.634 432.364C244.795 433.387 245.376 434.938 245.376 437.018V445H241.58V443.258C240.817 444.558 239.396 445.208 237.316 445.208C236.241 445.208 235.305 445.026 234.508 444.662C233.728 444.298 233.13 443.795 232.714 443.154C232.298 442.513 232.09 441.785 232.09 440.97C232.09 439.67 232.575 438.647 233.546 437.902C234.534 437.157 236.05 436.784 238.096 436.784H241.32C241.32 435.9 241.051 435.224 240.514 434.756C239.976 434.271 239.17 434.028 238.096 434.028C237.35 434.028 236.614 434.149 235.886 434.392C235.175 434.617 234.568 434.929 234.066 435.328L232.61 432.494C233.372 431.957 234.282 431.541 235.34 431.246C236.414 430.951 237.515 430.804 238.642 430.804ZM238.33 442.478C239.023 442.478 239.638 442.322 240.176 442.01C240.713 441.681 241.094 441.204 241.32 440.58V439.15H238.538C236.874 439.15 236.042 439.696 236.042 440.788C236.042 441.308 236.241 441.724 236.64 442.036C237.056 442.331 237.619 442.478 238.33 442.478ZM262.497 438.058C262.497 438.11 262.471 438.474 262.419 439.15H251.837C252.028 440.017 252.479 440.701 253.189 441.204C253.9 441.707 254.784 441.958 255.841 441.958C256.569 441.958 257.211 441.854 257.765 441.646C258.337 441.421 258.866 441.074 259.351 440.606L261.509 442.946C260.192 444.454 258.268 445.208 255.737 445.208C254.16 445.208 252.765 444.905 251.551 444.298C250.338 443.674 249.402 442.816 248.743 441.724C248.085 440.632 247.755 439.393 247.755 438.006C247.755 436.637 248.076 435.406 248.717 434.314C249.376 433.205 250.269 432.347 251.395 431.74C252.539 431.116 253.813 430.804 255.217 430.804C256.587 430.804 257.826 431.099 258.935 431.688C260.045 432.277 260.911 433.127 261.535 434.236C262.177 435.328 262.497 436.602 262.497 438.058ZM255.243 433.872C254.325 433.872 253.553 434.132 252.929 434.652C252.305 435.172 251.924 435.883 251.785 436.784H258.675C258.537 435.9 258.155 435.198 257.531 434.678C256.907 434.141 256.145 433.872 255.243 433.872ZM276.876 434.34H272.144V445H268.114V434.34H263.382V431.012H276.876V434.34ZM292.052 438.058C292.052 438.11 292.026 438.474 291.974 439.15H281.392C281.583 440.017 282.033 440.701 282.744 441.204C283.455 441.707 284.339 441.958 285.396 441.958C286.124 441.958 286.765 441.854 287.32 441.646C287.892 441.421 288.421 441.074 288.906 440.606L291.064 442.946C289.747 444.454 287.823 445.208 285.292 445.208C283.715 445.208 282.319 444.905 281.106 444.298C279.893 443.674 278.957 442.816 278.298 441.724C277.639 440.632 277.31 439.393 277.31 438.006C277.31 436.637 277.631 435.406 278.272 434.314C278.931 433.205 279.823 432.347 280.95 431.74C282.094 431.116 283.368 430.804 284.772 430.804C286.141 430.804 287.381 431.099 288.49 431.688C289.599 432.277 290.466 433.127 291.09 434.236C291.731 435.328 292.052 436.602 292.052 438.058ZM284.798 433.872C283.879 433.872 283.108 434.132 282.484 434.652C281.86 435.172 281.479 435.883 281.34 436.784H288.23C288.091 435.9 287.71 435.198 287.086 434.678C286.462 434.141 285.699 433.872 284.798 433.872ZM297.71 438.682C297.71 437.781 297.91 437.035 298.308 436.446C298.724 435.857 299.322 435.207 300.102 434.496C300.674 433.976 301.09 433.543 301.35 433.196C301.628 432.832 301.766 432.425 301.766 431.974C301.766 431.333 301.506 430.83 300.986 430.466C300.484 430.085 299.808 429.894 298.958 429.894C298.144 429.894 297.416 430.067 296.774 430.414C296.15 430.743 295.622 431.211 295.188 431.818L292.042 429.972C292.77 428.863 293.75 428.005 294.98 427.398C296.228 426.791 297.702 426.488 299.4 426.488C301.394 426.488 302.988 426.913 304.184 427.762C305.398 428.611 306.004 429.79 306.004 431.298C306.004 432.009 305.883 432.633 305.64 433.17C305.415 433.707 305.129 434.167 304.782 434.548C304.453 434.912 304.02 435.337 303.482 435.822C302.841 436.394 302.373 436.879 302.078 437.278C301.784 437.659 301.636 438.127 301.636 438.682H297.71ZM299.686 445.208C298.976 445.208 298.378 444.983 297.892 444.532C297.424 444.064 297.19 443.501 297.19 442.842C297.19 442.183 297.424 441.637 297.892 441.204C298.36 440.753 298.958 440.528 299.686 440.528C300.414 440.528 301.012 440.753 301.48 441.204C301.948 441.637 302.182 442.183 302.182 442.842C302.182 443.501 301.94 444.064 301.454 444.532C300.986 444.983 300.397 445.208 299.686 445.208Z" fill="#414141"/>
<path d="M144.502 48.6697C146.343 48.6697 147.835 47.1764 147.835 45.3349C147.835 43.4928 146.343 42 144.502 42C142.66 42 141.167 43.4928 141.167 45.3349C141.167 47.1764 142.66 48.6697 144.502 48.6697Z" fill="#15854F"/>
<path d="M153.382 60.0989L149.666 51.5751C149.291 50.7157 148.503 50.1453 147.599 49.9918C147.462 49.9557 141.541 49.9552 141.4 49.993C140.497 50.147 139.71 50.7173 139.336 51.5757L135.62 60.0984C135.397 60.6102 135.447 61.1995 135.752 61.6666C136.058 62.1339 136.579 62.4151 137.137 62.4151C137.796 62.4151 138.391 62.0252 138.654 61.4216L140.055 58.2099V75.0171C140.055 76.0146 140.864 76.823 141.861 76.823C142.859 76.823 143.668 76.0146 143.668 75.0171V63.68H145.335V75.0171C145.335 76.0146 146.144 76.823 147.141 76.823C148.138 76.823 148.946 76.0146 148.946 75.0176V58.2088L150.348 61.4223C150.611 62.0258 151.207 62.4157 151.865 62.4157C152.423 62.4157 152.944 62.1345 153.25 61.6674C153.555 61.2006 153.606 60.6108 153.382 60.0989Z" fill="#15854F"/>
<defs>
<clipPath id="clip0_1213_22">
<rect width="81" height="81" fill="white" transform="translate(403.5 21.5)"/>
</clipPath>
<clipPath id="clip1_1213_22">
<rect width="81" height="81" fill="white" transform="translate(404.5 281.5)"/>
</clipPath>
</defs>
</svg>
