<svg width="575" height="527" viewBox="0 0 575 527" fill="none" xmlns="http://www.w3.org/2000/svg">
<path d="M113.642 28.7435C109.353 24.1333 103.342 21.5102 97.0456 21.5005C90.7438 21.5078 84.7274 24.1295 80.4316 28.7406L78.9676 30.2876L77.5036 28.7406C68.9797 19.5666 54.6325 19.0397 45.4587 27.5636C45.0521 27.9415 44.6595 28.3339 44.2817 28.7406C35.2394 38.4937 35.2394 53.5668 44.2817 63.3199L76.8161 97.6295C77.9417 98.8178 79.8174 98.8687 81.0057 97.7431C81.0446 97.7063 81.0825 97.6684 81.1193 97.6295L113.642 63.3199C122.683 53.5678 122.683 38.4956 113.642 28.7435ZM109.353 59.239H109.351L78.9676 91.2844L48.5819 59.239C41.6742 51.7867 41.6742 40.2708 48.5819 32.8185C54.855 26.0195 65.4522 25.5932 72.2512 31.8663C72.5813 32.1708 72.8989 32.4884 73.2035 32.8185L76.8161 36.6298C78.0066 37.8127 79.9288 37.8127 81.1193 36.6298L84.7319 32.8215C91.0049 26.0225 101.602 25.5962 108.401 31.8692C108.731 32.1738 109.049 32.4914 109.353 32.8215C116.321 40.2856 116.372 51.8225 109.353 59.239Z" fill="#15854F"/>
<g clip-path="url(#clip0_1237_22)">
<path d="M377.859 31.7927C378.739 31.7927 379.452 31.0794 379.452 30.1994V23.0933C379.452 22.2133 378.739 21.5 377.859 21.5C376.979 21.5 376.266 22.2133 376.266 23.0933V30.1994C376.266 31.0794 376.979 31.7927 377.859 31.7927Z" fill="#15854F"/>
<path d="M416.804 76.2359L413.99 73.4292C412.988 72.4292 411.654 71.8784 410.232 71.8784C409.323 71.8784 408.45 72.1046 407.677 72.5284L402.373 67.2308L402.631 66.9728C404.783 64.8168 404.782 61.3134 402.631 59.1647C401.862 58.3945 400.903 57.881 399.857 57.6649C400.001 57.168 400.077 56.6475 400.077 56.1148C400.077 54.6348 399.502 53.2471 398.462 52.2107C397.693 51.4406 396.734 50.927 395.688 50.7109C395.832 50.214 395.908 49.6937 395.908 49.1609C395.908 47.6807 395.333 46.2931 394.29 45.2551C393.503 44.4689 392.536 43.9712 391.519 43.7593C392.063 41.8851 391.599 39.7764 390.124 38.2994C388.897 37.0773 387.231 36.5521 385.626 36.7223L375.116 34.7329C373.513 34.4288 371.511 34.2278 370.248 35.3803C370.168 35.453 370.087 35.5367 370.007 35.6299C368.048 34.9158 365.763 35.341 364.194 36.9082C363.153 37.9477 362.579 39.3349 362.579 40.8141C362.579 41.3469 362.655 41.8672 362.799 42.3643C361.754 42.5802 360.796 43.0931 360.03 43.8607C358.987 44.8993 358.412 46.2849 358.411 47.7623C358.411 48.2964 358.486 48.8185 358.631 49.3169C357.586 49.5323 356.628 50.0443 355.859 50.8119C354.816 51.8536 354.242 53.2416 354.242 54.72C354.242 55.8524 354.58 56.9312 355.206 57.8424C354.415 58.1106 353.691 58.5569 353.084 59.1629C350.931 61.3134 350.93 64.817 353.086 66.9761L353.343 67.2324L348.038 72.5273C346.067 71.5991 343.638 71.9469 342.011 73.5716L339.195 76.38C338.193 77.3805 337.642 78.7151 337.642 80.1378C337.642 81.5607 338.193 82.8955 339.195 83.8961L342.71 87.4066C343.332 88.0285 344.341 88.0279 344.963 87.4054C345.585 86.7828 345.584 85.774 344.962 85.1522L341.447 81.6417C341.048 81.2432 340.828 80.7091 340.828 80.138C340.828 79.567 341.048 79.0331 341.446 78.6355L344.262 75.8269C344.966 75.124 346.043 75.0193 346.861 75.5083C346.919 75.5949 346.985 75.6771 347.061 75.7535C347.198 75.8904 347.354 75.9953 347.519 76.072L363.671 92.1997C363.747 92.3669 363.853 92.5243 363.99 92.662C364.124 92.796 364.277 92.8996 364.439 92.9758C364.78 93.362 364.969 93.8553 364.969 94.3815C364.969 94.9526 364.749 95.4865 364.35 95.885L361.537 98.6954C360.705 99.5231 359.353 99.5229 358.524 98.6979L355.009 95.1828C354.387 94.5606 353.379 94.5606 352.756 95.1828C352.134 95.805 352.134 96.8137 352.756 97.4359L356.274 100.954C357.309 101.985 358.669 102.5 360.029 102.5C361.389 102.5 362.75 101.984 363.787 100.952L366.602 98.1398C367.604 97.1391 368.156 95.8045 368.156 94.3815C368.156 93.366 367.873 92.3962 367.348 91.5599L373.318 85.5973C373.325 85.5908 373.331 85.5843 373.337 85.5778C374.021 84.8711 375.925 85.0034 377.766 85.1312C379.074 85.2222 380.532 85.3232 381.957 85.159L388.494 91.6889C388.071 92.4611 387.845 93.3328 387.845 94.2405C387.845 95.662 388.396 96.9958 389.398 97.9964L392.214 100.808C393.215 101.808 394.549 102.359 395.971 102.359C397.393 102.359 398.727 101.809 399.729 100.808L416.805 83.7526C417.807 82.7521 418.359 81.4175 418.359 79.9946C418.359 78.5719 417.807 77.2373 416.804 76.2359V76.2359ZM374.523 37.8637L381.434 39.1719L377.297 43.3072C376.657 42.9996 375.78 42.426 374.818 41.5056C373.501 40.2456 372.559 38.791 372.473 37.8837C372.473 37.8832 372.473 37.8827 372.473 37.8822C372.473 37.8821 372.473 37.8819 372.473 37.8818C372.467 37.8166 372.465 37.7645 372.466 37.7248C372.674 37.6742 373.228 37.618 374.523 37.8637ZM366.445 39.1627C367.252 38.3564 368.506 38.2634 369.418 38.881C369.935 41.048 371.784 43.0121 372.616 43.8079C373.232 44.3977 375.21 46.1659 377.206 46.6519C377.476 47.039 377.623 47.5005 377.623 47.9875C377.623 48.6147 377.382 49.2012 376.942 49.6404C376.504 50.0795 375.916 50.3213 375.288 50.3213C374.659 50.3213 374.072 50.0795 373.631 49.6383L373.631 49.6382L373.63 49.6374L366.445 42.4651C366.007 42.0276 365.766 41.4412 365.766 40.8141C365.766 40.1868 366.007 39.6003 366.445 39.1627V39.1627ZM362.282 46.1153C362.72 45.6763 363.307 45.4344 363.935 45.4344C364.563 45.4344 365.152 45.6768 365.593 46.1175L371.379 51.8918C372.29 52.8043 372.29 54.2892 371.382 55.1985C370.941 55.6375 370.352 55.8793 369.722 55.8793C369.093 55.8793 368.503 55.6375 368.064 55.2004L368.064 55.2003L363.675 50.8119C363.668 50.8051 363.66 50.7987 363.654 50.7918L362.28 49.4192C361.84 48.9791 361.597 48.3915 361.598 47.7647C361.598 47.14 361.84 46.5554 362.282 46.1153V46.1153ZM358.111 53.0664C358.55 52.6284 359.138 52.3871 359.767 52.3871C360.391 52.3871 360.974 52.6249 361.411 53.0553L365.814 57.4561C366.253 57.8934 366.495 58.4792 366.495 59.1057C366.495 59.732 366.253 60.3178 365.812 60.7568C365.373 61.1947 364.786 61.436 364.158 61.436C363.529 61.436 362.939 61.1941 362.5 60.7568L360.904 59.1626C360.904 59.1621 360.903 59.1618 360.903 59.1615L358.111 56.373C357.671 55.9334 357.429 55.3461 357.429 54.7196C357.429 54.0933 357.671 53.5059 358.111 53.0664V53.0664ZM355.336 61.4173C355.777 60.9772 356.365 60.7348 356.994 60.7348C357.622 60.7348 358.211 60.9771 358.651 61.4169L360.25 63.0133C360.689 63.4506 360.931 64.0364 360.931 64.6629C360.931 65.2894 360.689 65.875 360.246 66.3158C359.808 66.7548 359.221 66.9967 358.592 66.9967C357.964 66.9967 357.376 66.7549 356.935 66.3126L356.735 66.1133C356.732 66.1106 356.73 66.1077 356.727 66.1052C356.724 66.1024 356.721 66.0998 356.718 66.097L355.338 64.7217C354.426 63.8087 354.426 62.3265 355.336 61.4173ZM387.805 79.5249C387.183 78.9023 386.174 78.9018 385.552 79.5235L384.134 80.9393C382.787 82.2862 380.346 82.1166 377.986 81.9529C375.423 81.7748 372.773 81.5909 371.058 83.3517L365.189 89.2131L350.514 74.5593L355.707 69.3751C356.566 69.9013 357.556 70.1834 358.593 70.1834C360.073 70.1834 361.462 69.6094 362.499 68.5705C363.543 67.5308 364.118 66.1432 364.118 64.663C364.118 64.6493 364.117 64.6357 364.117 64.6219C364.13 64.6221 364.144 64.6228 364.158 64.6228C365.637 64.6228 367.024 64.0506 368.062 63.0134C369.106 61.9737 369.681 60.586 369.681 59.106C369.681 59.0922 369.68 59.0786 369.68 59.0649C369.694 59.0649 369.708 59.0658 369.722 59.0658C371.2 59.0658 372.589 58.4942 373.634 57.4531C374.719 56.3661 375.256 54.935 375.246 53.5069C375.26 53.507 375.274 53.5078 375.288 53.5078C376.769 53.5077 378.157 52.9338 379.196 51.8933C380.237 50.8538 380.81 49.4667 380.81 47.9875C380.81 46.953 380.529 45.9641 380.004 45.1074L384.556 40.5573C384.895 40.2195 385.314 40.0075 385.752 39.9201C385.8 39.915 385.846 39.9074 385.893 39.8982C386.596 39.8012 387.335 40.0183 387.873 40.554C388.784 41.4667 388.784 42.9515 387.876 43.8609L386.49 45.2415C386.485 45.2461 386.48 45.2502 386.476 45.2548L384.879 46.8489C384.256 47.4706 384.256 48.4795 384.877 49.102C385.499 49.7247 386.508 49.7252 387.131 49.1034L388.522 47.7135C388.523 47.7131 388.523 47.7128 388.523 47.7125L388.734 47.5029C389.647 46.5977 391.128 46.5996 392.04 47.511C392.479 47.9482 392.721 48.5341 392.721 49.1605C392.721 49.7869 392.479 50.3727 392.037 50.8135L390.642 52.2105C390.642 52.2107 390.642 52.2109 390.642 52.2112L389.045 53.8013C388.422 54.4222 388.42 55.4311 389.041 56.0544C389.662 56.6779 390.67 56.6798 391.294 56.059L392.898 54.4616C393.336 54.0224 393.924 53.7807 394.552 53.7807C395.181 53.7807 395.768 54.0224 396.21 54.4648C396.649 54.9022 396.891 55.488 396.891 56.1145C396.891 56.7408 396.649 57.3267 396.207 57.7665L393.427 60.5472C392.805 61.1696 392.806 62.1783 393.428 62.8003C393.739 63.1114 394.147 63.2667 394.554 63.2667C394.962 63.2667 395.37 63.1111 395.681 62.7999L397.043 61.4371C397.051 61.4297 397.059 61.4232 397.067 61.4154C397.505 60.9763 398.093 60.7345 398.721 60.7345C399.35 60.7345 399.937 60.9763 400.377 61.417C401.287 62.3262 401.287 63.8086 400.377 64.7195L398.992 66.103C398.992 66.1035 398.991 66.1039 398.991 66.1044C398.99 66.1049 398.99 66.1055 398.989 66.106L396.791 68.3017C396.168 68.9236 396.168 69.9325 396.789 70.555C397.1 70.8665 397.509 71.0223 397.917 71.0223C398.324 71.0223 398.732 70.867 399.043 70.5564L400.118 69.4824L405.272 74.6301L390.598 89.2864L385.34 84.035C385.706 83.7993 386.057 83.5221 386.386 83.1929L387.803 81.7779C388.426 81.1563 388.427 80.1475 387.805 79.5249V79.5249ZM414.553 81.4981L397.477 98.5539C397.077 98.9529 396.543 99.1727 395.971 99.1727C395.4 99.1727 394.865 98.9529 394.465 98.5538L391.65 95.7417C391.251 95.3434 391.031 94.8102 391.031 94.2405C391.031 93.671 391.251 93.1378 391.65 92.7393L408.726 75.6835C409.126 75.2843 409.661 75.0646 410.232 75.0646C410.804 75.0646 411.338 75.2843 411.739 75.6844L414.553 78.4911C414.952 78.8896 415.172 79.4234 415.172 79.9945C415.172 80.5658 414.952 81.0997 414.553 81.4981V81.4981Z" fill="#15854F"/>
<path d="M356.702 30.4495C357.013 30.7599 357.42 30.915 357.828 30.915C358.236 30.915 358.644 30.759 358.955 30.4472C359.577 29.8243 359.576 28.8156 358.953 28.194L353.147 22.3998C352.525 21.7783 351.516 21.7791 350.894 22.4021C350.273 23.0249 350.274 24.0336 350.896 24.6552L356.702 30.4495Z" fill="#15854F"/>
<path d="M397.89 30.915C398.297 30.915 398.705 30.7596 399.016 30.4491L404.817 24.6547C405.439 24.033 405.44 23.0241 404.818 22.4016C404.196 21.7791 403.188 21.7784 402.565 22.4003L396.764 28.1947C396.141 28.8164 396.141 29.8253 396.762 30.4478C397.074 30.7593 397.482 30.915 397.89 30.915Z" fill="#15854F"/>
<path d="M347.438 90.0342C346.821 90.6617 346.83 91.6705 347.457 92.2874L347.462 92.2918C347.772 92.5962 348.174 92.7477 348.575 92.7477C348.988 92.7477 349.4 92.5881 349.713 92.2703C350.33 91.6429 350.319 90.6318 349.691 90.0149C349.064 89.3981 348.055 89.4068 347.438 90.0342V90.0342Z" fill="#15854F"/>
<path d="M391.701 77.2298C391.944 77.2298 392.19 77.1745 392.42 77.0583C393.206 76.662 393.522 75.7039 393.125 74.9182C392.729 74.1326 391.771 73.8168 390.985 74.2131L390.977 74.2176C390.191 74.6139 389.88 75.5697 390.276 76.3554C390.556 76.9103 391.118 77.2298 391.701 77.2298V77.2298Z" fill="#15854F"/>
</g>
<g clip-path="url(#clip1_1237_22)">
<path d="M417.93 297.778C417.925 297.778 417.919 297.778 417.914 297.778H412.592V295.957C412.62 295.236 412.154 294.588 411.461 294.387C407.766 293.419 403.961 292.933 400.141 292.943C393.861 292.943 385.304 294.356 378.976 300.793C372.696 294.293 364.076 292.943 357.812 292.943C353.992 292.933 350.187 293.419 346.492 294.387C345.799 294.588 345.333 295.236 345.361 295.957V297.763H340.07C339.203 297.763 338.5 298.466 338.5 299.333V349.481C338.5 350.348 339.203 351.051 340.07 351.051C340.34 351.05 340.605 350.98 340.839 350.847C340.996 350.768 356.697 342.18 378.615 347.707H378.851H378.992C379.117 347.722 379.244 347.722 379.369 347.707C401.35 342.133 417.051 350.706 417.145 350.847C417.631 351.127 418.229 351.127 418.715 350.847C419.198 350.568 419.497 350.054 419.5 349.497V299.349C419.5 298.481 418.797 297.778 417.93 297.778ZM341.64 346.984V300.919H345.393V340.296C345.383 341.163 346.078 341.874 346.945 341.884C347.03 341.885 347.114 341.879 347.198 341.866C350.446 341.37 353.726 341.108 357.011 341.081C361.562 341.002 366.095 341.687 370.42 343.106C360.653 341.925 350.746 343.26 341.64 346.984ZM357.011 337.957C354.155 337.963 351.303 338.147 348.47 338.506V297.198C351.527 296.517 354.649 296.169 357.78 296.161C363.653 296.161 371.754 297.512 377.375 303.855L377.422 342.965C374.156 340.83 367.782 337.957 357.011 337.957ZM380.562 303.855C386.183 297.574 394.285 296.161 400.157 296.161C403.288 296.171 406.41 296.518 409.467 297.198V338.506C406.65 338.143 403.813 337.954 400.973 337.941C390.265 337.941 383.875 340.814 380.562 342.949V303.855V303.855ZM416.344 346.984C407.219 343.25 397.289 341.915 387.502 343.106C391.847 341.682 396.401 340.997 400.973 341.081C404.279 341.099 407.58 341.357 410.849 341.85C411.706 341.98 412.507 341.391 412.637 340.534C412.65 340.45 412.655 340.365 412.654 340.28V300.919H416.407L416.344 346.984Z" fill="#15854F"/>
</g>
<path d="M283 2C260 203 318.5 317.5 283 525" stroke="#A5A5A5" stroke-width="3" stroke-linecap="round"/>
<path d="M573 254C347.5 287.5 234 221 2 254" stroke="#A5A5A5" stroke-width="3" stroke-linecap="round"/>
<path d="M72.5 286C50.1669 286 32 304.169 32 326.5C32 348.831 50.1669 367 72.5 367C94.8331 367 113 348.831 113 326.5C113 304.169 94.8331 286 72.5 286ZM72.5 363.625C52.0291 363.625 35.3749 346.971 35.3749 326.5C35.3749 306.029 52.0291 289.375 72.5 289.375C92.9709 289.375 109.625 306.029 109.625 326.5C109.625 346.971 92.9709 363.625 72.5 363.625Z" fill="#15854F"/>
<path d="M72.4929 333.245C62.925 333.245 54.3622 338.952 50.6774 347.785C50.3214 348.645 50.7269 349.632 51.587 349.991C52.4341 350.352 53.4361 349.944 53.7952 349.083C56.9495 341.513 64.2893 336.62 72.4929 336.62C80.6964 336.62 88.0397 341.513 91.1938 349.087C91.464 349.734 92.0937 350.125 92.7528 350.125C92.9703 350.125 93.1911 350.084 93.402 349.995C94.2623 349.637 94.6676 348.648 94.3117 347.788C90.627 338.954 82.0642 333.245 72.4929 333.245Z" fill="#15854F"/>
<path d="M59.0004 319.75C60.8644 319.75 62.3754 318.239 62.3754 316.375C62.3754 314.511 60.8644 313 59.0004 313C57.1365 313 55.6255 314.511 55.6255 316.375C55.6255 318.239 57.1365 319.75 59.0004 319.75Z" fill="#15854F"/>
<path d="M85.9999 319.75C87.8639 319.75 89.3749 318.239 89.3749 316.375C89.3749 314.511 87.8639 313 85.9999 313C84.136 313 82.625 314.511 82.625 316.375C82.625 318.239 84.136 319.75 85.9999 319.75Z" fill="#15854F"/>
<path d="M89.6681 320.479C88.564 322.079 85.9932 326.03 85.9932 328.188C85.9932 330.979 88.264 333.25 91.0557 333.25C93.8473 333.25 96.1182 330.979 96.1182 328.188C96.1182 326.03 93.5474 322.079 92.4433 320.479C91.8169 319.566 90.2942 319.566 89.6681 320.479ZM91.0557 329.875C90.1262 329.875 89.3681 329.119 89.3681 328.189C89.3812 327.673 90.0833 326.203 91.0557 324.565C92.028 326.2 92.7268 327.67 92.7432 328.188C92.7431 329.119 91.9851 329.875 91.0557 329.875Z" fill="#15854F"/>
<path d="M78.5019 48.6697C80.3428 48.6697 81.8355 47.1764 81.8355 45.3349C81.8354 43.4928 80.3428 42 78.5019 42C76.6604 42 75.167 43.4928 75.167 45.3349C75.1669 47.1764 76.6603 48.6697 78.5019 48.6697Z" fill="#15854F"/>
<path d="M87.3825 60.0989L83.6657 51.5751C83.2912 50.7157 82.5028 50.1453 81.5986 49.9918C81.4618 49.9557 75.541 49.9552 75.3995 49.993C74.4965 50.147 73.7098 50.7173 73.3359 51.5757L69.6196 60.0984C69.3968 60.6102 69.4467 61.1995 69.7525 61.6666C70.0582 62.1339 70.5787 62.4151 71.137 62.4151C71.7956 62.4151 72.391 62.0252 72.6545 61.4216L74.055 58.2099V75.0171C74.055 76.0146 74.8635 76.823 75.861 76.823C76.8591 76.823 77.6676 76.0146 77.6676 75.0171V63.68H79.3351V75.0171C79.3351 76.0146 80.1436 76.823 81.141 76.823C82.1379 76.823 82.9465 76.0146 82.9465 75.0176V58.2088L84.3477 61.4223C84.611 62.0258 85.2065 62.4157 85.8651 62.4157C86.4233 62.4157 86.9439 62.1345 87.2496 61.6674C87.5555 61.2006 87.6057 60.6108 87.3825 60.0989Z" fill="#15854F"/>
<defs>
<clipPath id="clip0_1237_22">
<rect width="81" height="81" fill="white" transform="translate(337.5 21.5)"/>
</clipPath>
<clipPath id="clip1_1237_22">
<rect width="81" height="81" fill="white" transform="translate(338.5 281.5)"/>
</clipPath>
</defs>
</svg>
