<svg width="398" height="353" viewBox="0 0 398 353" fill="none" xmlns="http://www.w3.org/2000/svg">
<path d="M187.84 2C171.863 136.128 212.501 212.534 187.84 351" stroke="#A5A5A5" stroke-width="3" stroke-linecap="round"/>
<path d="M378 169.909C230.299 194.339 155.958 145.843 3.99999 169.909" stroke="#A5A5A5" stroke-width="3" stroke-linecap="round"/>
<path d="M19.728 149.736H18.528V153H16.064V149.736H14.864L13.04 153H10.096L12.8 148.552L10.288 144.392H12.928L14.832 147.736H16.064V144.392H18.528V147.736H19.744L21.664 144.392H24.304L21.792 148.552L24.512 153H21.552L19.728 149.736ZM25.8094 144.392H28.2894V149.512L32.4814 144.392H34.7694V153H32.2894V147.88L28.1134 153H25.8094V144.392ZM42.6746 148.52C43.1866 148.68 43.5813 148.925 43.8586 149.256C44.1466 149.587 44.2906 149.981 44.2906 150.44C44.2906 150.984 44.104 151.464 43.7306 151.88C43.3573 152.285 42.8453 152.6 42.1946 152.824C41.544 153.048 40.808 153.16 39.9866 153.16C39.3146 153.16 38.6533 153.091 38.0026 152.952C37.352 152.813 36.7493 152.605 36.1946 152.328L36.8666 150.584C37.7733 151.021 38.776 151.24 39.8746 151.24C40.4613 151.24 40.92 151.155 41.2506 150.984C41.592 150.803 41.7626 150.552 41.7626 150.232C41.7626 149.955 41.6453 149.747 41.4106 149.608C41.176 149.459 40.8346 149.384 40.3866 149.384H38.6266V147.832H40.1626C40.6 147.832 40.936 147.763 41.1706 147.624C41.4053 147.485 41.5226 147.283 41.5226 147.016C41.5226 146.739 41.3733 146.525 41.0746 146.376C40.7866 146.227 40.3706 146.152 39.8266 146.152C38.9946 146.152 38.088 146.349 37.1066 146.744L36.4986 145.016C37.6933 144.493 38.856 144.232 39.9866 144.232C40.7653 144.232 41.4586 144.328 42.0666 144.52C42.6853 144.712 43.1706 144.995 43.5226 145.368C43.8746 145.731 44.0506 146.157 44.0506 146.648C44.0506 147.053 43.928 147.421 43.6826 147.752C43.4373 148.072 43.1013 148.328 42.6746 148.52ZM46.1063 144.392H48.5863V147.752H52.3303V144.392H54.8263V153H52.3303V149.784H48.5863V153H46.1063V144.392ZM61.8716 147.144C62.9916 147.155 63.8503 147.411 64.4476 147.912C65.045 148.403 65.3436 149.101 65.3436 150.008C65.3436 150.957 65.0076 151.699 64.3356 152.232C63.6743 152.755 62.741 153.016 61.5356 153.016L57.2156 153V144.392H59.6956V147.144H61.8716ZM61.3116 151.24C61.7916 151.251 62.1596 151.149 62.4156 150.936C62.6716 150.723 62.7996 150.403 62.7996 149.976C62.7996 149.56 62.6716 149.256 62.4156 149.064C62.1703 148.872 61.8023 148.771 61.3116 148.76L59.6956 148.744V151.24H61.3116ZM79.9944 144.392V153H77.4984V146.44H73.9144V153H71.4344V144.392H79.9944ZM86.4195 153.128C85.5128 153.128 84.6968 152.941 83.9715 152.568C83.2568 152.184 82.6968 151.656 82.2915 150.984C81.8862 150.312 81.6835 149.549 81.6835 148.696C81.6835 147.843 81.8862 147.08 82.2915 146.408C82.6968 145.736 83.2568 145.213 83.9715 144.84C84.6968 144.456 85.5128 144.264 86.4195 144.264C87.3262 144.264 88.1368 144.456 88.8515 144.84C89.5662 145.213 90.1262 145.736 90.5315 146.408C90.9368 147.08 91.1395 147.843 91.1395 148.696C91.1395 149.549 90.9368 150.312 90.5315 150.984C90.1262 151.656 89.5662 152.184 88.8515 152.568C88.1368 152.941 87.3262 153.128 86.4195 153.128ZM86.4195 151.08C87.0595 151.08 87.5822 150.867 87.9875 150.44C88.4035 150.003 88.6115 149.421 88.6115 148.696C88.6115 147.971 88.4035 147.395 87.9875 146.968C87.5822 146.531 87.0595 146.312 86.4195 146.312C85.7795 146.312 85.2515 146.531 84.8355 146.968C84.4195 147.395 84.2115 147.971 84.2115 148.696C84.2115 149.421 84.4195 150.003 84.8355 150.44C85.2515 150.867 85.7795 151.08 86.4195 151.08ZM102.379 150.952V154.856H100.059V153H94.0113V154.856H91.6913V150.952H92.0433C92.5766 150.941 92.9446 150.627 93.1473 150.008C93.3499 149.389 93.4779 148.509 93.5312 147.368L93.6432 144.392H101.147V150.952H102.379ZM95.7873 147.544C95.7553 148.419 95.6859 149.133 95.5793 149.688C95.4833 150.243 95.2966 150.664 95.0193 150.952H98.6513V146.44H95.8353L95.7873 147.544ZM109.022 144.264C109.822 144.264 110.547 144.451 111.198 144.824C111.859 145.187 112.377 145.704 112.75 146.376C113.123 147.037 113.31 147.811 113.31 148.696C113.31 149.581 113.123 150.36 112.75 151.032C112.377 151.693 111.859 152.211 111.198 152.584C110.547 152.947 109.822 153.128 109.022 153.128C107.923 153.128 107.059 152.781 106.43 152.088V156.104H103.934V144.392H106.318V145.384C106.937 144.637 107.838 144.264 109.022 144.264ZM108.59 151.08C109.23 151.08 109.753 150.867 110.158 150.44C110.574 150.003 110.782 149.421 110.782 148.696C110.782 147.971 110.574 147.395 110.158 146.968C109.753 146.531 109.23 146.312 108.59 146.312C107.95 146.312 107.422 146.531 107.006 146.968C106.601 147.395 106.398 147.971 106.398 148.696C106.398 149.421 106.601 150.003 107.006 150.44C107.422 150.867 107.95 151.08 108.59 151.08ZM119.091 153.128C118.185 153.128 117.369 152.941 116.643 152.568C115.929 152.184 115.369 151.656 114.963 150.984C114.558 150.312 114.355 149.549 114.355 148.696C114.355 147.843 114.558 147.08 114.963 146.408C115.369 145.736 115.929 145.213 116.643 144.84C117.369 144.456 118.185 144.264 119.091 144.264C119.998 144.264 120.809 144.456 121.523 144.84C122.238 145.213 122.798 145.736 123.203 146.408C123.609 147.08 123.811 147.843 123.811 148.696C123.811 149.549 123.609 150.312 123.203 150.984C122.798 151.656 122.238 152.184 121.523 152.568C120.809 152.941 119.998 153.128 119.091 153.128ZM119.091 151.08C119.731 151.08 120.254 150.867 120.659 150.44C121.075 150.003 121.283 149.421 121.283 148.696C121.283 147.971 121.075 147.395 120.659 146.968C120.254 146.531 119.731 146.312 119.091 146.312C118.451 146.312 117.923 146.531 117.507 146.968C117.091 147.395 116.883 147.971 116.883 148.696C116.883 149.421 117.091 150.003 117.507 150.44C117.923 150.867 118.451 151.08 119.091 151.08ZM129.624 153.128C128.707 153.128 127.88 152.941 127.144 152.568C126.419 152.184 125.848 151.656 125.432 150.984C125.027 150.312 124.824 149.549 124.824 148.696C124.824 147.843 125.027 147.08 125.432 146.408C125.848 145.736 126.419 145.213 127.144 144.84C127.88 144.456 128.707 144.264 129.624 144.264C130.531 144.264 131.32 144.456 131.992 144.84C132.675 145.213 133.171 145.752 133.48 146.456L131.544 147.496C131.096 146.707 130.451 146.312 129.608 146.312C128.957 146.312 128.419 146.525 127.992 146.952C127.565 147.379 127.352 147.96 127.352 148.696C127.352 149.432 127.565 150.013 127.992 150.44C128.419 150.867 128.957 151.08 129.608 151.08C130.461 151.08 131.107 150.685 131.544 149.896L133.48 150.952C133.171 151.635 132.675 152.168 131.992 152.552C131.32 152.936 130.531 153.128 129.624 153.128ZM142.198 146.44H139.286V153H136.806V146.44H133.894V144.392H142.198V146.44ZM147.32 149.736H146.024V153H143.528V144.392H146.024V147.736H147.368L149.704 144.392H152.36L149.352 148.52L152.568 153H149.624L147.32 149.736ZM157.56 153.128C156.653 153.128 155.837 152.941 155.112 152.568C154.397 152.184 153.837 151.656 153.432 150.984C153.027 150.312 152.824 149.549 152.824 148.696C152.824 147.843 153.027 147.08 153.432 146.408C153.837 145.736 154.397 145.213 155.112 144.84C155.837 144.456 156.653 144.264 157.56 144.264C158.467 144.264 159.277 144.456 159.992 144.84C160.707 145.213 161.267 145.736 161.672 146.408C162.077 147.08 162.28 147.843 162.28 148.696C162.28 149.549 162.077 150.312 161.672 150.984C161.267 151.656 160.707 152.184 159.992 152.568C159.277 152.941 158.467 153.128 157.56 153.128ZM157.56 151.08C158.2 151.08 158.723 150.867 159.128 150.44C159.544 150.003 159.752 149.421 159.752 148.696C159.752 147.971 159.544 147.395 159.128 146.968C158.723 146.531 158.2 146.312 157.56 146.312C156.92 146.312 156.392 146.531 155.976 146.968C155.56 147.395 155.352 147.971 155.352 148.696C155.352 149.421 155.56 150.003 155.976 150.44C156.392 150.867 156.92 151.08 157.56 151.08ZM170.573 148.504C171.586 148.845 172.093 149.528 172.093 150.552C172.093 151.331 171.8 151.933 171.213 152.36C170.626 152.787 169.752 153 168.589 153H163.997V144.392H168.397C169.474 144.392 170.317 144.589 170.925 144.984C171.533 145.368 171.837 145.912 171.837 146.616C171.837 147.043 171.725 147.421 171.501 147.752C171.288 148.072 170.978 148.323 170.573 148.504ZM166.285 147.928H168.173C169.048 147.928 169.485 147.619 169.485 147C169.485 146.392 169.048 146.088 168.173 146.088H166.285V147.928ZM168.381 151.304C169.298 151.304 169.757 150.989 169.757 150.36C169.757 150.029 169.65 149.789 169.437 149.64C169.224 149.48 168.888 149.4 168.429 149.4H166.285V151.304H168.381Z" fill="#414141"/>
<path d="M51.3599 82.192C50.2185 82.192 49.1839 81.9467 48.2559 81.456C47.3385 80.9547 46.6132 80.2667 46.0799 79.392C45.5572 78.5067 45.2959 77.5093 45.2959 76.4C45.2959 75.2907 45.5572 74.2987 46.0799 73.424C46.6132 72.5387 47.3385 71.8507 48.2559 71.36C49.1839 70.8587 50.2239 70.608 51.3759 70.608C52.3465 70.608 53.2212 70.7787 53.9999 71.12C54.7892 71.4613 55.4505 71.952 55.9839 72.592L54.3199 74.128C53.5625 73.2533 52.6239 72.816 51.5039 72.816C50.8105 72.816 50.1919 72.9707 49.6479 73.28C49.1039 73.5787 48.6772 74 48.3679 74.544C48.0692 75.088 47.9199 75.7067 47.9199 76.4C47.9199 77.0933 48.0692 77.712 48.3679 78.256C48.6772 78.8 49.1039 79.2267 49.6479 79.536C50.1919 79.8347 50.8105 79.984 51.5039 79.984C52.6239 79.984 53.5625 79.5413 54.3199 78.656L55.9839 80.192C55.4505 80.8427 54.7892 81.3387 53.9999 81.68C53.2105 82.0213 52.3305 82.192 51.3599 82.192ZM61.2164 82.128C60.3097 82.128 59.4937 81.9413 58.7684 81.568C58.0537 81.184 57.4937 80.656 57.0884 79.984C56.683 79.312 56.4804 78.5493 56.4804 77.696C56.4804 76.8427 56.683 76.08 57.0884 75.408C57.4937 74.736 58.0537 74.2133 58.7684 73.84C59.4937 73.456 60.3097 73.264 61.2164 73.264C62.123 73.264 62.9337 73.456 63.6484 73.84C64.363 74.2133 64.923 74.736 65.3284 75.408C65.7337 76.08 65.9364 76.8427 65.9364 77.696C65.9364 78.5493 65.7337 79.312 65.3284 79.984C64.923 80.656 64.363 81.184 63.6484 81.568C62.9337 81.9413 62.123 82.128 61.2164 82.128ZM61.2164 80.08C61.8564 80.08 62.379 79.8667 62.7844 79.44C63.2004 79.0027 63.4084 78.4213 63.4084 77.696C63.4084 76.9707 63.2004 76.3947 62.7844 75.968C62.379 75.5307 61.8564 75.312 61.2164 75.312C60.5764 75.312 60.0484 75.5307 59.6324 75.968C59.2164 76.3947 59.0084 76.9707 59.0084 77.696C59.0084 78.4213 59.2164 79.0027 59.6324 79.44C60.0484 79.8667 60.5764 80.08 61.2164 80.08ZM72.7955 82L70.9075 79.36L68.9555 82H66.2355L69.5475 77.664L66.3475 73.392H69.1475L70.9715 75.904L72.8435 73.392H75.4995L72.2995 77.6L75.6275 82H72.7955ZM81.9283 73.264C82.7283 73.264 83.4536 73.4507 84.1042 73.824C84.7656 74.1867 85.2829 74.704 85.6562 75.376C86.0296 76.0373 86.2163 76.8107 86.2163 77.696C86.2163 78.5813 86.0296 79.36 85.6562 80.032C85.2829 80.6933 84.7656 81.2107 84.1042 81.584C83.4536 81.9467 82.7283 82.128 81.9283 82.128C80.8296 82.128 79.9656 81.7813 79.3363 81.088V85.104H76.8403V73.392H79.2243V74.384C79.8429 73.6373 80.7443 73.264 81.9283 73.264ZM81.4963 80.08C82.1363 80.08 82.6589 79.8667 83.0643 79.44C83.4803 79.0027 83.6883 78.4213 83.6883 77.696C83.6883 76.9707 83.4803 76.3947 83.0643 75.968C82.6589 75.5307 82.1363 75.312 81.4963 75.312C80.8563 75.312 80.3283 75.5307 79.9123 75.968C79.5069 76.3947 79.3043 76.9707 79.3043 77.696C79.3043 78.4213 79.5069 79.0027 79.9123 79.44C80.3283 79.8667 80.8563 80.08 81.4963 80.08ZM91.169 73.264C92.5023 73.264 93.5263 73.584 94.241 74.224C94.9557 74.8533 95.313 75.808 95.313 77.088V82H92.977V80.928C92.5077 81.728 91.633 82.128 90.353 82.128C89.6917 82.128 89.1157 82.016 88.625 81.792C88.145 81.568 87.777 81.2587 87.521 80.864C87.265 80.4693 87.137 80.0213 87.137 79.52C87.137 78.72 87.4357 78.0907 88.033 77.632C88.641 77.1733 89.5743 76.944 90.833 76.944H92.817C92.817 76.4 92.6517 75.984 92.321 75.696C91.9903 75.3973 91.4943 75.248 90.833 75.248C90.3743 75.248 89.921 75.3227 89.473 75.472C89.0357 75.6107 88.6623 75.8027 88.353 76.048L87.457 74.304C87.9263 73.9733 88.4863 73.7173 89.137 73.536C89.7983 73.3547 90.4757 73.264 91.169 73.264ZM90.977 80.448C91.4037 80.448 91.7823 80.352 92.113 80.16C92.4437 79.9573 92.6783 79.664 92.817 79.28V78.4H91.105C90.081 78.4 89.569 78.736 89.569 79.408C89.569 79.728 89.6917 79.984 89.937 80.176C90.193 80.3573 90.5397 80.448 90.977 80.448ZM97.4813 73.392H99.9613V76.752H103.705V73.392H106.201V82H103.705V78.784H99.9613V82H97.4813V73.392ZM108.591 73.392H111.071V78.512L115.263 73.392H117.551V82H115.071V76.88L110.895 82H108.591V73.392ZM128.35 82V76.848L125.774 81.168H124.718L122.206 76.832V82H119.95V73.392H122.558L125.31 78.368L128.238 73.392H130.574L130.606 82H128.35ZM52.1297 123.392H54.6097V128.512L58.8017 123.392H61.0897V132H58.6097V126.88L54.4337 132H52.1297V123.392ZM68.9949 127.52C69.5069 127.68 69.9016 127.925 70.1789 128.256C70.4669 128.587 70.6109 128.981 70.6109 129.44C70.6109 129.984 70.4243 130.464 70.0509 130.88C69.6776 131.285 69.1656 131.6 68.5149 131.824C67.8643 132.048 67.1283 132.16 66.3069 132.16C65.6349 132.16 64.9736 132.091 64.3229 131.952C63.6723 131.813 63.0696 131.605 62.5149 131.328L63.1869 129.584C64.0936 130.021 65.0963 130.24 66.1949 130.24C66.7816 130.24 67.2403 130.155 67.5709 129.984C67.9123 129.803 68.0829 129.552 68.0829 129.232C68.0829 128.955 67.9656 128.747 67.7309 128.608C67.4963 128.459 67.1549 128.384 66.7069 128.384H64.9469V126.832H66.4829C66.9203 126.832 67.2563 126.763 67.4909 126.624C67.7256 126.485 67.8429 126.283 67.8429 126.016C67.8429 125.739 67.6936 125.525 67.3949 125.376C67.1069 125.227 66.6909 125.152 66.1469 125.152C65.3149 125.152 64.4083 125.349 63.4269 125.744L62.8189 124.016C64.0136 123.493 65.1763 123.232 66.3069 123.232C67.0856 123.232 67.7789 123.328 68.3869 123.52C69.0056 123.712 69.4909 123.995 69.8429 124.368C70.1949 124.731 70.3709 125.157 70.3709 125.648C70.3709 126.053 70.2483 126.421 70.0029 126.752C69.7576 127.072 69.4216 127.328 68.9949 127.52ZM80.8266 132V126.848L78.2506 131.168H77.1946L74.6826 126.832V132H72.4266V123.392H75.0346L77.7866 128.368L80.7146 123.392H83.0506L83.0826 132H80.8266ZM93.8414 127.728C93.8414 127.76 93.8254 127.984 93.7934 128.4H87.2814C87.3988 128.933 87.6761 129.355 88.1134 129.664C88.5508 129.973 89.0948 130.128 89.7454 130.128C90.1934 130.128 90.5881 130.064 90.9294 129.936C91.2814 129.797 91.6068 129.584 91.9054 129.296L93.2334 130.736C92.4228 131.664 91.2388 132.128 89.6814 132.128C88.7108 132.128 87.8521 131.941 87.1054 131.568C86.3588 131.184 85.7828 130.656 85.3774 129.984C84.9721 129.312 84.7694 128.549 84.7694 127.696C84.7694 126.853 84.9668 126.096 85.3614 125.424C85.7668 124.741 86.3161 124.213 87.0094 123.84C87.7134 123.456 88.4974 123.264 89.3614 123.264C90.2041 123.264 90.9668 123.445 91.6494 123.808C92.3321 124.171 92.8654 124.693 93.2494 125.376C93.6441 126.048 93.8414 126.832 93.8414 127.728ZM89.3774 125.152C88.8121 125.152 88.3374 125.312 87.9534 125.632C87.5694 125.952 87.3348 126.389 87.2494 126.944H91.4894C91.4041 126.4 91.1694 125.968 90.7854 125.648C90.4014 125.317 89.9321 125.152 89.3774 125.152ZM95.7547 123.392H98.2347V126.752H101.979V123.392H104.475V132H101.979V128.784H98.2347V132H95.7547V123.392ZM106.864 123.392H109.344V128.512L113.536 123.392H115.824V132H113.344V126.88L109.168 132H106.864V123.392ZM126.623 132V126.848L124.047 131.168H122.991L120.479 126.832V132H118.223V123.392H120.831L123.583 128.368L126.511 123.392H128.847L128.879 132H126.623Z" fill="#15854F"/>
<path d="M86.0203 101.392H88.5003V106.512L92.6923 101.392H94.9803V110H92.5003V104.88L88.3243 110H86.0203V101.392Z" fill="#414141"/>
<path d="M44.6719 83.6H131.79V84.4H44.6719V83.6Z" fill="#15854F"/>
<path d="M50.9297 133.6H130.063V134.4H50.9297V133.6Z" fill="#15854F"/>
<path d="M118.941 15.7395C115.542 12.0865 110.78 10.0081 105.791 10.0004C100.798 10.0062 96.0304 12.0835 92.6266 15.7371L91.4666 16.9629L90.3065 15.7371C83.5526 8.46802 72.1845 8.05057 64.9155 14.8045C64.5934 15.1039 64.2823 15.4149 63.9829 15.7371C56.8182 23.4651 56.8182 35.4084 63.9829 43.1363L89.7618 70.3219C90.6537 71.2634 92.14 71.3037 93.0815 70.4119C93.1123 70.3827 93.1423 70.3527 93.1715 70.3219L118.941 43.1363C126.105 35.4092 126.105 23.4666 118.941 15.7395ZM115.543 39.9028H115.541L91.4666 65.2943L67.3902 39.9028C61.9168 33.9979 61.9168 24.8732 67.3902 18.9683C72.3607 13.5811 80.7575 13.2433 86.1448 18.2138C86.4064 18.4551 86.658 18.7068 86.8994 18.9683L89.7618 21.9882C90.7051 22.9255 92.2281 22.9255 93.1715 21.9882L96.0339 18.9707C101.004 13.5834 109.401 13.2456 114.789 18.2161C115.05 18.4575 115.302 18.7091 115.543 18.9707C121.064 24.8849 121.105 34.0263 115.543 39.9028Z" fill="#15854F"/>
<path d="M91.0975 31.5275C92.5562 31.5275 93.7389 30.3443 93.7389 28.8852C93.7389 27.4255 92.5562 26.2427 91.0975 26.2427C89.6384 26.2427 88.4551 27.4255 88.4551 28.8851C88.455 30.3443 89.6383 31.5275 91.0975 31.5275Z" fill="#15854F"/>
<path d="M98.1348 40.5834L95.1898 33.8295C94.8931 33.1485 94.2683 32.6966 93.5519 32.5749C93.4435 32.5464 88.7521 32.5459 88.64 32.5759C87.9245 32.6979 87.3012 33.1498 87.0049 33.83L84.0603 40.583C83.8837 40.9885 83.9233 41.4555 84.1655 41.8256C84.4078 42.1958 84.8202 42.4186 85.2626 42.4186C85.7844 42.4186 86.2562 42.1097 86.465 41.6314L87.5747 39.0867V52.4039C87.5747 53.1943 88.2153 53.8349 89.0057 53.8349C89.7966 53.8349 90.4371 53.1943 90.4371 52.4039V43.4209H91.7584V52.4039C91.7584 53.1943 92.399 53.8349 93.1894 53.8349C93.9792 53.8349 94.6199 53.1943 94.6199 52.4044V39.0857L95.7302 41.632C95.9388 42.1102 96.4107 42.4191 96.9325 42.4191C97.3748 42.4191 97.7873 42.1963 98.0295 41.8262C98.2719 41.4563 98.3117 40.989 98.1348 40.5834Z" fill="#15854F"/>
<path d="M290.373 15.2761C291.166 15.2761 291.809 14.6332 291.809 13.8402V7.4359C291.809 6.64288 291.166 6 290.373 6C289.58 6 288.938 6.64288 288.938 7.4359V13.8402C288.938 14.6332 289.581 15.2761 290.373 15.2761Z" fill="#15854F"/>
<path d="M325.471 55.3299L322.934 52.8004C322.032 51.8992 320.829 51.4027 319.548 51.4027C318.729 51.4027 317.942 51.6066 317.245 51.9886L312.465 47.2142L312.698 46.9816C314.637 45.0386 314.636 41.8812 312.697 39.9447C312.005 39.2506 311.14 38.7878 310.198 38.5931C310.328 38.1452 310.396 37.6761 310.396 37.1961C310.396 35.8623 309.878 34.6116 308.94 33.6775C308.247 32.9835 307.383 32.5207 306.44 32.3259C306.57 31.8781 306.638 31.4091 306.638 30.9289C306.638 29.5949 306.12 28.3444 305.181 27.4089C304.471 26.7003 303.599 26.2518 302.683 26.0609C303.173 24.3717 302.755 22.4713 301.426 21.1402C300.32 20.0388 298.819 19.5654 297.372 19.7188L287.9 17.9259C286.456 17.6519 284.652 17.4707 283.513 18.5094C283.441 18.5749 283.368 18.6504 283.296 18.7343C281.53 18.0907 279.471 18.474 278.057 19.8864C277.119 20.8233 276.602 22.0734 276.602 23.4065C276.602 23.8867 276.67 24.3556 276.799 24.8036C275.858 24.9982 274.995 25.4605 274.304 26.1523C273.364 27.0883 272.846 28.337 272.845 29.6685C272.845 30.1499 272.913 30.6204 273.043 31.0695C272.102 31.2637 271.238 31.7251 270.545 32.4169C269.605 33.3557 269.088 34.6066 269.088 35.939C269.088 36.9595 269.392 37.9318 269.957 38.753C269.244 38.9947 268.591 39.3969 268.044 39.9431C266.104 41.8812 266.103 45.0387 268.046 46.9846L268.278 47.2156L263.497 51.9876C261.72 51.151 259.531 51.4644 258.065 52.9287L255.527 55.4598C254.624 56.3614 254.127 57.5642 254.127 58.8464C254.127 60.1288 254.624 61.3317 255.527 62.2335L258.695 65.3973C259.256 65.9578 260.165 65.9572 260.725 65.3962C261.286 64.8351 261.285 63.9259 260.724 63.3656L257.556 60.2018C257.197 59.8426 256.999 59.3613 256.999 58.8466C256.999 58.332 257.197 57.8508 257.556 57.4925L260.094 54.9613C260.728 54.3278 261.699 54.2334 262.436 54.6742C262.488 54.7521 262.548 54.8263 262.616 54.8951C262.74 55.0185 262.88 55.113 263.029 55.1822L277.585 69.717C277.654 69.8677 277.749 70.0096 277.873 70.1336C277.994 70.2544 278.132 70.3478 278.278 70.4165C278.585 70.7645 278.755 71.2091 278.755 71.6833C278.755 72.198 278.557 72.6792 278.198 73.0384L275.662 75.5711C274.913 76.3171 273.694 76.3169 272.947 75.5734L269.779 72.4054C269.219 71.8447 268.31 71.8447 267.749 72.4054C267.188 72.9662 267.188 73.8753 267.749 74.4361L270.919 77.6063C271.852 78.5355 273.077 78.9998 274.303 78.9998C275.529 78.9998 276.756 78.5347 277.69 77.6047L280.227 75.0704C281.13 74.1686 281.627 72.9658 281.627 71.6833C281.627 70.7681 281.373 69.8941 280.9 69.1404L286.28 63.7666C286.286 63.7608 286.291 63.755 286.297 63.7491C286.913 63.1122 288.629 63.2314 290.288 63.3466C291.467 63.4286 292.781 63.5197 294.065 63.3717L299.957 69.2566C299.576 69.9525 299.372 70.7381 299.372 71.5563C299.372 72.8373 299.869 74.0394 300.772 74.9412L303.309 77.4755C304.212 78.3768 305.414 78.8732 306.696 78.8732C307.977 78.8732 309.18 78.3769 310.082 77.4755L325.472 62.1042C326.375 61.2025 326.872 59.9997 326.872 58.7174C326.872 57.4352 326.375 56.2324 325.471 55.3299ZM287.366 20.7475L293.594 21.9265L289.866 25.6534C289.289 25.3762 288.499 24.8592 287.632 24.0297C286.445 22.8942 285.596 21.5832 285.519 20.7655C285.518 20.7651 285.518 20.7647 285.518 20.7642C285.518 20.7641 285.518 20.7639 285.518 20.7638C285.513 20.7051 285.511 20.6582 285.512 20.6224C285.7 20.5767 286.198 20.5261 287.366 20.7475ZM280.086 21.9183C280.813 21.1915 281.943 21.1077 282.765 21.6643C283.231 23.6174 284.897 25.3875 285.647 26.1046C286.202 26.6362 287.985 28.2298 289.784 28.6678C290.027 29.0167 290.159 29.4326 290.159 29.8714C290.159 30.4367 289.942 30.9653 289.546 31.3611C289.151 31.7569 288.621 31.9747 288.055 31.9747C287.489 31.9747 286.959 31.7569 286.562 31.3592L286.562 31.3591L286.561 31.3584L280.086 24.8944C279.691 24.5002 279.473 23.9717 279.473 23.4065C279.474 22.8412 279.691 22.3126 280.086 21.9183ZM276.334 28.1841C276.729 27.7885 277.258 27.5705 277.823 27.5705C278.389 27.5705 278.92 27.7889 279.318 28.1861L284.532 33.3901C285.353 34.2125 285.353 35.5507 284.535 36.3703C284.138 36.7659 283.606 36.9838 283.039 36.9838C282.472 36.9838 281.94 36.7659 281.545 36.372L281.545 36.3718L277.589 32.4169C277.583 32.4107 277.576 32.405 277.57 32.3987L276.332 31.1617C275.935 30.7651 275.717 30.2356 275.717 29.6707C275.718 29.1076 275.935 28.5808 276.334 28.1841ZM272.575 34.4487C272.97 34.0539 273.5 33.8365 274.067 33.8365C274.63 33.8365 275.155 34.0508 275.549 34.4388L279.517 38.4049C279.912 38.7989 280.13 39.3269 280.13 39.8915C280.13 40.456 279.912 40.9839 279.515 41.3796C279.12 41.7743 278.59 41.9917 278.024 41.9917C277.457 41.9917 276.926 41.7737 276.53 41.3796L275.092 39.9428C275.091 39.9424 275.091 39.9421 275.091 39.9418L272.575 37.4288C272.178 37.0325 271.96 36.5033 271.96 35.9387C271.96 35.3742 272.178 34.8448 272.575 34.4487ZM270.074 41.9749C270.471 41.5782 271.002 41.3598 271.568 41.3598C272.134 41.3598 272.665 41.5781 273.062 41.9744L274.502 43.4132C274.898 43.8073 275.116 44.3352 275.116 44.8999C275.116 45.4645 274.898 45.9923 274.499 46.3895C274.104 46.7852 273.575 47.0032 273.008 47.0032C272.442 47.0032 271.913 46.7853 271.515 46.3867L271.334 46.207C271.332 46.2046 271.33 46.202 271.328 46.1997C271.325 46.1972 271.322 46.1949 271.319 46.1923L270.075 44.9529C269.254 44.1301 269.253 42.7943 270.074 41.9749ZM299.336 58.2941C298.775 57.7329 297.866 57.7325 297.305 58.2928L296.028 59.5687C294.814 60.7826 292.614 60.6298 290.487 60.4822C288.177 60.3217 285.788 60.156 284.243 61.7429L278.954 67.0254L265.728 53.8188L270.408 49.1467C271.182 49.6209 272.075 49.8751 273.009 49.8751C274.343 49.8751 275.594 49.3578 276.529 48.4215C277.47 47.4845 277.988 46.234 277.988 44.9C277.988 44.8876 277.987 44.8753 277.987 44.8629C278 44.8631 278.012 44.8638 278.024 44.8638C279.357 44.8638 280.607 44.3481 281.543 43.4133C282.484 42.4763 283.002 41.2256 283.002 39.8918C283.002 39.8794 283.001 39.8671 283.001 39.8547C283.014 39.8547 283.027 39.8556 283.039 39.8556C284.371 39.8556 285.622 39.3404 286.564 38.4021C287.543 37.4225 288.026 36.1327 288.017 34.8457C288.03 34.8458 288.043 34.8465 288.056 34.8465C289.39 34.8464 290.641 34.3293 291.577 33.3915C292.515 32.4546 293.032 31.2045 293.032 29.8714C293.032 28.9391 292.778 28.0478 292.306 27.2758L296.408 23.1751C296.714 22.8707 297.091 22.6796 297.486 22.6008C297.529 22.5962 297.571 22.5894 297.613 22.5811C298.246 22.4937 298.912 22.6893 299.397 23.1721C300.218 23.9946 300.218 25.3329 299.4 26.1524L298.151 27.3967C298.146 27.4008 298.142 27.4045 298.138 27.4087L296.699 28.8453C296.138 29.4056 296.137 30.3148 296.698 30.8759C297.258 31.4371 298.167 31.4375 298.728 30.8772L299.982 29.6245C299.983 29.6242 299.983 29.6239 299.983 29.6236L300.173 29.4347C300.996 28.6189 302.33 28.6206 303.153 29.442C303.549 29.836 303.767 30.364 303.767 30.9286C303.767 31.4931 303.549 32.0211 303.15 32.4183L301.893 33.6774C301.893 33.6775 301.893 33.6777 301.893 33.678L300.454 35.111C299.892 35.6706 299.89 36.5799 300.45 37.1416C301.009 37.7035 301.918 37.7052 302.48 37.1457L303.926 35.7061C304.321 35.3103 304.85 35.0925 305.417 35.0925C305.983 35.0925 306.513 35.3103 306.911 35.709C307.306 36.1032 307.524 36.6312 307.524 37.1958C307.524 37.7603 307.306 38.2882 306.908 38.6846L304.403 41.1907C303.843 41.7516 303.843 42.6607 304.403 43.2213C304.684 43.5016 305.051 43.6416 305.419 43.6416C305.786 43.6416 306.154 43.5013 306.434 43.2209L307.662 41.9927C307.669 41.986 307.676 41.9801 307.683 41.9732C308.078 41.5774 308.608 41.3595 309.174 41.3595C309.741 41.3595 310.27 41.5774 310.666 41.9746C311.487 42.794 311.486 44.1299 310.666 44.9509L309.418 46.1977C309.418 46.1982 309.417 46.1986 309.417 46.199C309.416 46.1995 309.416 46.2 309.415 46.2005L307.434 48.1793C306.873 48.7398 306.873 49.649 307.433 50.21C307.713 50.4908 308.081 50.6312 308.449 50.6312C308.816 50.6312 309.183 50.4912 309.464 50.2113L310.433 49.2434L315.078 53.8827L301.853 67.0914L297.114 62.3587C297.445 62.1462 297.761 61.8964 298.057 61.5997L299.334 60.3245C299.896 59.7643 299.896 58.8551 299.336 58.2941ZM323.442 60.0723L308.052 75.4436C307.692 75.8032 307.21 76.0013 306.696 76.0013C306.181 76.0013 305.699 75.8032 305.338 75.4435L302.801 72.9092C302.441 72.5502 302.243 72.0697 302.243 71.5563C302.243 71.043 302.441 70.5625 302.801 70.2033L318.191 54.832C318.551 54.4723 319.033 54.2742 319.548 54.2742C320.063 54.2742 320.545 54.4723 320.906 54.8328L323.443 57.3623C323.802 57.7215 324 58.2025 324 58.7172C324 59.2321 323.802 59.7133 323.442 60.0723Z" fill="#15854F"/>
<path d="M271.306 14.0656C271.587 14.3453 271.954 14.4851 272.321 14.4851C272.688 14.4851 273.056 14.3445 273.337 14.0635C273.897 13.5021 273.896 12.5931 273.335 12.0329L268.103 6.81095C267.541 6.25076 266.632 6.25147 266.072 6.81295C265.512 7.37428 265.513 8.28335 266.074 8.84354L271.306 14.0656Z" fill="#15854F"/>
<path d="M308.426 14.4851C308.793 14.4851 309.161 14.3451 309.441 14.0652L314.669 8.84313C315.23 8.28279 315.231 7.37357 314.67 6.81253C314.11 6.25148 313.201 6.25091 312.64 6.81139L307.411 12.0335C306.85 12.5938 306.85 13.503 307.41 14.0641C307.691 14.3448 308.058 14.4851 308.426 14.4851Z" fill="#15854F"/>
<path d="M262.957 67.7655C262.401 68.3309 262.409 69.2401 262.974 69.7961L262.978 69.8C263.257 70.0744 263.62 70.211 263.982 70.211C264.354 70.211 264.725 70.0671 265.007 69.7807C265.563 69.2152 265.553 68.304 264.987 67.7481C264.422 67.1921 263.513 67.2 262.957 67.7655Z" fill="#15854F"/>
<path d="M302.848 56.2256C303.066 56.2256 303.288 56.1758 303.496 56.071C304.204 55.7139 304.488 54.8504 304.131 54.1424C303.774 53.4343 302.91 53.1497 302.203 53.5069L302.195 53.5109C301.487 53.8681 301.206 54.7295 301.563 55.4376C301.815 55.9377 302.322 56.2256 302.848 56.2256Z" fill="#15854F"/>
<path d="M229.584 112L229.568 105.296L226.272 110.816H225.12L221.824 105.424V112H219.392V100.8H221.536L225.728 107.76L229.856 100.8H232L232.016 112H229.584ZM239.134 106.144C240.254 106.155 241.102 106.405 241.678 106.896C242.254 107.387 242.542 108.091 242.542 109.008C242.542 109.968 242.217 110.709 241.566 111.232C240.916 111.755 239.993 112.016 238.798 112.016L234.606 112V103.392H237.086V106.144H239.134ZM243.47 103.392H245.95V112H243.47V103.392ZM238.574 110.24C239.054 110.251 239.422 110.149 239.678 109.936C239.934 109.723 240.062 109.403 240.062 108.976C240.062 108.56 239.934 108.256 239.678 108.064C239.433 107.872 239.065 107.771 238.574 107.76L237.086 107.744V110.24H238.574ZM256.68 108.736H255.384V112H252.888V103.392H255.384V106.736H256.728L259.064 103.392H261.72L258.712 107.52L261.928 112H258.984L256.68 108.736ZM266.92 112.128C266.013 112.128 265.197 111.941 264.472 111.568C263.757 111.184 263.197 110.656 262.792 109.984C262.386 109.312 262.184 108.549 262.184 107.696C262.184 106.843 262.386 106.08 262.792 105.408C263.197 104.736 263.757 104.213 264.472 103.84C265.197 103.456 266.013 103.264 266.92 103.264C267.826 103.264 268.637 103.456 269.352 103.84C270.066 104.213 270.626 104.736 271.032 105.408C271.437 106.08 271.64 106.843 271.64 107.696C271.64 108.549 271.437 109.312 271.032 109.984C270.626 110.656 270.066 111.184 269.352 111.568C268.637 111.941 267.826 112.128 266.92 112.128ZM266.92 110.08C267.56 110.08 268.082 109.867 268.488 109.44C268.904 109.003 269.112 108.421 269.112 107.696C269.112 106.971 268.904 106.395 268.488 105.968C268.082 105.531 267.56 105.312 266.92 105.312C266.28 105.312 265.752 105.531 265.336 105.968C264.92 106.395 264.712 106.971 264.712 107.696C264.712 108.421 264.92 109.003 265.336 109.44C265.752 109.867 266.28 110.08 266.92 110.08ZM281.756 112V106.848L279.18 111.168H278.124L275.612 106.832V112H273.356V103.392H275.964L278.716 108.368L281.644 103.392H283.98L284.012 112H281.756ZM289.747 103.264C291.08 103.264 292.104 103.584 292.819 104.224C293.534 104.853 293.891 105.808 293.891 107.088V112H291.555V110.928C291.086 111.728 290.211 112.128 288.931 112.128C288.27 112.128 287.694 112.016 287.203 111.792C286.723 111.568 286.355 111.259 286.099 110.864C285.843 110.469 285.715 110.021 285.715 109.52C285.715 108.72 286.014 108.091 286.611 107.632C287.219 107.173 288.152 106.944 289.411 106.944H291.395C291.395 106.4 291.23 105.984 290.899 105.696C290.568 105.397 290.072 105.248 289.411 105.248C288.952 105.248 288.499 105.323 288.051 105.472C287.614 105.611 287.24 105.803 286.931 106.048L286.035 104.304C286.504 103.973 287.064 103.717 287.715 103.536C288.376 103.355 289.054 103.264 289.747 103.264ZM289.555 110.448C289.982 110.448 290.36 110.352 290.691 110.16C291.022 109.957 291.256 109.664 291.395 109.28V108.4H289.683C288.659 108.4 288.147 108.736 288.147 109.408C288.147 109.728 288.27 109.984 288.515 110.176C288.771 110.357 289.118 110.448 289.555 110.448ZM296.059 103.392H298.539V106.752H302.283V103.392H304.779V112H302.283V108.784H298.539V112H296.059V103.392ZM316.817 109.952V113.856H314.497V112H308.449V113.856H306.129V109.952H306.481C307.014 109.941 307.382 109.627 307.585 109.008C307.787 108.389 307.915 107.509 307.969 106.368L308.081 103.392H315.585V109.952H316.817ZM310.225 106.544C310.193 107.419 310.123 108.133 310.017 108.688C309.921 109.243 309.734 109.664 309.457 109.952H313.089V105.44H310.273L310.225 106.544ZM321.732 103.264C323.065 103.264 324.089 103.584 324.804 104.224C325.518 104.853 325.876 105.808 325.876 107.088V112H323.54V110.928C323.07 111.728 322.196 112.128 320.916 112.128C320.254 112.128 319.678 112.016 319.188 111.792C318.708 111.568 318.34 111.259 318.084 110.864C317.828 110.469 317.7 110.021 317.7 109.52C317.7 108.72 317.998 108.091 318.596 107.632C319.204 107.173 320.137 106.944 321.396 106.944H323.38C323.38 106.4 323.214 105.984 322.884 105.696C322.553 105.397 322.057 105.248 321.396 105.248C320.937 105.248 320.484 105.323 320.036 105.472C319.598 105.611 319.225 105.803 318.916 106.048L318.02 104.304C318.489 103.973 319.049 103.717 319.7 103.536C320.361 103.355 321.038 103.264 321.732 103.264ZM321.54 110.448C321.966 110.448 322.345 110.352 322.676 110.16C323.006 109.957 323.241 109.664 323.38 109.28V108.4H321.668C320.644 108.4 320.132 108.736 320.132 109.408C320.132 109.728 320.254 109.984 320.5 110.176C320.756 110.357 321.102 110.448 321.54 110.448ZM227.76 119.392V128H225.264V121.44H221.68V128H219.2V119.392H227.76ZM235.225 119.264C236.025 119.264 236.75 119.451 237.401 119.824C238.062 120.187 238.58 120.704 238.953 121.376C239.326 122.037 239.513 122.811 239.513 123.696C239.513 124.581 239.326 125.36 238.953 126.032C238.58 126.693 238.062 127.211 237.401 127.584C236.75 127.947 236.025 128.128 235.225 128.128C234.126 128.128 233.262 127.781 232.633 127.088V131.104H230.137V119.392H232.521V120.384C233.14 119.637 234.041 119.264 235.225 119.264ZM234.793 126.08C235.433 126.08 235.956 125.867 236.361 125.44C236.777 125.003 236.985 124.421 236.985 123.696C236.985 122.971 236.777 122.395 236.361 121.968C235.956 121.531 235.433 121.312 234.793 121.312C234.153 121.312 233.625 121.531 233.209 121.968C232.804 122.395 232.601 122.971 232.601 123.696C232.601 124.421 232.804 125.003 233.209 125.44C233.625 125.867 234.153 126.08 234.793 126.08ZM245.295 128.128C244.388 128.128 243.572 127.941 242.847 127.568C242.132 127.184 241.572 126.656 241.167 125.984C240.761 125.312 240.559 124.549 240.559 123.696C240.559 122.843 240.761 122.08 241.167 121.408C241.572 120.736 242.132 120.213 242.847 119.84C243.572 119.456 244.388 119.264 245.295 119.264C246.201 119.264 247.012 119.456 247.727 119.84C248.441 120.213 249.001 120.736 249.407 121.408C249.812 122.08 250.015 122.843 250.015 123.696C250.015 124.549 249.812 125.312 249.407 125.984C249.001 126.656 248.441 127.184 247.727 127.568C247.012 127.941 246.201 128.128 245.295 128.128ZM245.295 126.08C245.935 126.08 246.457 125.867 246.863 125.44C247.279 125.003 247.487 124.421 247.487 123.696C247.487 122.971 247.279 122.395 246.863 121.968C246.457 121.531 245.935 121.312 245.295 121.312C244.655 121.312 244.127 121.531 243.711 121.968C243.295 122.395 243.087 122.971 243.087 123.696C243.087 124.421 243.295 125.003 243.711 125.44C244.127 125.867 244.655 126.08 245.295 126.08ZM263.619 123.664C263.619 124.997 263.171 126.053 262.275 126.832C261.39 127.6 260.121 128.043 258.467 128.16V131.104H256.179V128.16C254.526 128.043 253.251 127.605 252.355 126.848C251.47 126.08 251.027 125.019 251.027 123.664C251.027 122.331 251.465 121.296 252.339 120.56C253.225 119.824 254.505 119.397 256.179 119.28V116.128H258.467V119.28C260.121 119.397 261.39 119.829 262.275 120.576C263.171 121.323 263.619 122.352 263.619 123.664ZM253.443 123.664C253.443 124.432 253.662 125.024 254.099 125.44C254.537 125.856 255.23 126.117 256.179 126.224V121.216C255.23 121.312 254.537 121.563 254.099 121.968C253.662 122.363 253.443 122.928 253.443 123.664ZM258.467 126.224C259.417 126.117 260.11 125.856 260.547 125.44C260.995 125.024 261.219 124.432 261.219 123.664C261.219 122.928 260.995 122.363 260.547 121.968C260.11 121.563 259.417 121.312 258.467 121.216V126.224ZM273.677 123.728C273.677 123.76 273.661 123.984 273.629 124.4H267.117C267.235 124.933 267.512 125.355 267.949 125.664C268.387 125.973 268.931 126.128 269.581 126.128C270.029 126.128 270.424 126.064 270.765 125.936C271.117 125.797 271.443 125.584 271.741 125.296L273.069 126.736C272.259 127.664 271.075 128.128 269.517 128.128C268.547 128.128 267.688 127.941 266.941 127.568C266.195 127.184 265.619 126.656 265.213 125.984C264.808 125.312 264.605 124.549 264.605 123.696C264.605 122.853 264.803 122.096 265.197 121.424C265.603 120.741 266.152 120.213 266.845 119.84C267.549 119.456 268.333 119.264 269.197 119.264C270.04 119.264 270.803 119.445 271.485 119.808C272.168 120.171 272.701 120.693 273.085 121.376C273.48 122.048 273.677 122.832 273.677 123.728ZM269.213 121.152C268.648 121.152 268.173 121.312 267.789 121.632C267.405 121.952 267.171 122.389 267.085 122.944H271.325C271.24 122.4 271.005 121.968 270.621 121.648C270.237 121.317 269.768 121.152 269.213 121.152ZM279.687 128.128C278.769 128.128 277.943 127.941 277.207 127.568C276.481 127.184 275.911 126.656 275.495 125.984C275.089 125.312 274.887 124.549 274.887 123.696C274.887 122.843 275.089 122.08 275.495 121.408C275.911 120.736 276.481 120.213 277.207 119.84C277.943 119.456 278.769 119.264 279.687 119.264C280.593 119.264 281.383 119.456 282.055 119.84C282.737 120.213 283.233 120.752 283.543 121.456L281.607 122.496C281.159 121.707 280.513 121.312 279.671 121.312C279.02 121.312 278.481 121.525 278.055 121.952C277.628 122.379 277.415 122.96 277.415 123.696C277.415 124.432 277.628 125.013 278.055 125.44C278.481 125.867 279.02 126.08 279.671 126.08C280.524 126.08 281.169 125.685 281.607 124.896L283.543 125.952C283.233 126.635 282.737 127.168 282.055 127.552C281.383 127.936 280.593 128.128 279.687 128.128ZM289.046 128.128C288.129 128.128 287.302 127.941 286.566 127.568C285.841 127.184 285.27 126.656 284.854 125.984C284.449 125.312 284.246 124.549 284.246 123.696C284.246 122.843 284.449 122.08 284.854 121.408C285.27 120.736 285.841 120.213 286.566 119.84C287.302 119.456 288.129 119.264 289.046 119.264C289.953 119.264 290.742 119.456 291.414 119.84C292.097 120.213 292.593 120.752 292.902 121.456L290.966 122.496C290.518 121.707 289.873 121.312 289.03 121.312C288.379 121.312 287.841 121.525 287.414 121.952C286.987 122.379 286.774 122.96 286.774 123.696C286.774 124.432 286.987 125.013 287.414 125.44C287.841 125.867 288.379 126.08 289.03 126.08C289.883 126.08 290.529 125.685 290.966 124.896L292.902 125.952C292.593 126.635 292.097 127.168 291.414 127.552C290.742 127.936 289.953 128.128 289.046 128.128ZM294.419 119.392H296.899V124.512L301.091 119.392H303.379V128H300.899V122.88L296.723 128H294.419V119.392ZM309.81 128.128C308.903 128.128 308.087 127.941 307.362 127.568C306.647 127.184 306.087 126.656 305.682 125.984C305.277 125.312 305.074 124.549 305.074 123.696C305.074 122.843 305.277 122.08 305.682 121.408C306.087 120.736 306.647 120.213 307.362 119.84C308.087 119.456 308.903 119.264 309.81 119.264C310.717 119.264 311.527 119.456 312.242 119.84C312.957 120.213 313.517 120.736 313.922 121.408C314.327 122.08 314.53 122.843 314.53 123.696C314.53 124.549 314.327 125.312 313.922 125.984C313.517 126.656 312.957 127.184 312.242 127.568C311.527 127.941 310.717 128.128 309.81 128.128ZM309.81 126.08C310.45 126.08 310.973 125.867 311.378 125.44C311.794 125.003 312.002 124.421 312.002 123.696C312.002 122.971 311.794 122.395 311.378 121.968C310.973 121.531 310.45 121.312 309.81 121.312C309.17 121.312 308.642 121.531 308.226 121.968C307.81 122.395 307.602 122.971 307.602 123.696C307.602 124.421 307.81 125.003 308.226 125.44C308.642 125.867 309.17 126.08 309.81 126.08ZM316.247 119.392H318.727V122.752H322.471V119.392H324.967V128H322.471V124.784H318.727V128H316.247V119.392ZM330.7 119.264C332.034 119.264 333.058 119.584 333.772 120.224C334.487 120.853 334.844 121.808 334.844 123.088V128H332.508V126.928C332.039 127.728 331.164 128.128 329.884 128.128C329.223 128.128 328.647 128.016 328.156 127.792C327.676 127.568 327.308 127.259 327.052 126.864C326.796 126.469 326.668 126.021 326.668 125.52C326.668 124.72 326.967 124.091 327.564 123.632C328.172 123.173 329.106 122.944 330.364 122.944H332.348C332.348 122.4 332.183 121.984 331.852 121.696C331.522 121.397 331.026 121.248 330.364 121.248C329.906 121.248 329.452 121.323 329.004 121.472C328.567 121.611 328.194 121.803 327.884 122.048L326.988 120.304C327.458 119.973 328.018 119.717 328.668 119.536C329.33 119.355 330.007 119.264 330.7 119.264ZM330.508 126.448C330.935 126.448 331.314 126.352 331.644 126.16C331.975 125.957 332.21 125.664 332.348 125.28V124.4H330.636C329.612 124.4 329.1 124.736 329.1 125.408C329.1 125.728 329.223 125.984 329.468 126.176C329.724 126.357 330.071 126.448 330.508 126.448ZM345.269 119.392V128H342.773V121.44H340.053L339.973 122.96C339.93 124.091 339.823 125.029 339.653 125.776C339.482 126.523 339.205 127.109 338.821 127.536C338.437 127.963 337.903 128.176 337.221 128.176C336.858 128.176 336.426 128.112 335.925 127.984L336.053 125.936C336.223 125.957 336.346 125.968 336.421 125.968C336.794 125.968 337.071 125.835 337.253 125.568C337.445 125.291 337.573 124.944 337.637 124.528C337.701 124.101 337.749 123.541 337.781 122.848L337.909 119.392H345.269ZM351.701 128.128C350.794 128.128 349.978 127.941 349.253 127.568C348.538 127.184 347.978 126.656 347.573 125.984C347.167 125.312 346.965 124.549 346.965 123.696C346.965 122.843 347.167 122.08 347.573 121.408C347.978 120.736 348.538 120.213 349.253 119.84C349.978 119.456 350.794 119.264 351.701 119.264C352.607 119.264 353.418 119.456 354.133 119.84C354.847 120.213 355.407 120.736 355.813 121.408C356.218 122.08 356.421 122.843 356.421 123.696C356.421 124.549 356.218 125.312 355.813 125.984C355.407 126.656 354.847 127.184 354.133 127.568C353.418 127.941 352.607 128.128 351.701 128.128ZM351.701 126.08C352.341 126.08 352.863 125.867 353.269 125.44C353.685 125.003 353.893 124.421 353.893 123.696C353.893 122.971 353.685 122.395 353.269 121.968C352.863 121.531 352.341 121.312 351.701 121.312C351.061 121.312 350.533 121.531 350.117 121.968C349.701 122.395 349.493 122.971 349.493 123.696C349.493 124.421 349.701 125.003 350.117 125.44C350.533 125.867 351.061 126.08 351.701 126.08ZM364.714 123.504C365.727 123.845 366.234 124.528 366.234 125.552C366.234 126.331 365.94 126.933 365.354 127.36C364.767 127.787 363.892 128 362.73 128H358.138V119.392H362.538C363.615 119.392 364.458 119.589 365.066 119.984C365.674 120.368 365.977 120.912 365.977 121.616C365.977 122.043 365.866 122.421 365.642 122.752C365.428 123.072 365.119 123.323 364.714 123.504ZM360.426 122.928H362.314C363.188 122.928 363.626 122.619 363.626 122C363.626 121.392 363.188 121.088 362.314 121.088H360.426V122.928ZM362.522 126.304C363.439 126.304 363.898 125.989 363.898 125.36C363.898 125.029 363.791 124.789 363.578 124.64C363.364 124.48 363.028 124.4 362.57 124.4H360.426V126.304H362.522ZM367.723 116.8H370.699L370.203 124.112H368.219L367.723 116.8ZM369.211 128.128C368.773 128.128 368.405 127.989 368.107 127.712C367.819 127.424 367.675 127.077 367.675 126.672C367.675 126.267 367.819 125.931 368.107 125.664C368.395 125.387 368.763 125.248 369.211 125.248C369.659 125.248 370.027 125.387 370.315 125.664C370.603 125.931 370.747 126.267 370.747 126.672C370.747 127.077 370.597 127.424 370.299 127.712C370.011 127.989 369.648 128.128 369.211 128.128Z" fill="#414141"/>
<path d="M90.5 181C72.027 181 57 196.028 57 214.5C57 232.972 72.027 248 90.5 248C108.973 248 124 232.972 124 214.5C124 196.028 108.973 181 90.5 181ZM90.5 245.208C73.5673 245.208 59.7916 231.433 59.7916 214.5C59.7916 197.567 73.5673 183.792 90.5 183.792C107.433 183.792 121.208 197.567 121.208 214.5C121.208 231.433 107.433 245.208 90.5 245.208Z" fill="#15854F"/>
<path d="M90.4935 220.079C82.5793 220.079 75.4965 224.8 72.4485 232.106C72.1541 232.817 72.4895 233.634 73.201 233.931C73.9016 234.23 74.7304 233.892 75.0275 233.18C77.6366 226.918 83.7078 222.871 90.4935 222.871C97.2791 222.871 103.353 226.918 105.962 233.183C106.186 233.718 106.706 234.042 107.252 234.042C107.432 234.042 107.614 234.008 107.789 233.934C108.5 233.638 108.836 232.82 108.541 232.109C105.493 224.801 98.4105 220.079 90.4935 220.079Z" fill="#15854F"/>
<path d="M79.3326 208.917C80.8744 208.917 82.1243 207.667 82.1243 206.125C82.1243 204.583 80.8744 203.333 79.3326 203.333C77.7909 203.333 76.541 204.583 76.541 206.125C76.541 207.667 77.7909 208.917 79.3326 208.917Z" fill="#15854F"/>
<path d="M101.667 208.917C103.208 208.917 104.458 207.667 104.458 206.125C104.458 204.583 103.208 203.333 101.667 203.333C100.125 203.333 98.875 204.583 98.875 206.125C98.875 207.667 100.125 208.917 101.667 208.917Z" fill="#15854F"/>
<path d="M104.7 209.519C103.787 210.843 101.66 214.112 101.66 215.896C101.66 218.205 103.539 220.083 105.848 220.083C108.157 220.083 110.035 218.205 110.035 215.896C110.035 214.112 107.909 210.843 106.995 209.519C106.477 208.764 105.218 208.764 104.7 209.519ZM105.848 217.292C105.079 217.292 104.452 216.666 104.452 215.897C104.463 215.471 105.043 214.255 105.848 212.9C106.652 214.252 107.23 215.468 107.244 215.896C107.243 216.666 106.616 217.292 105.848 217.292Z" fill="#15854F"/>
<path d="M319.779 200.661C319.775 200.661 319.771 200.661 319.767 200.661H315.627V199.245C315.649 198.684 315.286 198.18 314.748 198.023C311.874 197.27 308.914 196.893 305.943 196.9C301.058 196.9 294.403 197.999 289.482 203.006C284.597 197.95 277.893 196.9 273.02 196.9C270.049 196.893 267.09 197.27 264.216 198.023C263.677 198.18 263.314 198.684 263.336 199.245V200.649H259.221C258.547 200.649 258 201.196 258 201.87V240.874C258 241.548 258.547 242.095 259.221 242.095C259.431 242.095 259.637 242.04 259.82 241.936C259.942 241.875 272.153 235.196 289.201 239.494H289.384H289.494C289.591 239.506 289.69 239.506 289.787 239.494C306.883 235.159 319.095 241.827 319.168 241.936C319.546 242.155 320.012 242.155 320.389 241.936C320.765 241.72 320.997 241.32 321 240.886V201.882C321 201.208 320.453 200.661 319.779 200.661ZM260.442 238.932V203.103H263.361V233.73C263.353 234.405 263.894 234.958 264.568 234.965C264.634 234.966 264.7 234.961 264.765 234.951C267.292 234.566 269.842 234.362 272.398 234.341C275.937 234.279 279.462 234.812 282.826 235.916C275.23 234.998 267.525 236.036 260.442 238.932ZM272.398 231.911C270.176 231.916 267.958 232.058 265.754 232.338V200.209C268.132 199.68 270.56 199.409 272.996 199.403C277.563 199.403 283.864 200.453 288.236 205.387L288.273 235.806C285.733 234.145 280.775 231.911 272.398 231.911ZM290.715 205.387C295.087 200.502 301.388 199.403 305.955 199.403C308.391 199.41 310.819 199.681 313.197 200.209V232.338C311.006 232.056 308.799 231.909 306.59 231.899C298.262 231.899 293.292 234.133 290.715 235.794V205.387ZM318.545 238.932C311.448 236.028 303.725 234.989 296.113 235.916C299.492 234.808 303.034 234.275 306.59 234.341C309.162 234.355 311.729 234.555 314.271 234.939C314.938 235.04 315.561 234.582 315.662 233.915C315.672 233.85 315.676 233.784 315.676 233.718V203.103H318.594L318.545 238.932Z" fill="#15854F"/>
<path d="M250.152 270.16C250.835 270.363 251.357 270.693 251.72 271.152C252.083 271.611 252.264 272.176 252.264 272.848C252.264 273.84 251.885 274.613 251.128 275.168C250.381 275.723 249.309 276 247.912 276H242.392V264.8H247.608C248.909 264.8 249.923 265.051 250.648 265.552C251.373 266.053 251.736 266.768 251.736 267.696C251.736 268.251 251.597 268.741 251.32 269.168C251.043 269.584 250.653 269.915 250.152 270.16ZM244.968 269.44H247.384C247.949 269.44 248.376 269.328 248.664 269.104C248.952 268.869 249.096 268.528 249.096 268.08C249.096 267.643 248.947 267.307 248.648 267.072C248.36 266.837 247.939 266.72 247.384 266.72H244.968V269.44ZM247.816 274.08C249.032 274.08 249.64 273.6 249.64 272.64C249.64 271.712 249.032 271.248 247.816 271.248H244.968V274.08H247.816ZM257.466 267.264C258.799 267.264 259.823 267.584 260.538 268.224C261.253 268.853 261.61 269.808 261.61 271.088V276H259.274V274.928C258.805 275.728 257.93 276.128 256.65 276.128C255.989 276.128 255.413 276.016 254.922 275.792C254.442 275.568 254.074 275.259 253.818 274.864C253.562 274.469 253.434 274.021 253.434 273.52C253.434 272.72 253.733 272.091 254.33 271.632C254.938 271.173 255.871 270.944 257.13 270.944H259.114C259.114 270.4 258.949 269.984 258.618 269.696C258.287 269.397 257.791 269.248 257.13 269.248C256.671 269.248 256.218 269.323 255.77 269.472C255.333 269.611 254.959 269.803 254.65 270.048L253.754 268.304C254.223 267.973 254.783 267.717 255.434 267.536C256.095 267.355 256.773 267.264 257.466 267.264ZM257.274 274.448C257.701 274.448 258.079 274.352 258.41 274.16C258.741 273.957 258.975 273.664 259.114 273.28V272.4H257.402C256.378 272.4 255.866 272.736 255.866 273.408C255.866 273.728 255.989 273.984 256.234 274.176C256.49 274.357 256.837 274.448 257.274 274.448ZM272.178 276V270.848L269.602 275.168H268.546L266.034 270.832V276H263.778V267.392H266.386L269.138 272.368L272.066 267.392H274.402L274.434 276H272.178ZM281.356 267.392H283.836V270.752H287.58V267.392H290.076V276H287.58V272.784H283.836V276H281.356V267.392ZM301.09 267.392L297.202 276.528C296.807 277.52 296.316 278.219 295.73 278.624C295.154 279.029 294.455 279.232 293.634 279.232C293.186 279.232 292.743 279.163 292.306 279.024C291.868 278.885 291.511 278.693 291.234 278.448L292.146 276.672C292.338 276.843 292.556 276.976 292.802 277.072C293.058 277.168 293.308 277.216 293.554 277.216C293.895 277.216 294.172 277.131 294.386 276.96C294.599 276.8 294.791 276.528 294.962 276.144L294.994 276.064L291.266 267.392H293.842L296.258 273.232L298.69 267.392H301.09ZM310.337 272.736H309.137V276H306.673V272.736H305.473L303.649 276H300.705L303.409 271.552L300.897 267.392H303.537L305.441 270.736H306.673V267.392H309.137V270.736H310.353L312.273 267.392H314.913L312.401 271.552L315.121 276H312.161L310.337 272.736ZM316.419 267.392H318.899V270.752H322.643V267.392H325.139V276H322.643V272.784H318.899V276H316.419V267.392ZM330.872 267.264C332.205 267.264 333.229 267.584 333.944 268.224C334.659 268.853 335.016 269.808 335.016 271.088V276H332.68V274.928C332.211 275.728 331.336 276.128 330.056 276.128C329.395 276.128 328.819 276.016 328.328 275.792C327.848 275.568 327.48 275.259 327.224 274.864C326.968 274.469 326.84 274.021 326.84 273.52C326.84 272.72 327.139 272.091 327.736 271.632C328.344 271.173 329.277 270.944 330.536 270.944H332.52C332.52 270.4 332.355 269.984 332.024 269.696C331.693 269.397 331.197 269.248 330.536 269.248C330.077 269.248 329.624 269.323 329.176 269.472C328.739 269.611 328.365 269.803 328.056 270.048L327.16 268.304C327.629 267.973 328.189 267.717 328.84 267.536C329.501 267.355 330.179 267.264 330.872 267.264ZM330.68 274.448C331.107 274.448 331.485 274.352 331.816 274.16C332.147 273.957 332.381 273.664 332.52 273.28V272.4H330.808C329.784 272.4 329.272 272.736 329.272 273.408C329.272 273.728 329.395 273.984 329.64 274.176C329.896 274.357 330.243 274.448 330.68 274.448ZM242.2 283.392H244.68V288.512L248.872 283.392H251.16V292H248.68V286.88L244.504 292H242.2V283.392ZM253.559 283.392H256.039V286.752H259.783V283.392H262.279V292H259.783V288.784H256.039V292H253.559V283.392ZM271.901 285.44H268.989V292H266.509V285.44H263.597V283.392H271.901V285.44ZM281.24 287.728C281.24 287.76 281.224 287.984 281.192 288.4H274.68C274.797 288.933 275.075 289.355 275.512 289.664C275.949 289.973 276.493 290.128 277.144 290.128C277.592 290.128 277.987 290.064 278.328 289.936C278.68 289.797 279.005 289.584 279.304 289.296L280.632 290.736C279.821 291.664 278.637 292.128 277.08 292.128C276.109 292.128 275.251 291.941 274.504 291.568C273.757 291.184 273.181 290.656 272.776 289.984C272.371 289.312 272.168 288.549 272.168 287.696C272.168 286.853 272.365 286.096 272.76 285.424C273.165 284.741 273.715 284.213 274.408 283.84C275.112 283.456 275.896 283.264 276.76 283.264C277.603 283.264 278.365 283.445 279.048 283.808C279.731 284.171 280.264 284.693 280.648 285.376C281.043 286.048 281.24 286.832 281.24 287.728ZM276.776 285.152C276.211 285.152 275.736 285.312 275.352 285.632C274.968 285.952 274.733 286.389 274.648 286.944H278.888C278.803 286.4 278.568 285.968 278.184 285.648C277.8 285.317 277.331 285.152 276.776 285.152ZM288.225 283.264C289.025 283.264 289.75 283.451 290.401 283.824C291.062 284.187 291.58 284.704 291.953 285.376C292.326 286.037 292.513 286.811 292.513 287.696C292.513 288.581 292.326 289.36 291.953 290.032C291.58 290.693 291.062 291.211 290.401 291.584C289.75 291.947 289.025 292.128 288.225 292.128C287.126 292.128 286.262 291.781 285.633 291.088V295.104H283.137V283.392H285.521V284.384C286.14 283.637 287.041 283.264 288.225 283.264ZM287.793 290.08C288.433 290.08 288.956 289.867 289.361 289.44C289.777 289.003 289.985 288.421 289.985 287.696C289.985 286.971 289.777 286.395 289.361 285.968C288.956 285.531 288.433 285.312 287.793 285.312C287.153 285.312 286.625 285.531 286.209 285.968C285.804 286.395 285.601 286.971 285.601 287.696C285.601 288.421 285.804 289.003 286.209 289.44C286.625 289.867 287.153 290.08 287.793 290.08ZM302.631 287.728C302.631 287.76 302.615 287.984 302.583 288.4H296.071C296.188 288.933 296.465 289.355 296.903 289.664C297.34 289.973 297.884 290.128 298.535 290.128C298.983 290.128 299.377 290.064 299.719 289.936C300.071 289.797 300.396 289.584 300.695 289.296L302.023 290.736C301.212 291.664 300.028 292.128 298.471 292.128C297.5 292.128 296.641 291.941 295.895 291.568C295.148 291.184 294.572 290.656 294.167 289.984C293.761 289.312 293.559 288.549 293.559 287.696C293.559 286.853 293.756 286.096 294.151 285.424C294.556 284.741 295.105 284.213 295.799 283.84C296.503 283.456 297.287 283.264 298.151 283.264C298.993 283.264 299.756 283.445 300.439 283.808C301.121 284.171 301.655 284.693 302.039 285.376C302.433 286.048 302.631 286.832 302.631 287.728ZM298.167 285.152C297.601 285.152 297.127 285.312 296.743 285.632C296.359 285.952 296.124 286.389 296.039 286.944H300.279C300.193 286.4 299.959 285.968 299.575 285.648C299.191 285.317 298.721 285.152 298.167 285.152ZM308.64 292.128C307.722 292.128 306.896 291.941 306.16 291.568C305.434 291.184 304.864 290.656 304.448 289.984C304.042 289.312 303.84 288.549 303.84 287.696C303.84 286.843 304.042 286.08 304.448 285.408C304.864 284.736 305.434 284.213 306.16 283.84C306.896 283.456 307.722 283.264 308.64 283.264C309.546 283.264 310.336 283.456 311.008 283.84C311.69 284.213 312.186 284.752 312.496 285.456L310.56 286.496C310.112 285.707 309.466 285.312 308.624 285.312C307.973 285.312 307.434 285.525 307.008 285.952C306.581 286.379 306.368 286.96 306.368 287.696C306.368 288.432 306.581 289.013 307.008 289.44C307.434 289.867 307.973 290.08 308.624 290.08C309.477 290.08 310.122 289.685 310.56 288.896L312.496 289.952C312.186 290.635 311.69 291.168 311.008 291.552C310.336 291.936 309.546 292.128 308.64 292.128ZM314.013 283.392H316.493V286.752H320.237V283.392H322.733V292H320.237V288.784H316.493V292H314.013V283.392ZM328.466 283.264C329.799 283.264 330.823 283.584 331.538 284.224C332.253 284.853 332.61 285.808 332.61 287.088V292H330.274V290.928C329.805 291.728 328.93 292.128 327.65 292.128C326.989 292.128 326.413 292.016 325.922 291.792C325.442 291.568 325.074 291.259 324.818 290.864C324.562 290.469 324.434 290.021 324.434 289.52C324.434 288.72 324.733 288.091 325.33 287.632C325.938 287.173 326.871 286.944 328.13 286.944H330.114C330.114 286.4 329.949 285.984 329.618 285.696C329.287 285.397 328.791 285.248 328.13 285.248C327.671 285.248 327.218 285.323 326.77 285.472C326.333 285.611 325.959 285.803 325.65 286.048L324.754 284.304C325.223 283.973 325.783 283.717 326.434 283.536C327.095 283.355 327.773 283.264 328.466 283.264ZM328.274 290.448C328.701 290.448 329.079 290.352 329.41 290.16C329.741 289.957 329.975 289.664 330.114 289.28V288.4H328.402C327.378 288.4 326.866 288.736 326.866 289.408C326.866 289.728 326.989 289.984 327.234 290.176C327.49 290.357 327.837 290.448 328.274 290.448ZM342.426 283.392V292H340.202V289.536H338.362L336.73 292H334.074L336.042 289.184C335.445 288.949 334.986 288.613 334.666 288.176C334.357 287.728 334.202 287.189 334.202 286.56C334.202 285.547 334.565 284.768 335.29 284.224C336.026 283.669 337.034 283.392 338.314 283.392H342.426ZM338.362 285.424C337.829 285.424 337.423 285.52 337.146 285.712C336.879 285.904 336.746 286.213 336.746 286.64C336.746 287.067 336.874 287.381 337.13 287.584C337.397 287.776 337.797 287.872 338.33 287.872H340.202V285.424H338.362ZM250.456 299.392V308H247.96V301.44H245.24L245.16 302.96C245.117 304.091 245.011 305.029 244.84 305.776C244.669 306.523 244.392 307.109 244.008 307.536C243.624 307.963 243.091 308.176 242.408 308.176C242.045 308.176 241.613 308.112 241.112 307.984L241.24 305.936C241.411 305.957 241.533 305.968 241.608 305.968C241.981 305.968 242.259 305.835 242.44 305.568C242.632 305.291 242.76 304.944 242.824 304.528C242.888 304.101 242.936 303.541 242.968 302.848L243.096 299.392H250.456ZM252.856 299.392H255.336V304.512L259.528 299.392H261.816V308H259.336V302.88L255.16 308H252.856V299.392ZM271.448 301.44H268.536V308H266.056V301.44H263.144V299.392H271.448V301.44ZM280.787 303.728C280.787 303.76 280.771 303.984 280.739 304.4H274.227C274.344 304.933 274.621 305.355 275.059 305.664C275.496 305.973 276.04 306.128 276.691 306.128C277.139 306.128 277.533 306.064 277.875 305.936C278.227 305.797 278.552 305.584 278.851 305.296L280.179 306.736C279.368 307.664 278.184 308.128 276.627 308.128C275.656 308.128 274.797 307.941 274.051 307.568C273.304 307.184 272.728 306.656 272.323 305.984C271.917 305.312 271.715 304.549 271.715 303.696C271.715 302.853 271.912 302.096 272.307 301.424C272.712 300.741 273.261 300.213 273.955 299.84C274.659 299.456 275.443 299.264 276.307 299.264C277.149 299.264 277.912 299.445 278.595 299.808C279.277 300.171 279.811 300.693 280.195 301.376C280.589 302.048 280.787 302.832 280.787 303.728ZM276.323 301.152C275.757 301.152 275.283 301.312 274.899 301.632C274.515 301.952 274.28 302.389 274.195 302.944H278.435C278.349 302.4 278.115 301.968 277.731 301.648C277.347 301.317 276.877 301.152 276.323 301.152ZM287.772 299.264C288.572 299.264 289.297 299.451 289.948 299.824C290.609 300.187 291.127 300.704 291.5 301.376C291.873 302.037 292.06 302.811 292.06 303.696C292.06 304.581 291.873 305.36 291.5 306.032C291.127 306.693 290.609 307.211 289.948 307.584C289.297 307.947 288.572 308.128 287.772 308.128C286.673 308.128 285.809 307.781 285.18 307.088V311.104H282.684V299.392H285.068V300.384C285.687 299.637 286.588 299.264 287.772 299.264ZM287.34 306.08C287.98 306.08 288.503 305.867 288.908 305.44C289.324 305.003 289.532 304.421 289.532 303.696C289.532 302.971 289.324 302.395 288.908 301.968C288.503 301.531 287.98 301.312 287.34 301.312C286.7 301.312 286.172 301.531 285.756 301.968C285.351 302.395 285.148 302.971 285.148 303.696C285.148 304.421 285.351 305.003 285.756 305.44C286.172 305.867 286.7 306.08 287.34 306.08ZM297.013 299.264C298.346 299.264 299.37 299.584 300.085 300.224C300.799 300.853 301.157 301.808 301.157 303.088V308H298.821V306.928C298.351 307.728 297.477 308.128 296.197 308.128C295.535 308.128 294.959 308.016 294.469 307.792C293.989 307.568 293.621 307.259 293.365 306.864C293.109 306.469 292.981 306.021 292.981 305.52C292.981 304.72 293.279 304.091 293.877 303.632C294.485 303.173 295.418 302.944 296.677 302.944H298.661C298.661 302.4 298.495 301.984 298.165 301.696C297.834 301.397 297.338 301.248 296.677 301.248C296.218 301.248 295.765 301.323 295.317 301.472C294.879 301.611 294.506 301.803 294.197 302.048L293.301 300.304C293.77 299.973 294.33 299.717 294.981 299.536C295.642 299.355 296.319 299.264 297.013 299.264ZM296.821 306.448C297.247 306.448 297.626 306.352 297.957 306.16C298.287 305.957 298.522 305.664 298.661 305.28V304.4H296.949C295.925 304.4 295.413 304.736 295.413 305.408C295.413 305.728 295.535 305.984 295.781 306.176C296.037 306.357 296.383 306.448 296.821 306.448ZM310.557 301.44H307.645V308H305.165V301.44H302.253V299.392H310.557V301.44ZM320.59 299.392L316.702 308.528C316.307 309.52 315.816 310.219 315.23 310.624C314.654 311.029 313.955 311.232 313.134 311.232C312.686 311.232 312.243 311.163 311.806 311.024C311.368 310.885 311.011 310.693 310.734 310.448L311.646 308.672C311.838 308.843 312.056 308.976 312.302 309.072C312.558 309.168 312.808 309.216 313.054 309.216C313.395 309.216 313.672 309.131 313.886 308.96C314.099 308.8 314.291 308.528 314.462 308.144L314.494 308.064L310.766 299.392H313.342L315.758 305.232L318.19 299.392H320.59ZM326.866 299.264C327.666 299.264 328.391 299.451 329.042 299.824C329.703 300.187 330.22 300.704 330.594 301.376C330.967 302.037 331.154 302.811 331.154 303.696C331.154 304.581 330.967 305.36 330.594 306.032C330.22 306.693 329.703 307.211 329.042 307.584C328.391 307.947 327.666 308.128 326.866 308.128C325.767 308.128 324.903 307.781 324.274 307.088V311.104H321.778V299.392H324.162V300.384C324.78 299.637 325.682 299.264 326.866 299.264ZM326.434 306.08C327.074 306.08 327.596 305.867 328.002 305.44C328.418 305.003 328.626 304.421 328.626 303.696C328.626 302.971 328.418 302.395 328.002 301.968C327.596 301.531 327.074 301.312 326.434 301.312C325.794 301.312 325.266 301.531 324.85 301.968C324.444 302.395 324.242 302.971 324.242 303.696C324.242 304.421 324.444 305.003 324.85 305.44C325.266 305.867 325.794 306.08 326.434 306.08ZM336.107 299.264C337.44 299.264 338.464 299.584 339.179 300.224C339.893 300.853 340.251 301.808 340.251 303.088V308H337.915V306.928C337.445 307.728 336.571 308.128 335.291 308.128C334.629 308.128 334.053 308.016 333.562 307.792C333.083 307.568 332.715 307.259 332.459 306.864C332.203 306.469 332.075 306.021 332.075 305.52C332.075 304.72 332.373 304.091 332.971 303.632C333.579 303.173 334.512 302.944 335.771 302.944H337.755C337.755 302.4 337.589 301.984 337.259 301.696C336.928 301.397 336.432 301.248 335.771 301.248C335.312 301.248 334.859 301.323 334.411 301.472C333.973 301.611 333.6 301.803 333.291 302.048L332.395 300.304C332.864 299.973 333.424 299.717 334.075 299.536C334.736 299.355 335.413 299.264 336.107 299.264ZM335.915 306.448C336.341 306.448 336.72 306.352 337.051 306.16C337.381 305.957 337.616 305.664 337.755 305.28V304.4H336.043C335.019 304.4 334.507 304.736 334.507 305.408C334.507 305.728 334.629 305.984 334.875 306.176C335.131 306.357 335.477 306.448 335.915 306.448ZM343.331 305.024C343.779 305.024 344.147 305.168 344.435 305.456C344.723 305.733 344.867 306.101 344.867 306.56C344.867 306.773 344.84 306.987 344.787 307.2C344.733 307.413 344.616 307.733 344.435 308.16L343.523 310.464H341.939L342.643 307.92C342.376 307.813 342.163 307.643 342.003 307.408C341.853 307.163 341.779 306.88 341.779 306.56C341.779 306.101 341.923 305.733 342.211 305.456C342.509 305.168 342.883 305.024 343.331 305.024ZM249.432 317.44H246.52V324H244.04V317.44H241.128V315.392H249.432V317.44ZM255.835 315.264C256.635 315.264 257.36 315.451 258.01 315.824C258.672 316.187 259.189 316.704 259.562 317.376C259.936 318.037 260.123 318.811 260.123 319.696C260.123 320.581 259.936 321.36 259.562 322.032C259.189 322.693 258.672 323.211 258.01 323.584C257.36 323.947 256.635 324.128 255.835 324.128C254.736 324.128 253.872 323.781 253.243 323.088V327.104H250.747V315.392H253.131V316.384C253.749 315.637 254.651 315.264 255.835 315.264ZM255.403 322.08C256.043 322.08 256.565 321.867 256.971 321.44C257.387 321.003 257.595 320.421 257.595 319.696C257.595 318.971 257.387 318.395 256.971 317.968C256.565 317.531 256.043 317.312 255.403 317.312C254.763 317.312 254.235 317.531 253.819 317.968C253.413 318.395 253.211 318.971 253.211 319.696C253.211 320.421 253.413 321.003 253.819 321.44C254.235 321.867 254.763 322.08 255.403 322.08ZM270.24 319.728C270.24 319.76 270.224 319.984 270.192 320.4H263.68C263.797 320.933 264.075 321.355 264.512 321.664C264.949 321.973 265.493 322.128 266.144 322.128C266.592 322.128 266.987 322.064 267.328 321.936C267.68 321.797 268.005 321.584 268.304 321.296L269.632 322.736C268.821 323.664 267.637 324.128 266.08 324.128C265.109 324.128 264.251 323.941 263.504 323.568C262.757 323.184 262.181 322.656 261.776 321.984C261.371 321.312 261.168 320.549 261.168 319.696C261.168 318.853 261.365 318.096 261.76 317.424C262.165 316.741 262.715 316.213 263.408 315.84C264.112 315.456 264.896 315.264 265.76 315.264C266.603 315.264 267.365 315.445 268.048 315.808C268.731 316.171 269.264 316.693 269.648 317.376C270.043 318.048 270.24 318.832 270.24 319.728ZM265.776 317.152C265.211 317.152 264.736 317.312 264.352 317.632C263.968 317.952 263.733 318.389 263.648 318.944H267.888C267.803 318.4 267.568 317.968 267.184 317.648C266.8 317.317 266.331 317.152 265.776 317.152ZM272.153 315.392H274.633V318.752H278.377V315.392H280.873V324H278.377V320.784H274.633V324H272.153V315.392ZM283.263 315.392H285.743V320.512L289.935 315.392H292.223V324H289.743V318.88L285.567 324H283.263V315.392ZM294.622 315.392H297.102V318.752H300.846V315.392H303.342V324H300.846V320.784H297.102V324H294.622V315.392ZM312.627 317.44H308.211V324H305.731V315.392H312.627V317.44ZM313.95 315.392H316.43V320.512L320.622 315.392H322.91V324H320.43V318.88L316.254 324H313.95V315.392ZM328.003 320.112C328.003 319.557 328.126 319.099 328.371 318.736C328.627 318.373 328.995 317.973 329.475 317.536C329.827 317.216 330.083 316.949 330.243 316.736C330.414 316.512 330.499 316.261 330.499 315.984C330.499 315.589 330.339 315.28 330.019 315.056C329.71 314.821 329.294 314.704 328.771 314.704C328.27 314.704 327.822 314.811 327.427 315.024C327.043 315.227 326.718 315.515 326.451 315.888L324.515 314.752C324.963 314.069 325.566 313.541 326.323 313.168C327.091 312.795 327.998 312.608 329.043 312.608C330.27 312.608 331.251 312.869 331.987 313.392C332.734 313.915 333.107 314.64 333.107 315.568C333.107 316.005 333.033 316.389 332.883 316.72C332.745 317.051 332.569 317.333 332.355 317.568C332.153 317.792 331.886 318.053 331.555 318.352C331.161 318.704 330.873 319.003 330.691 319.248C330.51 319.483 330.419 319.771 330.419 320.112H328.003ZM329.219 324.128C328.782 324.128 328.414 323.989 328.115 323.712C327.827 323.424 327.683 323.077 327.683 322.672C327.683 322.267 327.827 321.931 328.115 321.664C328.403 321.387 328.771 321.248 329.219 321.248C329.667 321.248 330.035 321.387 330.323 321.664C330.611 321.931 330.755 322.267 330.755 322.672C330.755 323.077 330.606 323.424 330.307 323.712C330.019 323.989 329.657 324.128 329.219 324.128Z" fill="#414141"/>
</svg>
