<svg width="374" height="202" viewBox="0 0 374 202" fill="none" xmlns="http://www.w3.org/2000/svg">
<path d="M0 52.2471C0 37.1923 11.2116 24.3973 26.1881 22.8644C157.354 9.43914 202.107 35.9027 331.105 28.4398C348.745 27.4193 364 41.1983 364 58.8676V167.137C364 181.871 353.23 194.503 338.619 196.395C202.995 213.956 155.246 184.073 32.9697 190.282C15.3004 191.18 0 177.406 0 159.714V52.2471Z" fill="#D5E093"/>
<path d="M10 33.2471C10 18.1923 21.2116 5.39727 36.1881 3.86437C167.354 -9.56086 212.107 16.9027 341.105 9.43977C358.745 8.41925 374 22.1983 374 39.8676V148.137C374 162.871 363.23 175.503 348.619 177.395C212.995 194.956 165.246 165.073 42.9697 171.282C25.3004 172.18 10 158.406 10 140.714V33.2471Z" fill="#0C6D3C"/>
</svg>
