<svg width="1107" height="284" viewBox="0 0 1107 284" fill="none" xmlns="http://www.w3.org/2000/svg">
<path d="M0 64.9273C0 49.0853 12.5666 35.9497 28.3823 35.0382C477.827 9.13461 595.011 55.6843 1045.44 38.0604C1062.52 37.3923 1077 51.0122 1077 68.1016V243.147C1077 258.831 1064.66 271.898 1049.01 273.007C586.351 305.823 458.527 253.099 31.5453 269.624C14.4579 270.285 0 256.662 0 239.562V64.9273Z" fill="#D5E093"/>
<path d="M30 37.9273C30 22.0853 42.5666 8.94973 58.3823 8.03819C507.827 -17.8654 625.011 28.6843 1075.44 11.0604C1092.52 10.3923 1107 24.0122 1107 41.1016V216.147C1107 231.831 1094.66 244.898 1079.01 246.007C616.351 278.823 488.527 226.099 61.5453 242.624C44.4579 243.285 30 229.662 30 212.562V37.9273Z" fill="#0C6D3C"/>
</svg>
