<svg width="89" height="584" viewBox="0 0 89 584" fill="none" xmlns="http://www.w3.org/2000/svg">
<path d="M16.833 3C30.7324 11.4404 40.749 23.989 52.0031 35.6253C56.2901 40.0579 61.1381 44.4713 64.0278 50.115C67.7385 57.3621 69.8681 67.0505 69.7237 75.2617C69.1855 105.869 56.1034 135.786 47.9345 164.911C45.3515 174.12 43.9368 183.524 39.6167 192.114C36.3614 198.587 33.9444 205.388 32.655 212.587C30.3592 225.405 24.6764 237.723 22.8905 250.541C21.4649 260.772 22.2343 272.112 22.5289 282.418C22.9176 296.015 31.1482 304.065 37.8989 314.95C52.3267 338.213 57.5038 365.988 72.1648 388.988C78.5406 398.99 86.1487 408.696 85.9978 421.333C85.9207 427.791 81.9084 432.645 78.8553 437.972C74.475 445.615 69.6804 452.934 65.4744 460.689C56.232 477.729 48.1592 496.113 36.181 511.356C29.5176 519.835 24.5824 529.96 19.6357 539.587C15.682 547.283 10.9855 556.784 8.69593 565.202C7.5824 569.295 6.95418 572.937 4.80823 576.606C3.91943 578.126 3 579.2 3 581" stroke="#D5E093" stroke-width="5" stroke-linecap="round" stroke-linejoin="round" stroke-dasharray="26 26"/>
</svg>
