<svg width="229" height="1465" viewBox="0 0 229 1465" fill="none" xmlns="http://www.w3.org/2000/svg">
<path d="M42.9156 7C79.0037 28.1946 105.011 59.7055 134.231 88.9252C145.361 100.056 157.949 111.139 165.451 125.31C175.086 143.508 180.615 167.837 180.24 188.456C178.843 265.314 144.877 340.438 123.667 413.574C116.961 436.7 113.287 460.314 102.071 481.884C93.6189 498.138 87.3433 515.215 83.9956 533.293C78.0348 565.482 63.2802 596.413 58.6434 628.599C54.942 654.291 56.9395 682.766 57.7044 708.646C58.7136 742.79 80.0833 763.003 97.6107 790.336C135.071 848.753 148.513 918.498 186.578 976.252C203.132 1001.37 222.886 1025.74 222.494 1057.47C222.294 1073.69 211.876 1085.88 203.949 1099.26C192.576 1118.45 180.128 1136.83 169.207 1156.3C145.21 1199.09 124.251 1245.25 93.1506 1283.53C75.8498 1304.82 63.036 1330.25 50.1926 1354.42C39.9273 1373.75 27.7333 1397.61 21.7888 1418.74C18.8977 1429.02 17.2665 1438.17 11.6949 1447.38C9.3872 1451.2 7 1453.89 7 1458.41" stroke="#D5E093" stroke-width="13" stroke-linecap="round" stroke-linejoin="round" stroke-dasharray="26 26"/>
</svg>
